<svg xmlns="http://www.w3.org/2000/svg" xmlns:xlink="http://www.w3.org/1999/xlink" x="0px" y="0px" viewBox="0 0 60 60" style="enable-background:new 0 0 60 60;" xml:space="preserve"><style type="text/css">	.st0{fill:#FFFFFF;}	.st1{fill:#158285;}	.st2{fill:#F7941D;}	.st3{fill:#2BB574;}	.st4{fill:#FCB614;}</style><g id="Layer_4">	<circle class="st0" cx="30" cy="30" r="27.42"></circle></g><g id="Layer_5">	<g>		<g>			<path class="st1" d="M5.48,31.07c0.01,0,0.01,0,0.02,0c0.12,0.01,0.22-0.08,0.24-0.19c0-0.01,0-0.01,0-0.02    c0-0.13-0.11-0.24-0.24-0.24c-0.13,0-0.24,0.11-0.24,0.24C5.26,30.96,5.37,31.07,5.48,31.07z"></path>			<path class="st1" d="M6.12,31.07c0.01,0,0.01,0,0.02,0c0.12,0.01,0.22-0.08,0.24-0.19c0-0.01,0-0.01,0-0.02    c0-0.13-0.11-0.24-0.24-0.24c-0.13,0-0.24,0.11-0.24,0.24C5.89,30.96,5.99,31.07,6.12,31.07z"></path>			<path class="st1" d="M6.71,33.42H6.7c-0.12-0.01-0.22,0.08-0.24,0.2v0.01c0,0.13,0.11,0.24,0.24,0.24c0.13,0,0.24-0.11,0.24-0.24    C6.94,33.51,6.83,33.42,6.71,33.42z"></path>			<path class="st1" d="M7.34,33.42H7.33c-0.12-0.01-0.22,0.08-0.24,0.2v0.01c0,0.13,0.11,0.24,0.24,0.24    c0.13,0,0.24-0.11,0.24-0.24C7.56,33.51,7.46,33.42,7.34,33.42z"></path>			<path class="st1" d="M8.81,32.24c-0.02-0.25,0.17-0.46,0.4-0.48c0.02,0,0.03,0,0.06,0c0.16,0.01,0.31,0.04,0.46,0.12l0.12-0.35    c-0.19-0.09-0.4-0.15-0.62-0.15c-0.47,0-0.8,0.28-0.8,0.8c0.01,0.19,0.04,0.38,0.12,0.56H7.75v-1.33H7.37v1.33H6.35v-1.33H5.75    c-0.58,0-0.98,0.36-0.98,0.86c0,0.5,0.37,0.85,0.92,0.85h4.23v-0.38H8.98C8.88,32.59,8.82,32.42,8.81,32.24z M5.98,32.74H5.66    c-0.3,0-0.53-0.19-0.53-0.48c0-0.29,0.22-0.48,0.53-0.48h0.33V32.74z"></path>			<path class="st1" d="M13.27,31.14c0.01,0,0.01,0,0.02,0c0.12,0.01,0.22-0.08,0.24-0.19c0-0.01,0-0.01,0-0.02    c0-0.13-0.11-0.24-0.24-0.24c-0.13,0-0.24,0.11-0.24,0.24C13.06,31.04,13.16,31.14,13.27,31.14z"></path>			<path class="st1" d="M13.91,31.14c0.01,0,0.01,0,0.02,0c0.12,0.01,0.22-0.08,0.24-0.2c0.01-0.12-0.08-0.22-0.2-0.24    c-0.01,0-0.02,0-0.03,0c-0.12-0.01-0.22,0.08-0.24,0.2v0.01C13.69,31.04,13.79,31.14,13.91,31.14z"></path>			<path class="st1" d="M15.64,31.37c-0.22,0.01-0.44,0.07-0.63,0.18l0.13,0.35c0.13-0.09,0.3-0.15,0.47-0.15    c0.46,0,0.55,0.54,0.81,1h-1.93v-1.33h-0.38v1.33h-1.02v-0.46c0-0.55-0.34-0.91-0.84-0.91c-0.5,0-0.84,0.37-0.84,0.91v-0.01    c0,0.33-0.16,0.47-0.46,0.47h-0.26v-2.03h-0.38v2.41h0.64c0.28,0,0.52-0.07,0.63-0.28c0.15,0.2,0.38,0.28,0.67,0.28h4.66v-0.38    C16.57,32.58,16.56,31.37,15.64,31.37z M12.25,32.74c-0.24,0.02-0.44-0.15-0.46-0.38c0-0.02,0-0.06,0-0.08    c0-0.31,0.19-0.53,0.46-0.53c0.27,0,0.46,0.21,0.46,0.53v0.47h-0.46V32.74z"></path>			<path class="st1" d="M15.89,33.42h-0.01c-0.12-0.01-0.24,0.07-0.25,0.19c-0.01,0.12,0.07,0.24,0.19,0.25c0.02,0,0.03,0,0.06,0    c0.12,0.01,0.22-0.08,0.24-0.2c0-0.01,0-0.01,0-0.02C16.12,33.51,16.02,33.42,15.89,33.42z"></path>			<polygon class="st1" points="18.72,32.74 17.39,32.74 17.39,33.12 19.1,33.12 19.1,30.71 18.72,30.71    "></polygon>			<rect x="17.79" y="30.95" class="st1" width="0.38" height="1.59"></rect>			<rect x="19.59" y="30.71" class="st1" width="0.38" height="2.41"></rect>			<circle class="st1" cx="21.56" cy="30.85" r="0.24"></circle>			<circle class="st1" cx="22.18" cy="30.85" r="0.24"></circle>			<path class="st1" d="M22.76,33.42h-0.01c-0.12-0.01-0.22,0.08-0.24,0.2v0.01c0,0.13,0.11,0.24,0.24,0.24    c0.12,0,0.24-0.11,0.24-0.24C22.97,33.51,22.87,33.42,22.76,33.42z"></path>			<path class="st1" d="M23.38,33.42h-0.01c-0.12-0.01-0.22,0.08-0.24,0.2v0.01c0,0.13,0.11,0.24,0.24,0.24    c0.12,0,0.24-0.11,0.24-0.24C23.61,33.51,23.51,33.42,23.38,33.42z"></path>			<path class="st1" d="M26.74,31.14c0.01,0,0.01,0,0.02,0c0.12,0.01,0.22-0.08,0.24-0.19c0-0.01,0-0.01,0-0.02    c0.01-0.13-0.09-0.25-0.22-0.26c-0.13-0.01-0.25,0.09-0.26,0.22C26.5,31.02,26.6,31.13,26.74,31.14z"></path>			<path class="st1" d="M28.04,30.71h-0.01c-0.12-0.01-0.22,0.08-0.24,0.2v0.01c0,0.13,0.11,0.24,0.24,0.24    c0.13,0,0.24-0.11,0.24-0.24C28.25,30.81,28.16,30.71,28.04,30.71z"></path>			<path class="st1" d="M28.69,30.71c-0.12-0.01-0.22,0.08-0.24,0.2v0.01c-0.01,0.13,0.08,0.25,0.21,0.26    c0.13,0.01,0.25-0.08,0.26-0.21c0.01-0.13-0.08-0.25-0.21-0.26C28.7,30.71,28.69,30.71,28.69,30.71z"></path>			<path class="st1" d="M30.1,32.74h-0.8V31.4h-0.38v1.33h-1.14V31.4H27.4v1.33h-1.08v-0.46c0-0.55-0.34-0.91-0.84-0.91    c-0.5,0-0.84,0.37-0.84,0.91v-0.01c0,0.33-0.16,0.47-0.46,0.47H23.8V31.4h-0.39v1.33h-1.02V31.4h-0.62    c-0.58,0-0.98,0.36-0.98,0.86c0,0.5,0.37,0.85,0.92,0.85h2.46c0.28,0,0.52-0.07,0.63-0.28c0.15,0.2,0.38,0.28,0.67,0.28h4.99    v-2.41h-0.38v2.03H30.1z M22.03,32.74H21.7c-0.3,0-0.53-0.19-0.53-0.48c0-0.29,0.22-0.48,0.53-0.48h0.33V32.74z M25.48,32.74    c-0.24,0.02-0.44-0.15-0.46-0.38c0-0.02,0-0.06,0-0.08c0-0.31,0.19-0.53,0.46-0.53c0.28,0,0.46,0.21,0.46,0.53v0.47h-0.46V32.74z    "></path>			<rect x="30.96" y="30.71" class="st1" width="0.38" height="2.41"></rect>			<path class="st1" d="M32.63,31.4c-0.58,0-0.98,0.36-0.98,0.86c0,0.5,0.37,0.85,0.92,0.85h0.29c-0.01,0.21-0.16,0.27-0.36,0.27    c-0.17,0-0.34-0.03-0.49-0.08l0.08,0.4c0.15,0.04,0.29,0.06,0.44,0.06c0.48,0,0.73-0.18,0.73-0.75V31.4H32.63z M32.87,32.25v0.48    h-0.33c-0.3,0-0.53-0.19-0.53-0.48c0-0.29,0.22-0.48,0.53-0.48h0.33V32.25z"></path>			<path class="st1" d="M24.57,28.41c0-0.54-0.25-0.82-0.81-0.82H23.5v0.38h0.31c0.26,0,0.39,0.13,0.39,0.41v0.55h-1.04v0.38h1.4    L24.57,28.41z"></path>			<path class="st1" d="M25.54,29.23v-1.65h-0.38v1.7c0,0.24-0.11,0.31-0.27,0.31c-0.08,0-0.15-0.01-0.24-0.01l-0.03,0.33    c0.08,0.02,0.16,0.02,0.24,0.02C25.25,29.96,25.54,29.79,25.54,29.23z"></path>			<rect x="25.97" y="26.89" class="st1" width="0.38" height="2.41"></rect>			<path class="st1" d="M27.59,29.29h0.29c-0.01,0.21-0.16,0.27-0.36,0.27c-0.17,0-0.34-0.02-0.5-0.08l0.08,0.4    c0.11,0.04,0.24,0.06,0.36,0.06c0.45,0,0.77-0.16,0.8-0.65h0.81c0.26,0,0.48-0.08,0.58-0.28c0.15,0.2,0.38,0.28,0.67,0.28h2.01    v-2.4h-0.38v2.03h-0.78v-0.46c0-0.55-0.34-0.91-0.84-0.91c-0.5,0-0.84,0.36-0.84,0.91v-0.01c0,0.33-0.16,0.48-0.46,0.48h-0.77    v-1.35h-0.59c-0.58,0-0.98,0.36-0.98,0.86C26.67,28.95,27.04,29.29,27.59,29.29z M29.85,28.45L29.85,28.45    c0-0.31,0.19-0.53,0.47-0.53c0.28,0,0.46,0.21,0.46,0.53v0.47h-0.46c-0.24,0.02-0.44-0.15-0.46-0.38    C29.85,28.51,29.85,28.48,29.85,28.45z M27.56,27.97h0.33v0.48v0.48h-0.31c-0.3,0-0.53-0.19-0.53-0.48v-0.01    C27.03,28.15,27.25,27.97,27.56,27.97z"></path>			<rect x="32.83" y="26.89" class="st1" width="0.38" height="2.41"></rect>			<path class="st1" d="M12.51,27.24c0.01,0,0.01,0,0.02,0c0.12,0.01,0.22-0.08,0.24-0.19c0-0.01,0-0.01,0-0.02    c0-0.13-0.11-0.24-0.24-0.24c-0.13,0-0.24,0.11-0.24,0.24S12.38,27.24,12.51,27.24z"></path>			<path class="st1" d="M11.88,27.24c0.01,0,0.01,0,0.02,0c0.12,0.01,0.22-0.08,0.24-0.19c0-0.01,0-0.01,0-0.02    c0-0.13-0.11-0.24-0.24-0.24c-0.12,0-0.24,0.11-0.24,0.24C11.66,27.15,11.76,27.24,11.88,27.24z"></path>			<path class="st1" d="M12.08,29.29h2.06v-1.72h-0.38v1.33h-1.02v-1.33h-0.62c-0.58,0-0.98,0.36-0.98,0.86    C11.16,28.95,11.53,29.29,12.08,29.29z M12.05,27.96h0.33v0.95h-0.33c-0.3,0-0.53-0.19-0.53-0.48    C11.52,28.15,11.75,27.96,12.05,27.96z"></path>			<path class="st1" d="M17.5,27.05c0.01,0,0.01,0,0.02,0c0.11,0.01,0.21-0.07,0.22-0.18c0-0.01,0-0.01,0-0.02    c0.01-0.12-0.08-0.24-0.2-0.25c-0.12-0.01-0.24,0.08-0.25,0.2C17.28,26.93,17.37,27.04,17.5,27.05z"></path>			<path class="st1" d="M17.2,27.52c0.01,0,0.01,0,0.02,0c0.11-0.01,0.2-0.11,0.19-0.22s-0.11-0.2-0.22-0.19    c-0.11,0.01-0.19,0.1-0.19,0.21C16.98,27.43,17.08,27.52,17.2,27.52z"></path>			<path class="st1" d="M17.6,27.3c0,0.01,0,0.01,0,0.02c-0.01,0.12,0.08,0.24,0.2,0.25c0.12,0.01,0.24-0.08,0.25-0.2    c0.01-0.12-0.08-0.24-0.2-0.25c-0.01,0-0.01,0-0.02,0C17.71,27.1,17.61,27.17,17.6,27.3z"></path>			<path class="st1" d="M15.31,29.29h6.11v-2.4h-0.38v2.03H20.3v-1.35h-0.38v1.33H18.9v-1.33h-0.38v1.33h-0.8v-1.1h-0.38v1.1h-0.68    v-1.1h-0.38v1.1h-0.96v-1.37h-0.38v1.75c0,0.24-0.11,0.31-0.27,0.31c-0.08,0-0.15-0.01-0.24-0.01l-0.03,0.33    c0.08,0.02,0.16,0.02,0.24,0.02C15.02,29.96,15.3,29.8,15.31,29.29z"></path>			<rect x="21.92" y="26.89" class="st1" width="0.38" height="2.41"></rect>			<circle class="st1" cx="13.06" cy="29.81" r="0.24"></circle>			<circle class="st1" cx="13.69" cy="29.81" r="0.24"></circle>			<path class="st1" d="M19.43,29.6c-0.01,0-0.01,0-0.02,0c-0.12-0.01-0.22,0.08-0.24,0.2v0.01c-0.01,0.13,0.08,0.25,0.21,0.26    c0.13,0.01,0.25-0.08,0.26-0.21C19.66,29.73,19.56,29.61,19.43,29.6z"></path>		</g>		<path class="st1" d="M43.29,26.27c0.08,0.01,0.16,0.02,0.24,0.03c0.36-0.66,0.78-1.3,1.26-1.88c-1.2-0.93-2.56-1.66-3.99-2.15   L43.29,26.27z M49.75,31.33L45.62,30l4.83,7.74C50.74,35.58,50.5,33.37,49.75,31.33L49.75,31.33z"></path>		<path class="st2" d="M43,28.35c1.78-2.85,4.1-4.93,7.47-6.09L45.63,30l-4.83,7.74C40.36,34.2,41.21,31.21,43,28.35z"></path>		<path class="st3" d="M36.02,26.88l5.15,1.67c0.55-0.3,1.11-0.57,1.68-0.82c0.08-0.18,0.16-0.36,0.24-0.55   c0.13-0.3,0.29-0.59,0.45-0.89C41.01,25.87,38.44,26.08,36.02,26.88z M50.08,28.55L45.62,30l9.61,3.12   C53.88,31.23,52.12,29.67,50.08,28.55L50.08,28.55z"></path>		<path class="st4" d="M36.02,33.12l5.49-1.78c0.2-0.54,0.43-1.07,0.68-1.57c0.16-0.7,0.37-1.37,0.65-2.03   C40.12,28.9,37.85,30.59,36.02,33.12z M47.96,26.27L45.62,30l9.61-3.12C52.88,26.1,50.4,25.88,47.96,26.27z"></path>	</g></g></svg>