<svg xmlns="http://www.w3.org/2000/svg" xmlns:xlink="http://www.w3.org/1999/xlink" x="0px" y="0px" viewBox="0 0 60 60" style="enable-background:new 0 0 60 60;" xml:space="preserve"><style type="text/css">	.st0{fill:#FFFFFF;}	.st1{fill-rule:evenodd;clip-rule:evenodd;fill:#009540;}	.st2{fill-rule:evenodd;clip-rule:evenodd;fill:#9C760F;}	.st3{fill:#9C760F;}</style><g id="Layer_4">	<circle class="st0" cx="30" cy="30" r="27.42"></circle></g><g id="Layer_18">	<g>		<g>			<path class="st1" d="M30.04,13.91L30.04,13.91L30.04,13.91c-0.09,0.27-0.18,0.56-0.25,0.85c-0.34-0.12-0.7-0.19-1.07-0.19    c-1.43,0-2.66,0.96-3.25,2.35c0.62-0.7,1.46-1.13,2.39-1.17c-1.1,0.63-1.85,1.82-1.85,3.2c0,0.23,0.02,0.45,0.06,0.67    c0.27-1.26,1.19-2.28,2.38-2.69c-0.69,0.64-1.12,1.55-1.12,2.56c0,0.85,0.31,1.63,0.81,2.24c-0.09-0.31-0.14-0.64-0.14-0.99    c0-1.14,0.55-2.16,1.41-2.8c0,1.47,0.22,2.85,0.61,4.03l0-0.01l0,0.01c0.39-1.18,0.61-2.56,0.61-4.03    c0.86,0.65,1.41,1.66,1.41,2.8c0,0.34-0.05,0.67-0.14,0.99c0.51-0.61,0.81-1.39,0.81-2.24c0-1.01-0.43-1.92-1.12-2.56    c1.19,0.4,2.11,1.42,2.38,2.69c0.04-0.22,0.06-0.44,0.06-0.67c0-1.37-0.74-2.57-1.85-3.2c0.93,0.03,1.77,0.47,2.39,1.17    c-0.58-1.39-1.82-2.35-3.25-2.35c-0.37,0-0.73,0.07-1.07,0.19C30.21,14.47,30.13,14.19,30.04,13.91L30.04,13.91z"></path>			<path class="st2" d="M34.3,30.41c-0.35-0.29-1.5-1.21-2.9-2.3c0.95-0.85,1.9-1.69,2.89-2.49c0.34-0.27,0.68-0.53,1.02-0.77    c0.65-0.46,1.34-0.89,2.08-1.19c0.61-0.24,1.13-0.35,1.53-0.39c0.68-0.07,1.36,0.04,1.98,0.34c1.8,0.87,1.94,3,1.94,3l0.19,0.02    c0.03-0.59-0.08-1.11-0.24-1.55c-0.36-0.98-1.02-1.78-1.94-2.26c-1.51-0.8-3.2-0.43-4.3-0.01c-0.81,0.31-1.64,0.77-2.37,1.24    c-1.16,0.73-2.71,1.87-4.18,2.99c-1.47-1.12-3.03-2.26-4.18-2.99c-0.73-0.46-1.56-0.93-2.37-1.24c-1.1-0.42-2.78-0.79-4.3,0.01    c-0.92,0.48-1.58,1.29-1.94,2.26c-0.16,0.44-0.27,0.97-0.24,1.55l0.19-0.02c0,0,0.13-2.13,1.94-3c0.61-0.3,1.3-0.4,1.98-0.34    c0.4,0.04,0.92,0.14,1.53,0.39c0.74,0.3,1.43,0.73,2.08,1.19c0.35,0.24,0.69,0.5,1.02,0.77c0.99,0.79,1.94,1.63,2.89,2.49    c-1.4,1.09-2.55,2.02-2.9,2.3h3.15c0.38-0.34,0.77-0.69,1.15-1.04c0.38,0.35,0.77,0.69,1.15,1.04H34.3L34.3,30.41z"></path>			<path class="st1" d="M30.52,24.34c-1.16-0.85-3.02-1.72-4.7-0.3l-0.19-0.12c0,0,1.52-1.82,3.81-1.57    c0.97,0.11,1.73,0.56,2.5,1.13c0.25,0.18,0.53,0.41,0.84,0.68c1.43,1.23,2.61,2.64,4.08,3.83c0.53,0.43,1.07,0.83,1.43,1.01    c0,0,2.05,1.17,3.44,0.09c0,0,0.55-0.42,0.67-0.64l0.12,0.06c-0.14,0.22-0.9,1.36-2.19,1.81c-1.06,0.37-2.27,0.17-3.26-0.3    c-0.53-0.25-1.14-0.63-1.79-1.2l-1.4-1.35C32.79,26.45,31.72,25.23,30.52,24.34L30.52,24.34z"></path>			<polygon class="st1" points="18.38,26.09 19.63,24.85 20.72,25.93 21.81,24.85 23.05,26.09 21.81,27.34 20.72,26.25 19.63,27.34     18.38,26.09    "></polygon>		</g>		<g>			<polygon class="st3" points="15.4,43.88 14.91,43.88 14.91,41.34 13.97,43.88 13.62,43.88 12.71,41.38 12.71,43.88 12.51,43.88     12.51,40.9 13.02,40.9 13.96,43.43 14.9,40.9 15.4,40.9 15.4,43.88    "></polygon>			<path class="st3" d="M16.6,41.16c0,0.06-0.03,0.11-0.08,0.15c-0.05,0.04-0.11,0.06-0.18,0.06c-0.07,0-0.13-0.02-0.18-0.06    c-0.05-0.04-0.08-0.09-0.08-0.15c0-0.06,0.03-0.11,0.08-0.15c0.05-0.04,0.11-0.06,0.18-0.06c0.07,0,0.13,0.02,0.18,0.06    C16.57,41.05,16.6,41.1,16.6,41.16L16.6,41.16z M16.54,43.88h-0.41v-2.2c0.15,0,0.28-0.02,0.41-0.06V43.88L16.54,43.88z"></path>			<path class="st3" d="M19.23,43.88h-0.41v-1.75c0-0.25-0.12-0.38-0.37-0.38c-0.24,0-0.45,0.11-0.62,0.33    c-0.11,0.14-0.17,0.26-0.17,0.35v1.44h-0.41v-2.21c0.14,0,0.28-0.02,0.41-0.05v0.53c0.14-0.18,0.28-0.32,0.42-0.39    c0.16-0.09,0.33-0.13,0.51-0.13c0.18,0,0.34,0.05,0.45,0.14c0.12,0.09,0.18,0.21,0.18,0.36V43.88L19.23,43.88z"></path>			<path class="st3" d="M20.41,41.16c0,0.06-0.03,0.11-0.08,0.15c-0.05,0.04-0.11,0.06-0.18,0.06c-0.07,0-0.13-0.02-0.18-0.06    c-0.05-0.04-0.08-0.09-0.08-0.15c0-0.06,0.03-0.11,0.08-0.15c0.05-0.04,0.11-0.06,0.18-0.06c0.07,0,0.13,0.02,0.18,0.06    C20.39,41.05,20.41,41.1,20.41,41.16L20.41,41.16z M20.36,43.88h-0.41v-2.2c0.15,0,0.28-0.02,0.41-0.06V43.88L20.36,43.88z"></path>			<path class="st3" d="M22.7,43.3c0,0.19-0.09,0.34-0.26,0.46c-0.17,0.11-0.38,0.17-0.62,0.17c-0.34,0-0.59-0.09-0.75-0.26    c-0.11-0.11-0.16-0.28-0.16-0.5l0.25-0.05c-0.03,0.09-0.04,0.16-0.04,0.21c0,0.15,0.07,0.27,0.2,0.36    c0.13,0.1,0.29,0.15,0.48,0.15c0.16,0,0.29-0.04,0.4-0.11c0.11-0.07,0.16-0.17,0.16-0.3c0-0.13-0.07-0.23-0.2-0.31    c-0.06-0.04-0.2-0.09-0.41-0.16c-0.25-0.08-0.44-0.17-0.55-0.25c-0.17-0.12-0.26-0.27-0.26-0.45c0-0.19,0.09-0.35,0.28-0.47    c0.17-0.11,0.38-0.17,0.62-0.17c0.52,0,0.78,0.22,0.78,0.65l-0.24,0.05c0.01-0.07,0.02-0.13,0.02-0.17    c0-0.13-0.05-0.23-0.16-0.32c-0.11-0.09-0.24-0.13-0.4-0.13c-0.15,0-0.28,0.04-0.39,0.12c-0.11,0.08-0.17,0.17-0.17,0.29    c0,0.14,0.09,0.26,0.26,0.36c0.09,0.05,0.26,0.12,0.49,0.2c0.23,0.08,0.4,0.16,0.49,0.22C22.63,43,22.7,43.14,22.7,43.3    L22.7,43.3z"></path>			<path class="st3" d="M24,43.65c-0.04,0.17-0.17,0.26-0.4,0.26c-0.27,0-0.41-0.12-0.41-0.35v-1.75h-0.24v-0.13h0.24v-0.37    c0.14-0.05,0.28-0.11,0.41-0.18v0.55h0.31v0.13H23.6v1.76c0,0.14,0.05,0.21,0.14,0.21c0.09,0,0.13-0.04,0.13-0.13H24L24,43.65z"></path>			<path class="st3" d="M25.9,41.96c0,0.1-0.03,0.23-0.09,0.4h-0.35c0.07-0.21,0.1-0.35,0.1-0.39c0-0.11-0.06-0.17-0.18-0.17    c-0.17,0-0.3,0.11-0.39,0.33c-0.08,0.19-0.12,0.33-0.12,0.43v1.33h-0.42v-2.2c0.13,0,0.27-0.02,0.42-0.06v0.55    c0.16-0.37,0.38-0.55,0.67-0.55C25.78,41.63,25.9,41.74,25.9,41.96L25.9,41.96z"></path>			<path class="st3" d="M28.24,41.68l-1.19,2.58c-0.06,0.14-0.12,0.23-0.18,0.29c-0.09,0.09-0.21,0.13-0.35,0.13    c-0.12,0-0.2-0.02-0.26-0.05c-0.05-0.03-0.1-0.1-0.14-0.19l0.18-0.11c0.04,0.16,0.11,0.24,0.23,0.24c0.14,0,0.26-0.1,0.34-0.29    l0.15-0.34l-0.95-2.26h0.44l0.74,1.8l0.83-1.8H28.24L28.24,41.68z"></path>			<path class="st3" d="M31.87,42.78c0,0.32-0.07,0.59-0.2,0.78c-0.17,0.25-0.45,0.37-0.82,0.37s-0.64-0.12-0.82-0.37    c-0.14-0.2-0.21-0.46-0.21-0.78c0-0.33,0.07-0.59,0.21-0.78c0.17-0.25,0.45-0.37,0.82-0.37s0.64,0.12,0.82,0.37    C31.81,42.19,31.87,42.45,31.87,42.78L31.87,42.78z M31.42,42.78c0-0.72-0.19-1.08-0.57-1.08c-0.38,0-0.57,0.36-0.57,1.08    c0,0.72,0.19,1.07,0.57,1.07C31.24,43.85,31.42,43.49,31.42,42.78L31.42,42.78z"></path>			<path class="st3" d="M33.44,41.22c0,0.04,0,0.07-0.01,0.1l-0.26,0.08c0.02-0.12,0.03-0.18,0.03-0.2c0-0.06-0.02-0.12-0.05-0.17    c-0.04-0.06-0.09-0.08-0.16-0.08c-0.09,0-0.15,0.03-0.19,0.09c-0.04,0.06-0.06,0.12-0.06,0.19c0,0.07,0.05,0.23,0.16,0.46h0.43    v0.13h-0.43v2.08h-0.41v-2.08h-0.4v-0.13h0.4v-0.34c0-0.14,0.04-0.25,0.12-0.34c0.09-0.1,0.22-0.15,0.38-0.15    C33.3,40.86,33.44,40.98,33.44,41.22L33.44,41.22z"></path>			<polygon class="st3" points="37.54,43.88 37.07,43.88 37.07,42.34 35.64,42.34 35.64,43.88 35.16,43.88 35.16,40.9 35.64,40.9     35.64,42.18 37.07,42.18 37.07,40.9 37.54,40.9 37.54,43.88    "></polygon>			<path class="st3" d="M40.13,43.2c0,0.49-0.29,0.74-0.88,0.74c-0.38,0-0.67-0.11-0.87-0.32c-0.18-0.19-0.27-0.44-0.27-0.76    c0-0.21,0.03-0.4,0.09-0.57c0.06-0.18,0.19-0.34,0.37-0.47c0.18-0.13,0.39-0.19,0.62-0.19c0.25,0,0.45,0.07,0.61,0.21    c0.14,0.13,0.23,0.3,0.26,0.51c0.02,0.12,0.03,0.26,0.03,0.44h-1.53c0.01,0.33,0.05,0.56,0.1,0.69c0.11,0.24,0.32,0.37,0.64,0.37    c0.18,0,0.33-0.05,0.44-0.15c0.12-0.1,0.18-0.22,0.18-0.36c0-0.07-0.01-0.13-0.02-0.2l0.22,0.04V43.2L40.13,43.2z M39.7,42.68    c-0.01-0.64-0.18-0.97-0.52-0.97c-0.27,0-0.44,0.15-0.53,0.44c-0.03,0.1-0.05,0.27-0.07,0.53H39.7L39.7,42.68z"></path>			<path class="st3" d="M42.84,43.87c-0.17,0.03-0.29,0.04-0.38,0.04c-0.17,0-0.28-0.03-0.36-0.09c-0.07-0.06-0.11-0.16-0.11-0.29    c-0.15,0.26-0.39,0.39-0.72,0.39c-0.24,0-0.42-0.06-0.55-0.18c-0.13-0.12-0.2-0.28-0.2-0.47c0-0.19,0.07-0.34,0.2-0.45    c0.1-0.08,0.28-0.15,0.54-0.22c0.19-0.05,0.31-0.08,0.37-0.1c0.16-0.06,0.27-0.12,0.31-0.18c0.03-0.04,0.05-0.11,0.05-0.19    c0-0.14-0.05-0.24-0.15-0.32c-0.1-0.08-0.23-0.12-0.41-0.12c-0.15,0-0.28,0.04-0.39,0.11c-0.11,0.08-0.17,0.17-0.17,0.29    c0,0.06,0.03,0.15,0.08,0.27l-0.26-0.05c-0.02-0.06-0.03-0.12-0.03-0.18c0-0.17,0.1-0.3,0.29-0.4c0.16-0.08,0.36-0.13,0.58-0.13    c0.23,0,0.42,0.03,0.57,0.1c0.19,0.08,0.28,0.21,0.28,0.38v1.38c0,0.21,0.08,0.32,0.25,0.32c0.05,0,0.11-0.01,0.18-0.04    L42.84,43.87L42.84,43.87z M41.98,43.18v-0.76c-0.08,0.08-0.18,0.14-0.32,0.19c-0.1,0.04-0.21,0.08-0.31,0.11    c-0.11,0.05-0.2,0.11-0.26,0.18c-0.09,0.11-0.13,0.24-0.13,0.4c0,0.13,0.03,0.25,0.08,0.34c0.07,0.12,0.18,0.18,0.33,0.18    c0.18,0,0.33-0.07,0.45-0.22C41.93,43.48,41.98,43.34,41.98,43.18L41.98,43.18z"></path>			<path class="st3" d="M43.52,43.88h-0.4V40.9c0.13-0.01,0.27-0.02,0.4-0.04V43.88L43.52,43.88z"></path>			<path class="st3" d="M45.06,43.65c-0.04,0.17-0.17,0.26-0.4,0.26c-0.27,0-0.41-0.12-0.41-0.35v-1.75h-0.24v-0.13h0.24v-0.37    c0.14-0.05,0.28-0.11,0.41-0.18v0.55h0.31v0.13h-0.31v1.76c0,0.14,0.05,0.21,0.14,0.21c0.09,0,0.13-0.04,0.13-0.13H45.06    L45.06,43.65z"></path>			<path class="st3" d="M47.49,43.88h-0.41v-1.76c0-0.24-0.12-0.36-0.36-0.36c-0.26,0-0.46,0.12-0.63,0.37    c-0.11,0.16-0.16,0.3-0.16,0.4v1.35h-0.41V40.9c0.12,0,0.26-0.01,0.41-0.04v1.38c0.11-0.22,0.25-0.38,0.4-0.47    c0.16-0.09,0.33-0.14,0.51-0.14c0.19,0,0.34,0.04,0.46,0.13c0.12,0.09,0.18,0.2,0.18,0.35V43.88L47.49,43.88z"></path>			<path class="st1" d="M27.28,37.58c0.26,0,0.33-0.08,0.33-0.33v-0.62v-0.1c0-0.36-0.02-0.66-0.26-0.95    c-0.21-0.26-0.53-0.44-0.85-0.44c-1.11,0-2.25,1.4-2.33,2.44H27.28L27.28,37.58z M45.42,37.19c0.17,0.27,0.53,0.41,0.91,0.48    c0.05,0.01,0.28,0.02,0.34,0.02c-0.01,0.22-0.21,0.35-0.33,0.38c-0.05-0.01-0.1-0.01-0.16-0.02c-0.32-0.05-0.47-0.09-0.67-0.2    c-0.54-0.32-0.73-0.72-0.73-1.4c0-1.01,0.93-1.83,2-1.83h0.53c0,0.94,0,2.07,0,3.09h0v0.92c0,0.27,0.02,0.47-0.16,0.69    c-0.13,0.15-0.32,0.29-0.51,0.36c-0.27,0.1-0.6,0.05-0.88,0.05v-0.44h0.62c0.24,0,0.42-0.18,0.42-0.44v-0.37l-0.01,0    c0-1.02,0-2.37,0-3.39h-0.23c-0.28,0-0.5,0.11-0.72,0.3c-0.19,0.16-0.35,0.37-0.44,0.56C45.24,36.22,45.23,36.9,45.42,37.19    L45.42,37.19z M43.05,38.84c0,0.26-0.18,0.44-0.44,0.44h-0.67v0.44c0.3,0,0.65,0.05,0.94-0.05c0.21-0.07,0.41-0.2,0.55-0.36    c0.2-0.22,0.17-0.42,0.17-0.69v-4.01h-0.56V38.84L43.05,38.84z M40.9,38.02h0.52v-5.55h-0.53C40.89,34.33,40.9,36.18,40.9,38.02    L40.9,38.02z M35.28,37.19c0.26,0.37,0.9,0.51,1.47,0.51v-2.63H36.5c-0.31,0-0.55,0.11-0.79,0.3c-0.2,0.16-0.38,0.37-0.48,0.56    C35.08,36.22,35.07,36.9,35.28,37.19L35.28,37.19z M37.32,34.62h-0.57c-1.16,0-2.17,0.82-2.17,1.83c0,0.68,0.21,1.08,0.8,1.4    c0.45,0.25,1.41,0.31,1.94,0.31C37.32,36.98,37.32,35.8,37.32,34.62L37.32,34.62z M31.61,38.02h0.52v-5.55h-0.53    C31.61,34.33,31.61,36.18,31.61,38.02L31.61,38.02z M43.36,33c0.23,0,0.41,0.19,0.41,0.41c0,0.23-0.19,0.41-0.41,0.41    c-0.23,0-0.41-0.19-0.41-0.41C42.95,33.18,43.13,33,43.36,33L43.36,33z M35.76,33c0.23,0,0.41,0.19,0.41,0.41    c0,0.23-0.19,0.41-0.41,0.41c-0.23,0-0.41-0.19-0.41-0.41C35.34,33.18,35.53,33,35.76,33L35.76,33z M36.92,33    c0.23,0,0.41,0.19,0.41,0.41c0,0.23-0.19,0.41-0.41,0.41c-0.23,0-0.41-0.19-0.41-0.41C36.5,33.18,36.69,33,36.92,33L36.92,33z     M13.59,33c0.23,0,0.41,0.19,0.41,0.41c0,0.23-0.19,0.41-0.41,0.41c-0.23,0-0.41-0.19-0.41-0.41C13.18,33.18,13.36,33,13.59,33    L13.59,33z M14.75,33c0.23,0,0.41,0.19,0.41,0.41c0,0.23-0.19,0.41-0.41,0.41c-0.23,0-0.41-0.19-0.41-0.41    C14.34,33.18,14.53,33,14.75,33L14.75,33z M38.94,38.84c0,0.26-0.18,0.44-0.44,0.44h-0.67v0.44c0.3,0,0.65,0.05,0.94-0.05    c0.21-0.07,0.41-0.2,0.55-0.36c0.2-0.22,0.17-0.42,0.17-0.69v-4.01h-0.56V38.84L38.94,38.84z M13.19,37.08    c0.26,0.36,0.87,0.5,1.43,0.5v-2.55h-0.24c-0.3,0-0.53,0.1-0.77,0.29c-0.2,0.16-0.37,0.36-0.46,0.54    C13,36.14,12.99,36.8,13.19,37.08L13.19,37.08z M29.64,37.69h-1.46V36.8v-0.22c0-0.23-0.03-0.45-0.09-0.65    c-0.08-0.29-0.23-0.56-0.45-0.77c-0.45-0.44-1.15-0.56-1.9-0.23c-1.23,0.53-1.5,1.76-1.93,2.34c-0.06,0.07-0.12,0.14-0.19,0.2    V35.8h-0.53v1.78h-1.36c0-0.47-0.03-1.03-0.19-1.45c-0.16-0.42-0.52-0.75-0.93-0.95c-0.55-0.27-1.29-0.38-1.89-0.39    c-0.51-0.01-1.03,0.02-1.53,0.02v0.42h0.77c0.89,0,1.89-0.1,2.61,0.56c0.35,0.32,0.47,0.65,0.5,1.05    c0.01,0.09,0.01,0.19,0.01,0.29v0.07v0.38h-5.89v-3h-0.56c-1.13,0-2.11,0.79-2.11,1.78c0,0.53,0.03,0.83,0.51,1.19    c0.21,0.16,0.45,0.28,0.68,0.34c0.22,0.06,0.42,0.01,0.64-0.02l0.25-0.04l0.03,0.21h15.55v-5.55h-0.53V37.69L29.64,37.69z"></path>		</g>	</g></g></svg>