<svg xmlns="http://www.w3.org/2000/svg" xmlns:xlink="http://www.w3.org/1999/xlink" x="0px" y="0px" viewBox="0 0 60 60" style="enable-background:new 0 0 60 60;" xml:space="preserve"><style type="text/css">	.st0{fill:#FFFFFF;}	.st1{fill:#595858;}	.st2{fill:#006E43;}	.st3{clip-path:url(#SVGID_2_);fill:url(#SVGID_3_);}	.st4{clip-path:url(#SVGID_5_);fill:url(#SVGID_6_);}	.st5{clip-path:url(#SVGID_8_);fill:url(#SVGID_9_);}	.st6{clip-path:url(#SVGID_11_);fill:url(#SVGID_12_);}	.st7{clip-path:url(#SVGID_14_);fill:url(#SVGID_15_);}	.st8{clip-path:url(#SVGID_17_);fill:url(#SVGID_18_);}	.st9{clip-path:url(#SVGID_20_);fill:url(#SVGID_21_);}	.st10{clip-path:url(#SVGID_23_);fill:url(#SVGID_24_);}	.st11{clip-path:url(#SVGID_26_);fill:url(#SVGID_27_);}	.st12{clip-path:url(#SVGID_29_);fill:url(#SVGID_30_);}</style><g id="Layer_4">	<circle class="st0" cx="30" cy="30" r="27.42"></circle></g><g id="Layer_7">	<g>		<path class="st1" d="M18.33,39.43c-0.1,0.02-0.22,0.05-0.36,0.07c-0.14,0.02-0.28,0.04-0.43,0.06c-0.15,0.02-0.29,0.03-0.42,0.04   c-0.14,0.01-0.25,0.02-0.34,0.02c-0.21,0-0.41-0.02-0.62-0.06c-0.2-0.04-0.39-0.11-0.55-0.2c-0.16-0.1-0.3-0.23-0.4-0.39   c-0.1-0.17-0.15-0.38-0.15-0.64v-1.46h0.72v1.43c0,0.13,0.03,0.24,0.09,0.32c0.06,0.08,0.14,0.15,0.24,0.19   c0.1,0.04,0.2,0.08,0.32,0.09c0.12,0.02,0.24,0.03,0.35,0.03h0.19c0.08,0,0.15,0,0.23-0.01c0.08,0,0.16-0.01,0.23-0.01   c0.08,0,0.14-0.01,0.19-0.01v-2.43h0.71V39.43z M16.67,36.03c-0.12,0-0.22-0.04-0.3-0.12c-0.08-0.08-0.12-0.18-0.12-0.29   c0-0.12,0.04-0.22,0.12-0.31c0.08-0.08,0.18-0.12,0.3-0.12c0.11,0,0.21,0.04,0.3,0.12c0.08,0.08,0.13,0.18,0.13,0.31   c0,0.11-0.04,0.21-0.13,0.29C16.89,35.99,16.79,36.03,16.67,36.03"></path>		<path class="st1" d="M20.17,38.9c-0.36,0-0.63-0.07-0.83-0.22c-0.2-0.15-0.29-0.39-0.29-0.72V34.9h0.71v3.05   c0,0.12,0.04,0.2,0.12,0.24c0.08,0.04,0.18,0.06,0.3,0.06h0.23v0.65H20.17z"></path>		<path class="st1" d="M20.3,38.9v-0.65h1.51c0.06,0,0.12-0.01,0.18-0.02c0.06-0.01,0.11-0.03,0.15-0.06   c0.04-0.03,0.08-0.06,0.1-0.11c0.03-0.04,0.04-0.1,0.04-0.16V37.6c0-0.08-0.01-0.14-0.04-0.19c-0.03-0.05-0.07-0.09-0.11-0.12   c-0.04-0.03-0.09-0.05-0.15-0.06c-0.05-0.01-0.11-0.01-0.16-0.01h-1.29v-0.55l2.34-1.91v0.84l-1.21,0.98h0.12   c0.18,0,0.34,0.02,0.49,0.05c0.15,0.03,0.27,0.09,0.38,0.16c0.1,0.07,0.19,0.17,0.24,0.3c0.06,0.13,0.09,0.28,0.09,0.46v0.37   c0,0.11-0.01,0.2-0.02,0.28c0.06,0.02,0.12,0.03,0.19,0.04c0.07,0.01,0.14,0.01,0.22,0.01h0.31v0.65h-0.22   c-0.18,0-0.34-0.02-0.47-0.06c-0.13-0.04-0.26-0.08-0.37-0.13c-0.2,0.12-0.46,0.18-0.81,0.18H20.3z"></path>		<path class="st1" d="M23.57,38.9v-0.65h0.23c0.12,0,0.22-0.02,0.3-0.06c0.08-0.04,0.12-0.12,0.12-0.24v-1.48h0.71v1.48   c0,0.09-0.01,0.16-0.02,0.24c0.06,0.03,0.13,0.05,0.21,0.06c0.08,0.02,0.16,0.02,0.24,0.02c0.27,0,0.4-0.14,0.4-0.42v-1.39h0.71   v1.44c0,0.06-0.01,0.12-0.02,0.16c-0.01,0.04-0.02,0.08-0.04,0.11c0.06,0.03,0.13,0.06,0.22,0.07c0.09,0.02,0.18,0.03,0.27,0.03   c0.27,0,0.4-0.14,0.4-0.42v-1.39h0.71v1.42c0,0.19-0.02,0.35-0.07,0.48c-0.05,0.13-0.11,0.23-0.2,0.31   c-0.09,0.08-0.2,0.13-0.32,0.17s-0.27,0.05-0.42,0.05c-0.19,0-0.36-0.02-0.5-0.06c-0.14-0.04-0.27-0.09-0.39-0.14   c-0.08,0.07-0.18,0.12-0.31,0.15c-0.13,0.04-0.26,0.05-0.42,0.05c-0.3,0-0.61-0.05-0.91-0.14c-0.09,0.05-0.19,0.08-0.31,0.1   c-0.12,0.02-0.24,0.03-0.38,0.03H23.57z"></path>		<path class="st1" d="M30.5,38.9h-1.86v-0.65h0.77v-2.58h0.71v2.58h0.38c0.12,0,0.22-0.02,0.3-0.06c0.08-0.04,0.12-0.12,0.12-0.24   V34.9h0.71v3.05c0,0.33-0.1,0.57-0.29,0.72C31.14,38.83,30.86,38.9,30.5,38.9 M29.16,39.86h0.2c-0.01-0.02-0.02-0.05-0.03-0.09   c-0.01-0.04-0.01-0.06-0.01-0.08c0-0.09,0.01-0.16,0.04-0.22c0.03-0.06,0.06-0.11,0.11-0.15c0.05-0.04,0.1-0.07,0.16-0.08   c0.06-0.02,0.12-0.03,0.19-0.03c0.05,0,0.11,0.01,0.16,0.03c0.05,0.02,0.11,0.04,0.17,0.08v0.34c-0.03-0.02-0.07-0.04-0.12-0.06   c-0.05-0.02-0.1-0.03-0.16-0.04c-0.05,0-0.09,0-0.13,0.02c-0.04,0.02-0.05,0.06-0.05,0.12c0,0.02,0,0.04,0.01,0.08   c0.01,0.03,0.02,0.06,0.04,0.09h0.41v0.32h-0.99V39.86z"></path>		<rect x="32.25" y="34.9" class="st1" width="0.71" height="4"></rect>		<path class="st1" d="M37.36,38.9h-1.15c-0.18,0-0.35-0.02-0.51-0.07c-0.16-0.05-0.31-0.12-0.44-0.22c-0.13-0.1-0.23-0.23-0.3-0.38   c-0.07-0.15-0.11-0.34-0.11-0.56c0-0.17,0.03-0.33,0.09-0.47c0.06-0.15,0.15-0.27,0.27-0.38c0.12-0.11,0.27-0.19,0.44-0.26   c0.18-0.06,0.38-0.09,0.6-0.09c0.06,0,0.14,0.01,0.24,0.02c0.1,0.01,0.2,0.03,0.3,0.04c0.11,0.02,0.21,0.04,0.31,0.07   c0.1,0.03,0.18,0.05,0.26,0.08V38.9z M35.61,36.04c-0.12,0-0.22-0.04-0.3-0.12c-0.08-0.08-0.12-0.18-0.12-0.29   c0-0.12,0.04-0.22,0.12-0.31c0.08-0.08,0.18-0.12,0.3-0.12c0.11,0,0.21,0.04,0.3,0.12c0.08,0.08,0.13,0.18,0.13,0.31   c0,0.11-0.04,0.21-0.13,0.29C35.82,36,35.73,36.04,35.61,36.04 M36.65,37.15c-0.04-0.01-0.09-0.02-0.16-0.03   c-0.07-0.01-0.15-0.02-0.25-0.02c-0.25,0-0.43,0.05-0.55,0.16c-0.12,0.11-0.18,0.24-0.18,0.41c0,0.18,0.06,0.33,0.18,0.43   c0.12,0.1,0.29,0.15,0.5,0.15h0.45V37.15z M36.67,36.04c-0.12,0-0.22-0.04-0.3-0.12c-0.08-0.08-0.12-0.18-0.12-0.29   c0-0.12,0.04-0.22,0.12-0.31c0.08-0.08,0.18-0.12,0.3-0.12c0.11,0,0.21,0.04,0.3,0.12c0.09,0.08,0.13,0.18,0.13,0.31   c0,0.11-0.04,0.21-0.13,0.29C36.88,36,36.78,36.04,36.67,36.04"></path>		<path class="st1" d="M38.31,36.47h0.71v2.83c0,0.3-0.09,0.52-0.26,0.66c-0.18,0.14-0.4,0.21-0.68,0.21   c-0.09,0-0.18-0.01-0.26-0.03c-0.08-0.02-0.16-0.04-0.22-0.06V39.5c0.07,0.02,0.13,0.04,0.2,0.06c0.07,0.02,0.13,0.02,0.18,0.02   c0.11,0,0.19-0.03,0.25-0.08c0.06-0.05,0.09-0.15,0.09-0.3V36.47z"></path>		<rect x="39.71" y="34.9" class="st1" width="0.71" height="4"></rect>		<path class="st1" d="M41.35,36.47h0.71v2.83c0,0.3-0.09,0.52-0.26,0.67c-0.18,0.14-0.4,0.21-0.68,0.21   c-0.09,0-0.18-0.01-0.26-0.03c-0.08-0.02-0.16-0.04-0.22-0.06V39.5c0.07,0.02,0.13,0.04,0.2,0.06c0.07,0.02,0.13,0.02,0.18,0.02   c0.11,0,0.19-0.03,0.25-0.08c0.06-0.05,0.09-0.15,0.09-0.3V36.47z M41.66,36.03c-0.12,0-0.22-0.04-0.3-0.12   c-0.08-0.08-0.12-0.18-0.12-0.29c0-0.12,0.04-0.22,0.12-0.31c0.08-0.08,0.18-0.12,0.3-0.12c0.11,0,0.21,0.04,0.3,0.12   c0.08,0.08,0.13,0.18,0.13,0.31c0,0.11-0.04,0.21-0.13,0.29C41.88,35.99,41.78,36.03,41.66,36.03"></path>		<path class="st1" d="M44.24,38.9H43.8c-0.18,0-0.35-0.02-0.51-0.07c-0.16-0.05-0.31-0.12-0.44-0.22c-0.13-0.1-0.23-0.23-0.3-0.38   c-0.08-0.15-0.11-0.34-0.11-0.56c0-0.17,0.03-0.33,0.09-0.47c0.06-0.14,0.15-0.27,0.27-0.38c0.12-0.11,0.27-0.19,0.44-0.26   c0.17-0.06,0.37-0.09,0.6-0.09c0.06,0,0.14,0.01,0.24,0.02c0.1,0.01,0.2,0.03,0.31,0.04c0.11,0.02,0.21,0.04,0.31,0.07   c0.1,0.03,0.19,0.05,0.26,0.08v2.36c0,0.22-0.04,0.41-0.13,0.56c-0.08,0.15-0.19,0.27-0.32,0.36c-0.13,0.09-0.27,0.15-0.43,0.19   c-0.16,0.04-0.31,0.06-0.46,0.06c-0.33,0-0.63-0.06-0.9-0.19v-0.66c0.16,0.09,0.31,0.16,0.45,0.2c0.14,0.04,0.29,0.06,0.45,0.06   c0.17,0,0.32-0.05,0.44-0.14c0.12-0.09,0.18-0.24,0.18-0.44V38.9z M44.24,37.15c-0.04-0.01-0.09-0.02-0.16-0.03   c-0.07-0.01-0.15-0.02-0.25-0.02c-0.25,0-0.43,0.05-0.55,0.16c-0.12,0.11-0.18,0.24-0.18,0.41c0,0.18,0.06,0.33,0.18,0.43   c0.12,0.1,0.29,0.15,0.5,0.15h0.45V37.15z"></path>		<polygon class="st1" points="16.61,43.84 16.61,42.26 16.04,43.51 15.85,43.51 15.27,42.26 15.27,43.84 15.05,43.84 15.05,41.76    15.27,41.76 15.95,43.24 16.61,41.76 16.83,41.76 16.83,43.84   "></polygon>		<rect x="17.43" y="41.76" class="st1" width="0.22" height="2.08"></rect>		<polygon class="st1" points="19.58,43.84 18.47,42.17 18.47,43.84 18.25,43.84 18.25,41.76 18.46,41.76 19.57,43.42 19.57,41.76    19.79,41.76 19.79,43.84   "></polygon>		<rect x="20.39" y="41.76" class="st1" width="0.22" height="2.08"></rect>		<path class="st1" d="M21.74,43.86c-0.31,0-0.52-0.08-0.71-0.27l0.15-0.15c0.17,0.17,0.33,0.23,0.57,0.23   c0.3,0,0.49-0.14,0.49-0.39c0-0.11-0.03-0.2-0.1-0.26c-0.07-0.06-0.12-0.08-0.27-0.1l-0.24-0.04c-0.16-0.03-0.29-0.08-0.38-0.16   c-0.11-0.09-0.16-0.22-0.16-0.39c0-0.35,0.25-0.59,0.67-0.59c0.27,0,0.44,0.07,0.62,0.23l-0.14,0.14   c-0.13-0.12-0.27-0.18-0.48-0.18c-0.28,0-0.44,0.15-0.44,0.39c0,0.1,0.03,0.18,0.09,0.24c0.06,0.06,0.17,0.1,0.28,0.11l0.23,0.03   c0.2,0.03,0.29,0.07,0.38,0.15c0.11,0.1,0.17,0.24,0.17,0.41C22.46,43.63,22.18,43.86,21.74,43.86"></path>		<polygon class="st1" points="23.54,41.96 23.54,43.84 23.31,43.84 23.31,41.96 22.71,41.96 22.71,41.76 24.14,41.76 24.14,41.96      "></polygon>		<path class="st1" d="M25.72,43.84l-0.47-0.92h-0.5v0.92h-0.22v-2.08h0.8c0.36,0,0.62,0.22,0.62,0.58c0,0.3-0.18,0.5-0.45,0.56   l0.49,0.94H25.72z M25.3,41.96h-0.55v0.76h0.55c0.24,0,0.41-0.13,0.41-0.38C25.71,42.09,25.54,41.96,25.3,41.96"></path>		<polygon class="st1" points="27,42.98 27,43.84 26.78,43.84 26.78,42.98 26.16,41.76 26.4,41.76 26.89,42.76 27.37,41.76    27.61,41.76   "></polygon>		<path class="st1" d="M29.84,43.64c-0.14,0.14-0.32,0.22-0.53,0.22c-0.21,0-0.39-0.08-0.53-0.22c-0.2-0.2-0.2-0.4-0.2-0.84   c0-0.44,0-0.65,0.2-0.84c0.14-0.14,0.32-0.22,0.53-0.22c0.21,0,0.39,0.08,0.53,0.22c0.2,0.2,0.2,0.4,0.2,0.84   C30.04,43.24,30.04,43.45,29.84,43.64 M29.67,42.09c-0.09-0.09-0.22-0.15-0.36-0.15c-0.14,0-0.27,0.06-0.36,0.15   c-0.13,0.13-0.15,0.27-0.15,0.71c0,0.43,0.01,0.57,0.15,0.71c0.09,0.09,0.22,0.15,0.36,0.15c0.14,0,0.27-0.06,0.36-0.15   c0.13-0.13,0.15-0.27,0.15-0.71C29.82,42.37,29.8,42.23,29.67,42.09"></path>		<polygon class="st1" points="30.78,41.96 30.78,42.73 31.69,42.73 31.69,42.92 30.78,42.92 30.78,43.84 30.56,43.84 30.56,41.76    31.85,41.76 31.85,41.96   "></polygon>		<polygon class="st1" points="34.19,43.84 34.19,42.89 33.2,42.89 33.2,43.84 32.98,43.84 32.98,41.76 33.2,41.76 33.2,42.69    34.19,42.69 34.19,41.76 34.41,41.76 34.41,43.84   "></polygon>		<path class="st1" d="M36.19,43.64c-0.14,0.14-0.32,0.22-0.53,0.22c-0.21,0-0.39-0.08-0.53-0.22c-0.19-0.2-0.19-0.4-0.19-0.84   c0-0.44,0-0.65,0.19-0.84c0.14-0.14,0.32-0.22,0.53-0.22c0.21,0,0.39,0.08,0.53,0.22c0.2,0.2,0.2,0.4,0.2,0.84   C36.38,43.24,36.38,43.45,36.19,43.64 M36.01,42.09c-0.09-0.09-0.22-0.15-0.36-0.15c-0.14,0-0.27,0.06-0.36,0.15   c-0.13,0.13-0.15,0.27-0.15,0.71c0,0.43,0.01,0.57,0.15,0.71c0.09,0.09,0.22,0.15,0.36,0.15c0.14,0,0.27-0.06,0.36-0.15   c0.13-0.13,0.15-0.27,0.15-0.71C36.16,42.37,36.15,42.23,36.01,42.09"></path>		<path class="st1" d="M37.6,43.86c-0.42,0-0.72-0.29-0.72-0.7v-1.39h0.22v1.37c0,0.31,0.2,0.52,0.5,0.52c0.3,0,0.5-0.21,0.5-0.52   v-1.37h0.22v1.39C38.33,43.57,38.02,43.86,37.6,43.86"></path>		<path class="st1" d="M39.43,43.86c-0.31,0-0.52-0.08-0.71-0.27l0.15-0.15c0.17,0.17,0.33,0.23,0.57,0.23   c0.3,0,0.49-0.14,0.49-0.39c0-0.11-0.03-0.2-0.1-0.26c-0.07-0.06-0.12-0.08-0.27-0.1l-0.24-0.04c-0.16-0.03-0.29-0.08-0.38-0.16   c-0.11-0.09-0.16-0.22-0.16-0.39c0-0.35,0.25-0.59,0.66-0.59c0.27,0,0.44,0.07,0.62,0.23l-0.14,0.14   c-0.13-0.12-0.27-0.18-0.48-0.18c-0.28,0-0.44,0.15-0.44,0.39c0,0.1,0.03,0.18,0.09,0.24c0.07,0.06,0.17,0.1,0.28,0.11l0.23,0.03   c0.2,0.03,0.29,0.07,0.38,0.15c0.11,0.1,0.18,0.24,0.18,0.41C40.15,43.63,39.86,43.86,39.43,43.86"></path>		<rect x="40.61" y="41.76" class="st1" width="0.22" height="2.08"></rect>		<polygon class="st1" points="42.76,43.84 41.66,42.17 41.66,43.84 41.43,43.84 41.43,41.76 41.65,41.76 42.75,43.42 42.75,41.76    42.97,41.76 42.97,43.84   "></polygon>		<path class="st1" d="M44.77,43.62c-0.15,0.16-0.34,0.24-0.55,0.24c-0.2,0-0.39-0.08-0.53-0.22c-0.2-0.2-0.2-0.4-0.2-0.84   c0-0.44,0-0.64,0.2-0.84c0.14-0.14,0.32-0.22,0.53-0.22c0.4,0,0.67,0.26,0.73,0.62h-0.22c-0.06-0.26-0.24-0.42-0.5-0.42   c-0.14,0-0.27,0.06-0.36,0.15c-0.13,0.13-0.14,0.27-0.14,0.71c0,0.43,0.01,0.58,0.14,0.71c0.09,0.09,0.22,0.15,0.36,0.15   c0.15,0,0.3-0.06,0.39-0.18c0.09-0.1,0.12-0.22,0.12-0.38v-0.16h-0.51v-0.2h0.73v0.33C44.95,43.32,44.9,43.48,44.77,43.62"></path>		<rect x="20.85" y="32.03" class="st2" width="2.35" height="0.87"></rect>		<rect x="25.12" y="32.03" class="st2" width="8.28" height="0.87"></rect>		<rect x="26.6" y="30.29" class="st2" width="2" height="0.87"></rect>		<rect x="26.6" y="28.54" class="st2" width="5.58" height="0.87"></rect>		<rect x="31.3" y="30.29" class="st2" width="0.87" height="2.61"></rect>		<rect x="29.56" y="30.29" class="st2" width="0.87" height="2.61"></rect>		<rect x="26.07" y="28.54" class="st2" width="0.87" height="2.62"></rect>		<rect x="27.81" y="30.29" class="st2" width="0.87" height="2.61"></rect>		<rect x="22.59" y="30.29" class="st2" width="0.87" height="2.62"></rect>		<rect x="20.85" y="30.29" class="st2" width="0.87" height="2.62"></rect>		<rect x="22.59" y="28.54" class="st2" width="0.87" height="0.87"></rect>		<g>			<defs>				<rect id="SVGID_1_" x="29.56" y="13.72" width="0.87" height="13.95"></rect>			</defs>			<clipPath id="SVGID_2_">				<use xlink:href="#SVGID_1_" style="overflow:visible;"></use>			</clipPath>							<linearGradient id="SVGID_3_" gradientUnits="userSpaceOnUse" x1="-256.6806" y1="457.5229" x2="-256.1548" y2="457.5229" gradientTransform="matrix(0 24.9189 -24.9189 0 11430.9619 6413.4102)">				<stop offset="0" style="stop-color:#00AAA2"></stop>				<stop offset="0.0192" style="stop-color:#00A9A0"></stop>				<stop offset="0.4746" style="stop-color:#048869"></stop>				<stop offset="0.815" style="stop-color:#067548"></stop>				<stop offset="1" style="stop-color:#076D3B"></stop>			</linearGradient>			<rect x="29.56" y="13.72" class="st3" width="0.87" height="13.95"></rect>		</g>		<g>			<defs>				<rect id="SVGID_4_" x="31.31" y="16.4" width="0.87" height="11.27"></rect>			</defs>			<clipPath id="SVGID_5_">				<use xlink:href="#SVGID_4_" style="overflow:visible;"></use>			</clipPath>							<linearGradient id="SVGID_6_" gradientUnits="userSpaceOnUse" x1="-256.224" y1="457.9345" x2="-255.6982" y2="457.9345" gradientTransform="matrix(0 23.8246 -23.8246 0 10941.8428 6122.1045)">				<stop offset="0" style="stop-color:#00AAA2"></stop>				<stop offset="0.0192" style="stop-color:#00A9A0"></stop>				<stop offset="0.4746" style="stop-color:#048869"></stop>				<stop offset="0.815" style="stop-color:#067548"></stop>				<stop offset="1" style="stop-color:#076D3B"></stop>			</linearGradient>			<rect x="31.31" y="16.4" class="st4" width="0.87" height="11.27"></rect>		</g>		<g>			<defs>				<rect id="SVGID_7_" x="34.79" y="21.61" width="0.87" height="9.28"></rect>			</defs>			<clipPath id="SVGID_8_">				<use xlink:href="#SVGID_7_" style="overflow:visible;"></use>			</clipPath>							<linearGradient id="SVGID_9_" gradientUnits="userSpaceOnUse" x1="-259.4239" y1="455.6504" x2="-258.898" y2="455.6504" gradientTransform="matrix(0 34.0123 -34.0123 0 15532.9375 8840.2148)">				<stop offset="0" style="stop-color:#00AAA2"></stop>				<stop offset="0.0144" style="stop-color:#00A9A0"></stop>				<stop offset="0.3565" style="stop-color:#048869"></stop>				<stop offset="0.6122" style="stop-color:#067548"></stop>				<stop offset="0.7512" style="stop-color:#076D3B"></stop>				<stop offset="1" style="stop-color:#076D3B"></stop>			</linearGradient>			<rect x="34.79" y="21.61" class="st5" width="0.87" height="9.28"></rect>		</g>		<g>			<defs>				<rect id="SVGID_10_" x="36.54" y="24.24" width="0.87" height="3.45"></rect>			</defs>			<clipPath id="SVGID_11_">				<use xlink:href="#SVGID_10_" style="overflow:visible;"></use>			</clipPath>							<linearGradient id="SVGID_12_" gradientUnits="userSpaceOnUse" x1="-254.1907" y1="459.7233" x2="-253.6649" y2="459.7233" gradientTransform="matrix(0 19.9268 -19.9268 0 9197.7852 5084.5249)">				<stop offset="0" style="stop-color:#00AAA2"></stop>				<stop offset="0.0192" style="stop-color:#00A9A0"></stop>				<stop offset="0.4746" style="stop-color:#048869"></stop>				<stop offset="0.815" style="stop-color:#067548"></stop>				<stop offset="1" style="stop-color:#076D3B"></stop>			</linearGradient>			<rect x="36.54" y="24.24" class="st6" width="0.87" height="3.45"></rect>		</g>		<g>			<defs>				<rect id="SVGID_13_" x="27.81" y="16.35" width="0.87" height="11.32"></rect>			</defs>			<clipPath id="SVGID_14_">				<use xlink:href="#SVGID_13_" style="overflow:visible;"></use>			</clipPath>							<linearGradient id="SVGID_15_" gradientUnits="userSpaceOnUse" x1="-256.2762" y1="457.7632" x2="-255.7504" y2="457.7632" gradientTransform="matrix(0 23.9448 -23.9448 0 10989.3027 6154.1069)">				<stop offset="0" style="stop-color:#00AAA2"></stop>				<stop offset="0.0192" style="stop-color:#00A9A0"></stop>				<stop offset="0.4746" style="stop-color:#048869"></stop>				<stop offset="0.815" style="stop-color:#067548"></stop>				<stop offset="1" style="stop-color:#076D3B"></stop>			</linearGradient>			<rect x="27.81" y="16.35" class="st7" width="0.87" height="11.32"></rect>		</g>		<g>			<defs>				<rect id="SVGID_16_" x="26.07" y="18.96" width="0.87" height="8.71"></rect>			</defs>			<clipPath id="SVGID_17_">				<use xlink:href="#SVGID_16_" style="overflow:visible;"></use>			</clipPath>							<linearGradient id="SVGID_18_" gradientUnits="userSpaceOnUse" x1="-256.0203" y1="457.888" x2="-255.4945" y2="457.888" gradientTransform="matrix(0 23.3668 -23.3668 0 10725.8799 6000.2383)">				<stop offset="0" style="stop-color:#00AAA2"></stop>				<stop offset="0.0192" style="stop-color:#00A9A0"></stop>				<stop offset="0.4746" style="stop-color:#048869"></stop>				<stop offset="0.815" style="stop-color:#067548"></stop>				<stop offset="1" style="stop-color:#076D3B"></stop>			</linearGradient>			<rect x="26.07" y="18.96" class="st8" width="0.87" height="8.71"></rect>		</g>		<g>			<defs>				<rect id="SVGID_19_" x="24.33" y="21.6" width="0.87" height="11.31"></rect>			</defs>			<clipPath id="SVGID_20_">				<use xlink:href="#SVGID_19_" style="overflow:visible;"></use>			</clipPath>							<linearGradient id="SVGID_21_" gradientUnits="userSpaceOnUse" x1="-256.42" y1="457.5871" x2="-255.8942" y2="457.5871" gradientTransform="matrix(0 24.0861 -24.0861 0 11046.2656 6195.9487)">				<stop offset="0" style="stop-color:#00AAA2"></stop>				<stop offset="0.0192" style="stop-color:#00A9A0"></stop>				<stop offset="0.4746" style="stop-color:#048869"></stop>				<stop offset="0.815" style="stop-color:#067548"></stop>				<stop offset="1" style="stop-color:#076D3B"></stop>			</linearGradient>			<rect x="24.33" y="21.6" class="st9" width="0.87" height="11.31"></rect>		</g>		<g>			<defs>				<rect id="SVGID_22_" x="22.59" y="24.23" width="0.87" height="3.44"></rect>			</defs>			<clipPath id="SVGID_23_">				<use xlink:href="#SVGID_22_" style="overflow:visible;"></use>			</clipPath>							<linearGradient id="SVGID_24_" gradientUnits="userSpaceOnUse" x1="-254.1737" y1="459.1042" x2="-253.6479" y2="459.1042" gradientTransform="matrix(0 19.9004 -19.9004 0 9159.373 5077.4717)">				<stop offset="0" style="stop-color:#00AAA2"></stop>				<stop offset="0.0192" style="stop-color:#00A9A0"></stop>				<stop offset="0.4746" style="stop-color:#048869"></stop>				<stop offset="0.815" style="stop-color:#067548"></stop>				<stop offset="1" style="stop-color:#076D3B"></stop>			</linearGradient>			<rect x="22.59" y="24.23" class="st10" width="0.87" height="3.44"></rect>		</g>		<g>			<defs>				<rect id="SVGID_25_" x="20.85" y="26.73" width="0.87" height="2.68"></rect>			</defs>			<clipPath id="SVGID_26_">				<use xlink:href="#SVGID_25_" style="overflow:visible;"></use>			</clipPath>							<linearGradient id="SVGID_27_" gradientUnits="userSpaceOnUse" x1="-255.1781" y1="458.3163" x2="-254.6522" y2="458.3163" gradientTransform="matrix(0 21.5968 -21.5968 0 9919.4688 5530.2842)">				<stop offset="0" style="stop-color:#00AAA2"></stop>				<stop offset="0.0192" style="stop-color:#00A9A0"></stop>				<stop offset="0.4746" style="stop-color:#048869"></stop>				<stop offset="0.815" style="stop-color:#067548"></stop>				<stop offset="1" style="stop-color:#076D3B"></stop>			</linearGradient>			<rect x="20.85" y="26.73" class="st11" width="0.87" height="2.68"></rect>		</g>		<polygon class="st2" points="19.1,30.29 19.1,32.03 16.19,32.03 15.31,32.9 19.1,32.9 19.97,32.9 19.97,32.03 19.97,29.41   "></polygon>		<polygon class="st2" points="39.15,27.6 38.28,26.73 38.28,28.53 38.28,28.98 38.28,32.9 39.15,32.9 39.15,28.98   "></polygon>		<rect x="34.79" y="32.03" class="st2" width="2.35" height="0.87"></rect>		<rect x="36.54" y="28.56" class="st2" width="0.87" height="4.35"></rect>		<rect x="33.05" y="30.29" class="st2" width="0.87" height="2.61"></rect>		<g>			<defs>				<rect id="SVGID_28_" x="33.05" y="18.98" width="0.87" height="10.43"></rect>			</defs>			<clipPath id="SVGID_29_">				<use xlink:href="#SVGID_28_" style="overflow:visible;"></use>			</clipPath>							<linearGradient id="SVGID_30_" gradientUnits="userSpaceOnUse" x1="-256.5634" y1="457.753" x2="-256.0375" y2="457.753" gradientTransform="matrix(0 24.5852 -24.5852 0 11287.416 6325.4873)">				<stop offset="0" style="stop-color:#00AAA2"></stop>				<stop offset="0.0192" style="stop-color:#00A9A0"></stop>				<stop offset="0.4746" style="stop-color:#048869"></stop>				<stop offset="0.815" style="stop-color:#067548"></stop>				<stop offset="1" style="stop-color:#076D3B"></stop>			</linearGradient>			<rect x="33.05" y="18.98" class="st12" width="0.87" height="10.43"></rect>		</g>		<polygon class="st2" points="40.03,32.03 40.03,32.9 40.9,32.9 44.69,32.9 43.81,32.03 40.9,32.03 40.9,30.29 40.03,29.42   "></polygon>		<polygon class="st2" points="35.67,31.34 35.67,31.06 35.31,31.06 35.02,31.06 35.02,31.53 34.81,31.53 34.81,31.82 35.67,31.82    35.67,31.53 35.31,31.53 35.31,31.34   "></polygon>	</g></g></svg>