<svg xmlns="http://www.w3.org/2000/svg" xmlns:xlink="http://www.w3.org/1999/xlink" x="0px" y="0px" viewBox="0 0 60 60" style="enable-background:new 0 0 60 60;" xml:space="preserve"><style type="text/css">	.st0{fill:#FFFFFF;}	.st1{fill:#615D5C;}	.st2{fill:#AFD2A3;}	.st3{fill:#2DADA1;}	.st4{fill:#4F839A;}	.st5{fill:#29AEBA;}	.st6{fill:#167168;}	.st7{fill:#635F5E;}	.st8{fill:#3C3836;}	.st9{fill:#3D3937;}	.st10{fill:#3E3A38;}	.st11{fill:#625E5D;}	.st12{fill:#5F5C5A;}	.st13{fill:#3F3B39;}</style><g id="Layer_4">	<circle class="st0" cx="30" cy="30" r="27.42"></circle></g><g id="Layer_9">	<g>		<g>			<path class="st1" d="M29.87,13.98c0.08,0,0.15,0,0.23-0.01c0.35,1.22,0.63,2.46,0.95,3.68c0.07,0.4,0.3,0.79,0.18,1.2    c-0.1,0.36-0.2,0.72-0.29,1.07c-0.06-0.02-0.17-0.05-0.23-0.07c-0.09-0.41-0.11-0.84-0.26-1.23c-0.28-0.14-0.62-0.05-0.93-0.05    c-0.13,0.41-0.2,0.84-0.26,1.27c-0.08,0.03-0.16,0.06-0.24,0.09c-0.09-0.38-0.2-0.75-0.3-1.12c-0.08-0.24,0.02-0.49,0.08-0.72    C29.18,16.73,29.5,15.34,29.87,13.98z"></path>			<path class="st1" d="M24.03,16.44c0.13,0.03,0.25,0.08,0.36,0.15c1.2,0.73,2.41,1.45,3.61,2.18c0.15,0.07,0.21,0.23,0.29,0.37    c0.16,0.3,0.33,0.6,0.5,0.9c-0.05,0.03-0.15,0.08-0.2,0.11c-0.34-0.22-0.64-0.49-1-0.67c-0.32,0.06-0.53,0.39-0.7,0.65    c0.15,0.4,0.45,0.72,0.67,1.09c-0.04,0.07-0.08,0.14-0.12,0.21c-0.33-0.2-0.66-0.39-0.99-0.58c-0.11-0.06-0.19-0.15-0.25-0.26    c-0.75-1.31-1.5-2.63-2.25-3.94C23.97,16.59,24.01,16.49,24.03,16.44z"></path>			<path class="st1" d="M35.68,16.54c0.12-0.07,0.29-0.14,0.36,0.03c-0.04,0.13-0.1,0.26-0.17,0.38c-0.72,1.24-1.41,2.5-2.14,3.73    c-0.34,0.32-0.8,0.49-1.19,0.74c-0.03-0.07-0.07-0.14-0.1-0.21c0.22-0.36,0.51-0.68,0.66-1.07c-0.14-0.27-0.38-0.53-0.66-0.67    c-0.38,0.16-0.69,0.46-1.03,0.68c-0.07-0.03-0.14-0.07-0.21-0.1c0.19-0.36,0.39-0.73,0.6-1.08c0.07-0.13,0.2-0.2,0.31-0.27    C33.3,17.98,34.49,17.25,35.68,16.54z"></path>			<path class="st1" d="M25.68,21.41c0.17-0.04,0.35-0.13,0.52-0.06c0.38,0.11,0.77,0.21,1.14,0.33c-0.02,0.05-0.06,0.16-0.08,0.21    c-0.41,0.1-0.84,0.15-1.24,0.28c0.01,0.32-0.11,0.69,0.06,0.97c0.37,0.15,0.79,0.16,1.18,0.27c0.02,0.05,0.05,0.16,0.07,0.22    c-0.42,0.12-0.85,0.25-1.28,0.36c-1.52-0.4-3.04-0.79-4.55-1.23c0.04-0.1,0.02-0.25,0.15-0.27    C23.01,22.12,24.35,21.77,25.68,21.41z"></path>			<path class="st1" d="M32.63,21.69c0.37-0.13,0.75-0.22,1.13-0.34c0.19-0.08,0.39,0.02,0.58,0.07c1.36,0.37,2.73,0.74,4.09,1.09    c0,0.08,0,0.17-0.01,0.25c-0.12,0.06-0.26,0.09-0.39,0.13c-1.36,0.36-2.71,0.73-4.07,1.09c-0.45-0.07-0.89-0.23-1.33-0.36    c0.02-0.05,0.05-0.15,0.07-0.21c0.36-0.09,0.72-0.15,1.08-0.23c0.12-0.01,0.16-0.13,0.18-0.23c0.04-0.27,0.01-0.55-0.04-0.82    c-0.4-0.09-0.81-0.16-1.21-0.25C32.69,21.84,32.65,21.74,32.63,21.69z"></path>			<path class="st1" d="M26.43,24.48c0.34-0.2,0.67-0.39,1.01-0.59c0.03,0.07,0.07,0.14,0.11,0.22c-0.2,0.32-0.44,0.62-0.62,0.96    c-0.1,0.14,0.05,0.26,0.13,0.37c0.13,0.14,0.25,0.28,0.41,0.38c0.1,0.05,0.2-0.03,0.29-0.08c0.28-0.19,0.55-0.39,0.83-0.58    c0.05,0.03,0.15,0.08,0.21,0.11c-0.22,0.4-0.44,0.8-0.66,1.2c-1.3,0.77-2.59,1.56-3.89,2.34c-0.12,0.1-0.24-0.01-0.31-0.1    c0.7-1.23,1.41-2.46,2.1-3.69C26.14,24.83,26.22,24.59,26.43,24.48z"></path>			<path class="st1" d="M32.54,23.88c0.39,0.23,0.78,0.45,1.16,0.69c0.72,1.28,1.46,2.56,2.18,3.84c0.06,0.12,0.12,0.24,0.17,0.37    c-0.06,0.02-0.17,0.05-0.22,0.07c-0.28-0.12-0.53-0.31-0.79-0.46c-0.9-0.55-1.81-1.09-2.71-1.63c-0.2-0.13-0.45-0.22-0.57-0.44    c-0.2-0.34-0.38-0.69-0.58-1.03c0.04-0.03,0.13-0.09,0.18-0.12c0.34,0.21,0.65,0.48,1.01,0.67c0.03,0,0.1,0,0.14,0    c0.2-0.15,0.37-0.33,0.53-0.53c0.09-0.11,0-0.25-0.06-0.35c-0.18-0.28-0.37-0.57-0.56-0.84C32.46,24.02,32.5,23.95,32.54,23.88z"></path>			<path class="st1" d="M29.04,25.37c0.08,0.03,0.16,0.05,0.23,0.08c0.06,0.42,0.14,0.84,0.25,1.25c0.31,0.04,0.65,0.1,0.94-0.02    c0.15-0.39,0.18-0.82,0.26-1.24c0.06-0.02,0.18-0.06,0.23-0.08c0.08,0.33,0.17,0.67,0.26,1c0.09,0.28,0.05,0.57,0.03,0.86    c-0.3,2.49-0.57,4.98-0.86,7.48c-0.13,0.73-0.08,1.49-0.32,2.2c-0.07-0.06-0.19-0.08-0.21-0.19c-0.09-0.42-0.12-0.86-0.16-1.29    c-0.26-2.15-0.49-4.31-0.75-6.46c-0.05-0.75-0.2-1.49-0.24-2.25C28.77,26.26,28.94,25.82,29.04,25.37z"></path>			<path class="st1" d="M20.14,31.95c0.13,0,0.25,0.05,0.37,0.09c2.78,0.99,5.57,1.97,8.35,2.97c0.08,0.61,0.18,1.22,0.27,1.82    c-2.68-1.27-5.29-2.67-7.93-4.03c-0.38-0.21-0.79-0.37-1.15-0.61C20.06,32.11,20.08,32.02,20.14,31.95z"></path>			<path class="st1" d="M39.6,32c0.09-0.03,0.22-0.09,0.29,0.02c0.15,0.17-0.11,0.26-0.22,0.33c-2.93,1.5-5.84,3.07-8.81,4.48    c0.06-0.61,0.19-1.21,0.26-1.81C33.94,34,36.77,33.01,39.6,32z"></path>			<g>				<path class="st2" d="M32.99,13.27c0.16-0.19,0.34-0.42,0.62-0.39c0.35-0.02,0.65,0.3,0.65,0.64c0,0.44-0.08,0.87-0.1,1.31     c-0.02,0.55-0.08,1.09-0.14,1.64c-0.49,0.28-0.99,0.56-1.47,0.86c-0.18,0.12-0.38,0.21-0.58,0.28c-0.16-0.6-0.33-1.19-0.5-1.79     c-0.05-0.21-0.17-0.47,0-0.66C31.97,14.53,32.48,13.9,32.99,13.27z"></path>				<path class="st2" d="M20.87,25.87c0.67-0.58,1.33-1.16,1.99-1.73c0.76,0.21,1.51,0.42,2.26,0.65c-0.37,0.71-0.75,1.41-1.14,2.11     c-0.95,0.08-1.9,0.22-2.85,0.24c-0.36,0.03-0.63-0.31-0.63-0.64C20.5,26.23,20.69,26.03,20.87,25.87z"></path>			</g>			<g>				<path class="st3" d="M25.65,13.52c-0.03-0.34,0.32-0.6,0.64-0.6c0.23,0.01,0.43,0.15,0.56,0.33c0.54,0.67,1.09,1.33,1.64,1.99     c0.13,0.12,0.03,0.28,0.01,0.42c-0.19,0.66-0.34,1.33-0.55,1.98c-0.25-0.08-0.47-0.25-0.7-0.37c-0.45-0.25-0.9-0.51-1.35-0.77     C25.82,15.51,25.66,14.52,25.65,13.52z"></path>				<path class="st3" d="M34.89,24.72c0.75-0.23,1.51-0.45,2.26-0.67c0.61,0.55,1.24,1.07,1.87,1.6c0.22,0.19,0.5,0.39,0.51,0.71     c0.05,0.41-0.37,0.77-0.77,0.69c-0.9-0.09-1.81-0.15-2.71-0.23C35.65,26.12,35.25,25.43,34.89,24.72z"></path>				<path class="st3" d="M25.96,28.83c0.68-0.39,1.36-0.77,2.04-1.16c0.09,0.38,0.14,0.76,0.19,1.15c0.06,0.46,0.18,0.91,0.19,1.38     c0.02,0.14-0.09,0.23-0.16,0.33c-0.44,0.52-0.88,1.06-1.31,1.59c-0.16,0.2-0.41,0.37-0.68,0.3c-0.37-0.07-0.59-0.48-0.52-0.84     C25.82,30.66,25.84,29.74,25.96,28.83z"></path>			</g>			<g>				<path class="st4" d="M35.99,18.44c0.95-0.04,1.88-0.21,2.83-0.24c0.44-0.04,0.79,0.49,0.62,0.88c-0.07,0.18-0.22,0.31-0.36,0.43     c-0.65,0.56-1.3,1.13-1.95,1.7c-0.76-0.2-1.51-0.43-2.27-0.64C35.23,19.85,35.62,19.15,35.99,18.44z"></path>			</g>			<g>				<path class="st5" d="M20.46,19.03c-0.05-0.33,0.21-0.67,0.53-0.74c0.32-0.02,0.63,0.04,0.95,0.06c0.64,0.07,1.28,0.07,1.92,0.17     c0.13,0.01,0.16,0.15,0.23,0.24c0.33,0.63,0.69,1.24,1.02,1.87c-0.67,0.19-1.33,0.39-1.99,0.59c-0.12,0.03-0.28,0.09-0.38-0.03     c-0.62-0.51-1.22-1.05-1.83-1.56C20.71,19.48,20.49,19.3,20.46,19.03z"></path>			</g>			<g>				<path class="st6" d="M32.05,27.66c0.68,0.39,1.35,0.78,2.04,1.16c0.09,0.94,0.18,1.88,0.26,2.82c0.06,0.31-0.13,0.64-0.44,0.74     c-0.27,0.11-0.56-0.03-0.73-0.25c-0.51-0.62-1.01-1.24-1.53-1.84C31.76,29.42,31.91,28.54,32.05,27.66z"></path>			</g>		</g>		<g>			<path class="st1" d="M12.43,42.46c0.04,0,0.12,0,0.17,0c0,0.19,0,0.38,0,0.56c0.16-0.07,0.35-0.12,0.52-0.06    c0.15,0.06,0.19,0.24,0.2,0.38c0.01,0.26,0,0.52,0.01,0.78c-0.06,0-0.11,0-0.17,0c-0.02-0.31,0.03-0.64-0.05-0.95    c-0.13-0.15-0.35-0.06-0.52-0.02c0,0.32,0,0.64,0,0.96c-0.06,0-0.11,0-0.17,0C12.43,43.57,12.43,43.02,12.43,42.46z"></path>			<path class="st1" d="M17.34,42.46c0.06,0,0.11,0,0.17,0c0,0.55,0,1.11,0,1.66c-0.06,0-0.12,0-0.17,0    C17.34,43.57,17.34,43.02,17.34,42.46z"></path>			<path class="st1" d="M31.41,42.46c0.04,0,0.12,0,0.16,0c0,0.55,0,1.11,0,1.66c-0.06,0-0.11,0-0.16,0    C31.41,43.57,31.41,43.02,31.41,42.46z"></path>			<path class="st1" d="M9.26,42.51c0.37,0,0.75,0,1.12,0c0,0.05,0,0.11,0,0.16c-0.16,0.01-0.32,0.01-0.47,0.01    c0,0.48,0,0.96,0,1.44c-0.06,0-0.12,0-0.18,0c0-0.48,0-0.96,0-1.44c-0.16,0-0.31,0-0.47,0C9.26,42.63,9.26,42.57,9.26,42.51z"></path>			<path class="st1" d="M22.14,42.52c0.06,0,0.11,0,0.17,0c0.12,0.48,0.24,0.97,0.36,1.45c0.03,0,0.1,0,0.13,0    c0.11-0.49,0.23-0.97,0.36-1.45c0.06,0,0.12,0,0.18,0c-0.13,0.54-0.27,1.07-0.41,1.61c-0.13,0-0.26,0-0.39,0    C22.41,43.59,22.26,43.05,22.14,42.52z"></path>			<path class="st1" d="M32.23,42.51c0.38,0,0.75,0,1.13,0c0,0.06,0,0.11,0,0.17c-0.16,0-0.32,0-0.47,0c0,0.48,0,0.96,0,1.44    c-0.06,0-0.11,0-0.17,0c0-0.48,0-0.96,0-1.44c-0.16,0-0.32,0-0.48,0C32.23,42.63,32.23,42.57,32.23,42.51z"></path>			<path class="st1" d="M40.32,42.59c0.23-0.16,0.53-0.09,0.79-0.05c0,0.05-0.01,0.1-0.01,0.15c-0.22-0.03-0.47-0.1-0.68,0.03    c-0.16,0.17-0.14,0.43-0.14,0.65c0.01,0.19,0,0.42,0.17,0.54c0.2,0.11,0.44,0.05,0.65,0.02c0,0.04,0.01,0.12,0.01,0.16    c-0.25,0.04-0.53,0.1-0.76-0.03c-0.25-0.15-0.23-0.47-0.25-0.73C40.12,43.09,40.09,42.77,40.32,42.59z"></path>			<path class="st1" d="M26.76,42.61c0.05,0,0.11,0,0.16,0c0,0.12,0,0.24,0,0.35c0.12,0,0.24,0,0.36,0c0,0.05,0,0.1,0,0.16    c-0.12,0-0.24,0-0.35,0c0,0.23-0.01,0.45,0,0.68c0,0.07,0.02,0.17,0.1,0.19c0.08,0.02,0.17,0,0.25,0c0,0.04,0.01,0.11,0.02,0.14    c-0.13,0.01-0.27,0.05-0.4,0c-0.12-0.04-0.13-0.18-0.14-0.29c-0.02-0.24,0-0.48-0.01-0.72c-0.05,0-0.11,0-0.16,0    c0-0.04,0-0.12,0-0.16c0.05,0,0.11,0,0.16,0C26.76,42.85,26.76,42.73,26.76,42.61z"></path>			<path class="st1" d="M47.5,42.61c0.04,0,0.12,0,0.17,0c0,0.12,0,0.23,0,0.35c0.12,0,0.24,0,0.36,0c0,0.05,0,0.1,0,0.16    c-0.12,0-0.24,0-0.36,0c0.01,0.26-0.02,0.53,0.02,0.79c0.06,0.14,0.24,0.07,0.36,0.08c0,0.03-0.01,0.1-0.01,0.13    c-0.1,0.06-0.23,0.04-0.34,0.03c-0.12-0.02-0.18-0.13-0.18-0.24c-0.02-0.26-0.01-0.52-0.01-0.78c-0.06,0-0.11,0-0.17,0    c0-0.05,0-0.1,0-0.15c0.05,0,0.11,0,0.16,0C47.5,42.84,47.5,42.73,47.5,42.61z"></path>			<g>				<path class="st1" d="M10.55,42.99c0.18-0.08,0.41-0.06,0.55,0.08c0.12,0.15,0.12,0.36,0.12,0.55c-0.25,0-0.5,0-0.76,0     c0.02,0.12,0,0.28,0.13,0.34c0.18,0.08,0.39,0.03,0.58,0.02c0,0.03,0,0.1,0,0.14c-0.21,0.02-0.44,0.07-0.65-0.01     c-0.21-0.1-0.24-0.35-0.24-0.56C10.3,43.35,10.34,43.08,10.55,42.99z M10.59,43.14c-0.11,0.07-0.1,0.22-0.12,0.34     c0.2,0,0.4,0,0.59,0c-0.01-0.1-0.01-0.2-0.06-0.29C10.9,43.07,10.71,43.06,10.59,43.14z"></path>			</g>			<path class="st1" d="M13.82,43.02c0.16-0.08,0.36-0.12,0.52-0.04c0.13,0.07,0.15,0.23,0.16,0.36c0.02,0.26,0,0.52,0.01,0.79    c-0.06,0-0.11,0-0.17,0c-0.01-0.28,0.02-0.57-0.01-0.85c0-0.1-0.09-0.17-0.18-0.17c-0.12,0-0.25,0.02-0.35,0.08    c-0.01,0.31,0,0.62,0,0.94c-0.06,0-0.12,0-0.18,0c0-0.39,0-0.78,0-1.18C13.69,42.96,13.76,42.97,13.82,43.02z"></path>			<path class="st1" d="M15.44,42.98c0.17-0.07,0.37-0.03,0.55-0.01c0,0.04-0.01,0.11-0.01,0.15c-0.18-0.02-0.36-0.04-0.53,0.05    c-0.08,0.23-0.11,0.51,0,0.74c0.14,0.14,0.36,0.08,0.53,0.07c0,0.05,0,0.1,0,0.15c-0.2,0.02-0.42,0.07-0.6-0.04    c-0.18-0.13-0.18-0.37-0.18-0.57C15.22,43.32,15.25,43.08,15.44,42.98z"></path>			<g>				<path class="st1" d="M16.22,42.99c0.17-0.03,0.35-0.06,0.53-0.04c0.12,0.02,0.24,0.1,0.25,0.23c0.03,0.25,0,0.5,0.02,0.74     c0.06,0.07,0.14,0.13,0.13,0.24c-0.1-0.02-0.2-0.05-0.29-0.1c-0.16,0.06-0.34,0.11-0.52,0.07c-0.24-0.09-0.26-0.46-0.08-0.62     c0.18-0.09,0.39-0.07,0.59-0.1c-0.02-0.1,0.01-0.26-0.12-0.3c-0.17-0.03-0.35,0-0.52,0.02C16.22,43.08,16.22,43.03,16.22,42.99z      M16.4,43.62c-0.12,0.09-0.1,0.32,0.04,0.38c0.14,0.03,0.28-0.03,0.42-0.06c0-0.13,0-0.25,0-0.38     C16.7,43.57,16.54,43.56,16.4,43.62z"></path>			</g>			<g>				<path class="st1" d="M18.31,43c0.17-0.05,0.35-0.06,0.52-0.05c0.13,0.01,0.24,0.11,0.26,0.24c0.02,0.26,0,0.52,0.01,0.77     c0.04,0.02,0.08,0.04,0.13,0.07c0,0.04-0.01,0.09-0.01,0.14c-0.09-0.02-0.19-0.05-0.27-0.1c-0.16,0.06-0.32,0.11-0.49,0.08     c-0.27-0.07-0.31-0.52-0.07-0.64c0.18-0.06,0.37-0.06,0.55-0.08c-0.02-0.1,0.01-0.27-0.12-0.31c-0.17-0.03-0.35,0.01-0.53,0.02     C18.29,43.09,18.3,43.03,18.31,43z M18.44,43.62c-0.02,0.12-0.07,0.3,0.07,0.37c0.14,0.03,0.29-0.02,0.42-0.06     c0-0.13,0-0.25,0-0.38C18.76,43.56,18.6,43.58,18.44,43.62z"></path>			</g>			<path class="st1" d="M19.61,43.03c0.15-0.08,0.34-0.12,0.51-0.06c0.13,0.06,0.18,0.22,0.19,0.35c0.01,0.27,0,0.54,0.01,0.81    c-0.05,0-0.11,0-0.16,0c-0.02-0.32,0.06-0.65-0.06-0.96c-0.14-0.14-0.35-0.04-0.5,0.01c0,0.32,0,0.63,0,0.95    c-0.05,0-0.11,0-0.16,0c0-0.39,0-0.78,0-1.18C19.49,42.96,19.56,42.97,19.61,43.03z"></path>			<g>				<path class="st1" d="M23.73,42.96c0.18-0.04,0.41-0.03,0.54,0.13c0.13,0.18,0.13,0.42,0.11,0.64c-0.01,0.17-0.1,0.37-0.28,0.41     c-0.19,0.04-0.44,0.04-0.58-0.13c-0.12-0.18-0.11-0.41-0.1-0.61C23.43,43.2,23.53,42.99,23.73,42.96z M23.63,43.22     c-0.06,0.19-0.04,0.39-0.02,0.58c0.04,0.28,0.54,0.28,0.57,0c0.04-0.21,0.03-0.43-0.04-0.63     C23.99,43.08,23.74,43.05,23.63,43.22z"></path>			</g>			<g>				<path class="st1" d="M25.59,42.99c0.24-0.03,0.56-0.14,0.75,0.09c0.1,0.26,0.03,0.54,0.05,0.81c-0.01,0.08,0.08,0.11,0.13,0.16     c0,0.04-0.01,0.08-0.01,0.13c-0.09-0.02-0.19-0.05-0.27-0.1c-0.18,0.06-0.4,0.14-0.59,0.04c-0.17-0.14-0.18-0.46,0.01-0.59     c0.18-0.08,0.38-0.07,0.57-0.09c-0.01-0.11,0.01-0.26-0.12-0.31c-0.17-0.03-0.35,0.01-0.52,0.02     C25.59,43.08,25.59,43.03,25.59,42.99z M25.73,43.62c-0.03,0.12-0.08,0.28,0.04,0.36c0.14,0.06,0.3-0.01,0.45-0.05     c0-0.13,0-0.25,0-0.38C26.06,43.57,25.89,43.57,25.73,43.62z"></path>			</g>			<g>				<path class="st1" d="M28.21,42.95c0.2-0.04,0.46-0.01,0.57,0.19c0.09,0.24,0.09,0.52,0.02,0.77c-0.06,0.18-0.26,0.25-0.43,0.24     c-0.17,0.01-0.37-0.07-0.43-0.24c-0.06-0.21-0.06-0.43-0.02-0.65C27.93,43.11,28.06,42.98,28.21,42.95z M28.18,43.13     c-0.12,0.08-0.13,0.25-0.13,0.38c0,0.14-0.01,0.31,0.09,0.42c0.13,0.11,0.3,0.07,0.44,0.02c0.06-0.11,0.09-0.23,0.09-0.36     c0-0.15,0.01-0.34-0.11-0.45C28.45,43.08,28.3,43.08,28.18,43.13z"></path>			</g>			<path class="st1" d="M29.28,43.04c0.16-0.08,0.35-0.13,0.52-0.07c0.14,0.07,0.18,0.23,0.19,0.37c0.01,0.26,0,0.52,0.01,0.78    c-0.06,0-0.11,0-0.17,0c0-0.26,0.01-0.52-0.01-0.78c-0.01-0.08-0.02-0.2-0.11-0.23c-0.15-0.05-0.3,0.02-0.44,0.06    c0,0.32,0,0.63,0,0.95c-0.06,0-0.11,0-0.16,0c0-0.39-0.01-0.77,0.01-1.16c0.03,0,0.1,0,0.14,0    C29.25,42.98,29.27,43.02,29.28,43.04z"></path>			<g>				<path class="st1" d="M30.29,43c0.18-0.05,0.36-0.07,0.55-0.05c0.13,0.02,0.23,0.14,0.24,0.27c0.02,0.25-0.01,0.5,0.02,0.76     c0.03,0.01,0.08,0.04,0.11,0.05c-0.01,0.05-0.01,0.09-0.02,0.14c-0.09-0.03-0.18-0.06-0.26-0.1c-0.16,0.06-0.33,0.11-0.5,0.07     c-0.27-0.08-0.29-0.52-0.05-0.64c0.18-0.06,0.36-0.06,0.55-0.08c-0.01-0.1-0.02-0.2-0.06-0.3c-0.2-0.03-0.39-0.01-0.59,0.01     C30.27,43.09,30.28,43.03,30.29,43z M30.45,43.62c-0.1,0.1-0.09,0.29,0.03,0.37c0.14,0.04,0.29-0.02,0.43-0.05     c0-0.13,0-0.26,0-0.38C30.76,43.58,30.59,43.55,30.45,43.62z"></path>			</g>			<path class="st1" d="M33.5,43.11c0.13-0.07,0.27-0.13,0.41-0.18c0,0.06,0,0.12,0.01,0.18c-0.14,0.04-0.28,0.08-0.4,0.16    c-0.02,0.28,0,0.56-0.01,0.84c-0.06,0-0.12,0-0.18,0c0-0.39,0-0.78,0-1.16c0.06,0,0.12,0,0.17,0C33.51,43,33.5,43.07,33.5,43.11z    "></path>			<g>				<path class="st1" d="M34.1,43c0.15-0.05,0.31-0.06,0.47-0.05c0.13,0,0.28,0.08,0.3,0.22c0.04,0.25,0,0.51,0.02,0.76     c0.02,0.05,0.09,0.07,0.13,0.11c-0.01,0.04-0.01,0.08-0.02,0.13c-0.09-0.03-0.18-0.06-0.27-0.1c-0.18,0.06-0.4,0.14-0.59,0.03     c-0.17-0.14-0.18-0.46,0.01-0.59c0.18-0.08,0.38-0.06,0.58-0.09c-0.01-0.1-0.03-0.2-0.06-0.3c-0.2-0.03-0.4-0.01-0.59,0.01     C34.08,43.09,34.09,43.03,34.1,43z M34.22,43.63c-0.01,0.12-0.07,0.3,0.07,0.36c0.14,0.04,0.29-0.02,0.43-0.06     c0-0.13,0-0.25,0-0.38C34.56,43.56,34.39,43.57,34.22,43.63z"></path>			</g>			<path class="st1" d="M35.86,43.03c0.16-0.08,0.36-0.13,0.53-0.05c0.14,0.07,0.16,0.23,0.17,0.37c0.02,0.26,0,0.52,0.01,0.78    c-0.06,0-0.11,0-0.17,0c0-0.25,0.01-0.49,0-0.74c-0.01-0.1-0.03-0.24-0.14-0.28c-0.14-0.04-0.28,0.02-0.42,0.06    c0,0.32,0,0.64,0,0.95c-0.06,0-0.11,0-0.17,0c0-0.39,0-0.77,0-1.16c0.04,0,0.11,0,0.15,0C35.83,42.98,35.85,43.01,35.86,43.03z"></path>			<path class="st1" d="M37.52,43.03c0.16-0.08,0.36-0.13,0.53-0.05c0.14,0.07,0.16,0.23,0.17,0.37c0.02,0.26,0,0.52,0.01,0.78    c-0.06,0-0.11,0-0.17,0c-0.02-0.31,0.04-0.63-0.04-0.93c-0.12-0.18-0.36-0.07-0.52-0.03c0,0.32,0,0.64,0,0.95    c-0.06,0-0.11,0-0.17,0c0-0.39,0-0.77,0-1.16c0.04,0,0.11,0,0.15,0C37.49,42.98,37.51,43.01,37.52,43.03z"></path>			<g>				<path class="st1" d="M38.51,43.15c0.06-0.16,0.25-0.22,0.41-0.21c0.18,0.02,0.37,0.03,0.56,0.02c0,0.04,0,0.12,0,0.15     c-0.07,0-0.13,0-0.2-0.01c0.07,0.17,0.09,0.38-0.04,0.52c-0.13,0.11-0.31,0.09-0.46,0.1c-0.01,0.07-0.08,0.16,0,0.21     c0.19,0.05,0.4-0.02,0.57,0.09c0.19,0.17,0.11,0.56-0.15,0.61c-0.22,0.06-0.49,0.07-0.67-0.08c-0.11-0.16-0.07-0.4,0.08-0.51     c-0.03-0.12-0.03-0.24,0.02-0.35C38.48,43.57,38.45,43.34,38.51,43.15z M38.67,43.47c0.05,0.16,0.26,0.13,0.39,0.1     c0.15-0.08,0.09-0.27,0.09-0.41c-0.11-0.06-0.23-0.11-0.35-0.06C38.64,43.14,38.63,43.34,38.67,43.47z M38.7,44.48     c0.15,0.07,0.34,0.06,0.49,0.01c0.12-0.06,0.08-0.22,0.08-0.32c-0.17-0.04-0.34-0.06-0.51-0.05     C38.62,44.17,38.59,44.38,38.7,44.48z"></path>			</g>			<g>				<path class="st1" d="M41.59,42.96c0.17-0.03,0.38-0.03,0.51,0.11c0.12,0.15,0.13,0.35,0.13,0.53c0,0.16-0.02,0.33-0.13,0.44     c-0.14,0.13-0.35,0.12-0.53,0.09c-0.19-0.04-0.29-0.24-0.3-0.42c-0.01-0.2-0.02-0.41,0.08-0.59     C41.4,43.03,41.49,42.98,41.59,42.96z M41.59,43.12c-0.21,0.13-0.13,0.43-0.13,0.64c0,0.3,0.52,0.33,0.58,0.05     c0.03-0.18,0.03-0.37-0.01-0.55C41.98,43.08,41.73,43.07,41.59,43.12z"></path>			</g>			<path class="st1" d="M42.65,43.12c0.13-0.08,0.26-0.14,0.4-0.18c0,0.06,0,0.12,0.01,0.18c-0.14,0.04-0.27,0.09-0.4,0.15    c0,0.29,0,0.57,0,0.86c-0.06,0-0.12,0-0.18-0.01c0-0.39,0-0.77,0-1.16c0.06,0,0.12,0,0.18,0C42.65,43,42.65,43.08,42.65,43.12z"></path>			<g>				<path class="st1" d="M43.44,43.03c0.16-0.09,0.38-0.14,0.54-0.03c0.17,0.12,0.17,0.36,0.17,0.55c-0.01,0.18-0.01,0.39-0.17,0.51     c-0.16,0.13-0.38,0.08-0.58,0.08c0,0.17,0,0.33,0,0.5c-0.04,0-0.13,0-0.17,0c0-0.56,0-1.13,0-1.69     C43.31,42.96,43.39,42.97,43.44,43.03z M43.41,43.18c0,0.27,0,0.53,0,0.8c0.16,0.01,0.35,0.07,0.47-0.06     c0.11-0.14,0.11-0.33,0.1-0.49c-0.01-0.11-0.04-0.25-0.15-0.3C43.69,43.06,43.54,43.14,43.41,43.18z"></path>			</g>			<g>				<path class="st1" d="M44.65,42.96c0.19-0.04,0.44-0.04,0.56,0.13c0.12,0.18,0.11,0.41,0.1,0.62c-0.01,0.18-0.11,0.38-0.31,0.42     c-0.19,0.03-0.44,0.03-0.56-0.15c-0.11-0.18-0.1-0.4-0.09-0.6C44.38,43.21,44.47,43.01,44.65,42.96z M44.59,43.17     c-0.06,0.23-0.08,0.47-0.01,0.7c0.08,0.15,0.29,0.16,0.43,0.1c0.13-0.06,0.12-0.21,0.14-0.33c0-0.15,0.01-0.31-0.06-0.45     C44.95,43.05,44.73,43.09,44.59,43.17z"></path>			</g>			<path class="st1" d="M45.57,42.96c0.06,0,0.12,0,0.17,0c0,0.05,0,0.1,0,0.15c0.13-0.07,0.27-0.14,0.41-0.18    c0,0.06,0,0.12,0.01,0.18c-0.14,0.04-0.27,0.09-0.4,0.15c-0.02,0.29-0.01,0.58-0.01,0.87c-0.06,0-0.12,0-0.18,0    C45.57,43.74,45.57,43.35,45.57,42.96z"></path>			<g>				<path class="st1" d="M48.92,42.96c0.2-0.05,0.46-0.03,0.58,0.16c0.11,0.22,0.1,0.48,0.05,0.72c-0.02,0.14-0.13,0.27-0.28,0.29     c-0.19,0.03-0.44,0.03-0.56-0.14c-0.12-0.18-0.09-0.41-0.08-0.61C48.63,43.2,48.73,43.01,48.92,42.96z M48.96,43.12     c-0.12,0.03-0.14,0.17-0.16,0.28c-0.02,0.17-0.02,0.35,0.06,0.5c0.09,0.13,0.29,0.13,0.42,0.07c0.14-0.08,0.14-0.27,0.14-0.41     c0-0.14,0-0.31-0.11-0.41C49.2,43.08,49.07,43.08,48.96,43.12z"></path>			</g>			<path class="st1" d="M50.03,43.03c0.16-0.08,0.36-0.13,0.53-0.05c0.13,0.07,0.16,0.24,0.18,0.38c0.01,0.26,0,0.51,0,0.77    c-0.06,0-0.12,0-0.17,0c-0.02-0.31,0.04-0.64-0.05-0.94c-0.13-0.16-0.36-0.05-0.51-0.01c0,0.32,0,0.63,0,0.95    c-0.06,0-0.11,0-0.17,0c0-0.39,0-0.78,0-1.17C49.91,42.96,49.98,42.97,50.03,43.03z"></path>			<path class="st1" d="M11.63,42.99c0.18-0.08,0.38-0.04,0.57-0.02c0,0.05-0.01,0.1-0.01,0.15c-0.19-0.01-0.48-0.09-0.56,0.15    c-0.04,0.19-0.05,0.41,0.02,0.6c0.12,0.19,0.37,0.12,0.55,0.11c0,0.05,0.01,0.1,0.01,0.15c-0.22,0.02-0.51,0.09-0.68-0.1    c-0.11-0.17-0.12-0.39-0.1-0.59C11.44,43.27,11.47,43.07,11.63,42.99z"></path>			<path class="st1" d="M14.8,42.96c0.06,0,0.12,0,0.18,0c0,0.39,0,0.78,0,1.16c-0.06,0-0.12,0-0.18,0    C14.8,43.74,14.8,43.35,14.8,42.96z"></path>			<path class="st1" d="M27.47,42.96c0.04,0,0.13,0,0.17,0c0,0.39,0,0.78,0,1.16c-0.06,0-0.11,0-0.17,0    C27.47,43.74,27.47,43.35,27.47,42.96z"></path>			<path class="st1" d="M35.2,44.13c0-0.39,0-0.78,0-1.17c0.04,0,0.13,0,0.17,0c0,0.39,0,0.77,0,1.16    C35.31,44.12,35.26,44.13,35.2,44.13z"></path>			<path class="st1" d="M36.86,44.12c0-0.39,0-0.78,0-1.16c0.04,0,0.13,0,0.17,0c0,0.39,0,0.78,0,1.16    C36.97,44.13,36.91,44.12,36.86,44.12z"></path>			<g>				<path class="st7" d="M35.2,42.5c0.06,0,0.11,0,0.17,0c0,0.07,0,0.14,0,0.21c-0.06,0-0.11,0-0.17,0     C35.2,42.64,35.2,42.57,35.2,42.5z"></path>			</g>		</g>		<g>			<g>				<path class="st8" d="M47.03,39.25c0.07-0.15,0.36-0.18,0.39,0.01c-0.08,0.02-0.21-0.03-0.26,0.07     c-0.04,0.06,0.01,0.13,0.02,0.18c0.09-0.03,0.18-0.05,0.27-0.08c0.01,0.04,0.02,0.08,0.03,0.12c-0.16,0.04-0.33,0.07-0.49,0.1     l-0.01-0.09c0.02-0.01,0.07-0.02,0.09-0.02C47.02,39.45,46.97,39.35,47.03,39.25z"></path>				<path class="st8" d="M35.04,39.44c0.06,0,0.13,0,0.19,0c0,0.08,0,0.15,0,0.23c-0.06,0-0.13,0-0.19,0     C35.04,39.6,35.04,39.52,35.04,39.44z"></path>				<path class="st8" d="M20.29,41.85c0.06,0,0.13,0,0.19,0c0,0.08,0,0.16,0,0.23c-0.07,0-0.13,0-0.2,0     C20.29,42.01,20.29,41.93,20.29,41.85z"></path>			</g>			<g>				<g>					<path class="st9" d="M16.46,39.39c0.07,0,0.15,0,0.22,0c0,0.57,0,1.13,0,1.7c-0.26-0.02-0.54,0.07-0.77-0.08      c0,0.02,0.01,0.06,0.01,0.08c-0.58,0-1.16,0-1.75,0c0-0.07,0-0.13,0-0.2c0.25,0,0.49,0,0.74,0c-0.05-0.32-0.03-0.64,0.03-0.95      c0.26-0.07,0.58-0.13,0.82,0.05c0.21,0.19,0.14,0.5,0.16,0.75c-0.01,0.08,0.08,0.13,0.14,0.14c0.13,0.01,0.26,0,0.4,0      C16.46,40.39,16.46,39.89,16.46,39.39z M15.13,40.09c-0.03,0.27-0.03,0.53,0,0.8c0.19,0,0.38,0,0.58,0      c-0.01-0.23,0.04-0.47-0.06-0.69C15.52,40.04,15.3,40.08,15.13,40.09z"></path>				</g>				<path class="st9" d="M17.1,39.39c0.07,0,0.15,0,0.22,0c0,0.57,0,1.13,0,1.7c-0.07,0-0.14,0-0.22,0     C17.1,40.52,17.1,39.96,17.1,39.39z"></path>				<path class="st9" d="M22.81,39.44c0.06,0,0.13,0,0.19,0c0,0.08,0,0.16,0,0.23c-0.06,0-0.13,0-0.19,0     C22.81,39.6,22.81,39.52,22.81,39.44z"></path>				<path class="st9" d="M23.94,39.44c0.07,0,0.13,0,0.2,0c0,0.08,0,0.15,0,0.23c-0.07,0-0.13,0-0.2,0     C23.94,39.6,23.94,39.52,23.94,39.44z"></path>				<path class="st9" d="M24.26,39.44c0.06,0,0.13,0,0.19,0c0,0.08,0,0.15,0,0.23c-0.07,0-0.13,0-0.19,0     C24.26,39.6,24.26,39.52,24.26,39.44z"></path>				<path class="st9" d="M24.94,39.39c0.07,0,0.14,0,0.22,0c0,0.57,0,1.13,0,1.7c-0.17,0-0.34,0-0.51,0c0-0.07,0-0.13,0-0.2     c0.1,0,0.19,0,0.29,0C24.94,40.39,24.94,39.89,24.94,39.39z"></path>				<path class="st9" d="M25.57,39.39c0.07,0,0.15,0,0.22,0c0,0.57,0,1.13,0,1.7c-0.07,0-0.15,0-0.22,0     C25.57,40.52,25.57,39.96,25.57,39.39z"></path>				<path class="st9" d="M32.55,40.89c0-0.5,0-1,0-1.5c0.07,0,0.15,0,0.22,0c0,0.5,0,1,0,1.5c0.09,0,0.19,0,0.28,0     c0,0.07,0,0.13,0,0.2c-0.26,0-0.52,0-0.78,0c0-0.07,0-0.13,0-0.2C32.37,40.89,32.46,40.89,32.55,40.89z"></path>				<path class="st9" d="M33.34,39.39c0.07,0,0.15,0,0.22,0c0,0.57,0,1.13,0,1.7c-0.17,0-0.33,0-0.5,0c0-0.07,0-0.13,0-0.2     c0.09,0,0.18,0,0.27,0C33.34,40.39,33.33,39.89,33.34,39.39z"></path>				<path class="st9" d="M34.73,39.44c0.07,0,0.13,0,0.2,0c0,0.08,0,0.16,0,0.23c-0.07,0-0.13,0-0.2,0     C34.73,39.6,34.73,39.52,34.73,39.44z"></path>				<g>					<path class="st9" d="M37.45,41.09c0-0.57,0-1.13,0-1.7c0.07,0,0.15,0,0.22,0c0,0.5,0,1,0,1.5c0.25-0.01,0.5,0.02,0.74-0.04      c-0.13-0.13-0.25-0.26-0.33-0.43c-0.05-0.12-0.05-0.25-0.05-0.38c0.23-0.12,0.5-0.21,0.76-0.15c0.15,0.03,0.29,0.08,0.43,0.15      c0.02,0.32-0.15,0.61-0.38,0.81c0.17,0.04,0.34,0.04,0.51,0.04c0,0.07,0,0.13,0,0.2c-0.24,0.01-0.49,0-0.72-0.1      C38.26,41.15,37.84,41.07,37.45,41.09z M38.26,40.15c0,0.19,0.1,0.37,0.25,0.5c0.04,0.03,0.09,0.09,0.15,0.07      c0.19-0.13,0.33-0.34,0.36-0.57C38.78,40.06,38.5,40.05,38.26,40.15z"></path>				</g>				<path class="st9" d="M39.63,40.89c0-0.5,0-1,0-1.5c0.07,0,0.15,0,0.22,0c0,0.57,0,1.13,0,1.7c-0.17,0-0.33,0-0.5,0     c0-0.07,0-0.13,0-0.2C39.45,40.89,39.54,40.89,39.63,40.89z"></path>				<path class="st9" d="M40.26,41.09c0-0.57,0-1.13,0-1.7c0.07,0,0.15,0,0.22,0c0,0.57,0,1.13,0,1.7     C40.41,41.09,40.34,41.09,40.26,41.09z"></path>				<g>					<path class="st9" d="M49.89,39.39c0.07,0,0.15,0,0.22,0c0,0.57,0,1.13,0,1.7c-0.25-0.02-0.54,0.07-0.77-0.08      c0,0.02,0.01,0.06,0.01,0.08c-0.46,0-0.91,0-1.37,0c0-0.07,0-0.13,0-0.2c0.11,0,0.23,0,0.35,0c-0.02-0.32-0.03-0.64,0.04-0.95      c0.27-0.08,0.59-0.13,0.83,0.05c0.21,0.22,0.14,0.55,0.16,0.83c0.16,0.1,0.36,0.06,0.54,0.06      C49.88,40.39,49.89,39.89,49.89,39.39z M48.55,40.09c-0.04,0.27-0.04,0.54,0,0.8c0.19,0,0.38,0,0.57,0      c-0.01-0.22,0.03-0.45-0.04-0.66C48.97,40.04,48.73,40.08,48.55,40.09z"></path>				</g>				<path class="st9" d="M50.51,39.39c0.08,0,0.15,0,0.23,0c0,0.57,0,1.13,0,1.7c-0.08,0-0.15,0-0.23,0     C50.51,40.52,50.51,39.96,50.51,39.39z"></path>				<g>					<path class="st9" d="M12.62,39.86c0.3-0.09,0.63-0.15,0.93-0.02c0.17,0.07,0.3,0.22,0.36,0.39c0.06,0.21,0.05,0.44,0.05,0.66      c0.07,0,0.14,0,0.21,0c0,0.07,0,0.13,0,0.2c-1.04,0-2.08,0-3.12,0c-0.02,0.18-0.05,0.38-0.2,0.49      c-0.21,0.16-0.48,0.09-0.72,0.1c-0.26,0.01-0.56,0-0.75-0.21c-0.21-0.23-0.09-0.57-0.07-0.84c0.07,0.01,0.14,0.03,0.21,0.04      c-0.01,0.2-0.09,0.43,0,0.62c0.11,0.19,0.36,0.2,0.56,0.19c0.18-0.01,0.38,0.02,0.55-0.03c0.14-0.06,0.17-0.22,0.18-0.36      c-0.12-0.01-0.25-0.04-0.36-0.07c0.03-0.06,0.06-0.12,0.09-0.18c0.36,0.09,0.74,0.02,1.11,0.04c0-0.33,0-0.66,0-0.99      c0.07,0,0.15,0,0.22,0c0,0.33,0,0.66,0,0.99c0.22,0,0.45,0,0.67,0c0.01-0.15,0-0.32,0.11-0.44c0.14-0.18,0.43-0.22,0.6-0.07      c0.16,0.12,0.18,0.32,0.18,0.5c0.1,0,0.2,0,0.29,0c-0.01-0.27,0.06-0.61-0.19-0.79c-0.27-0.2-0.62-0.12-0.92-0.06      C12.62,39.98,12.62,39.92,12.62,39.86z M12.89,40.52c-0.14,0.07-0.1,0.24-0.11,0.37c0.15,0,0.29,0,0.44,0      c-0.01-0.11,0.01-0.23-0.06-0.32C13.1,40.48,12.98,40.49,12.89,40.52z"></path>				</g>				<g>					<path class="st9" d="M17.64,40.23c0.01-0.17,0.14-0.33,0.32-0.37c0.21-0.04,0.43,0,0.64,0.03c0,0.39,0.01,0.78,0,1.17      c-0.02,0.19-0.03,0.4-0.18,0.54c-0.18,0.14-0.42,0.07-0.63,0.03c0-0.06,0-0.13,0-0.19c0.17,0.01,0.35,0.08,0.51-0.01      c0.07-0.1,0.07-0.23,0.08-0.35c-0.22-0.02-0.52,0.07-0.67-0.15C17.59,40.73,17.61,40.47,17.64,40.23z M17.9,40.18      c-0.1,0.2-0.07,0.45,0.01,0.65c0.15,0.07,0.31,0.07,0.47,0.06c0-0.28,0-0.55-0.01-0.83C18.21,40.06,18,40.01,17.9,40.18z"></path>				</g>				<path class="st9" d="M30.26,39.87c0.22-0.03,0.49-0.05,0.66,0.13c0.23,0.23,0.21,0.59,0.2,0.89c0.19,0,0.38,0,0.58,0     c0-0.33,0-0.66,0-0.99c0.07,0,0.15,0,0.22,0c0,0.33,0,0.66,0,0.99c0.12,0,0.23,0,0.35,0c0,0.07,0,0.13,0,0.2     c-0.71,0-1.41,0-2.11,0c0-0.07,0-0.13,0-0.2c0.25,0,0.5,0,0.75,0c-0.01-0.25,0.04-0.56-0.18-0.75c-0.12-0.12-0.3-0.08-0.46-0.09     C30.27,39.99,30.26,39.93,30.26,39.87z"></path>				<g>					<path class="st9" d="M34.42,40.14c0.04-0.16,0.21-0.24,0.36-0.26c0.23-0.03,0.46,0,0.7,0.02c0,0.33,0,0.66,0,0.99      c0.21,0,0.42,0,0.62,0c-0.03-0.32-0.04-0.64,0.04-0.95c0.22-0.06,0.46-0.11,0.68-0.02c0.13,0.04,0.24,0.15,0.26,0.29      c0.06,0.29,0.03,0.59,0.04,0.89c-0.72,0-1.45,0-2.17,0c-0.19,0-0.41-0.03-0.51-0.21C34.34,40.64,34.35,40.38,34.42,40.14z       M34.64,40.19c-0.05,0.2-0.09,0.43,0.03,0.61c0.16,0.13,0.39,0.08,0.58,0.09c0-0.27,0-0.54,0-0.8      C35.04,40.09,34.81,40.03,34.64,40.19z M36.32,40.09c-0.04,0.27-0.04,0.54-0.01,0.8c0.19,0,0.38,0,0.58,0      c-0.01-0.22,0.04-0.46-0.06-0.68C36.73,40.04,36.5,40.08,36.32,40.09z"></path>				</g>				<g>					<path class="st9" d="M41.35,40.13c0.05-0.16,0.23-0.24,0.38-0.25c0.22-0.02,0.44,0.01,0.66,0.02c0,0.33,0,0.66,0,0.99      c0.21,0,0.42,0,0.63,0c0-0.29,0-0.58,0-0.87c0.07,0,0.14,0,0.22,0c0,0.29,0,0.58,0,0.87c0.11,0,0.22,0,0.33-0.05      c0.11-0.26,0.05-0.55,0.07-0.83c0.07,0,0.14,0,0.22,0c0,0.27,0.02,0.55-0.03,0.82c0.13,0.06,0.26,0.06,0.4,0.05      c0.01-0.33,0-0.66-0.04-0.98c0.05,0,0.14-0.01,0.18-0.01c0.09,0.32,0.08,0.66,0.08,0.99c0.19,0,0.38,0,0.58,0      c0-0.29,0-0.58,0-0.87c0.07,0,0.15,0,0.22,0c0,0.29,0,0.58,0,0.87c0.13,0,0.32,0.03,0.36-0.14c0.07-0.24,0.02-0.49,0.03-0.74      c0.07,0,0.14,0,0.22,0c0,0.27,0.02,0.55-0.03,0.82c0.12,0.06,0.26,0.06,0.39,0.05c0-0.33,0-0.66-0.04-0.98      c0.06,0,0.12-0.01,0.18-0.01c0.11,0.39,0.07,0.79,0.07,1.19c-0.24-0.01-0.49,0.04-0.71-0.08c-0.07,0.04-0.15,0.08-0.23,0.08      c-0.4,0-0.8,0-1.19,0c-0.19,0-0.4,0.03-0.57-0.08c-0.08,0.05-0.17,0.09-0.27,0.08c-0.54,0-1.08,0-1.61,0      c-0.18,0-0.4-0.02-0.49-0.2C41.27,40.65,41.27,40.37,41.35,40.13z M41.59,40.18c-0.12,0.2-0.09,0.45,0.02,0.65      c0.18,0.07,0.38,0.07,0.57,0.06c0-0.27,0-0.53,0-0.8C41.98,40.09,41.74,40.02,41.59,40.18z"></path>				</g>				<g>					<path class="st9" d="M46.94,39.9c0.23-0.09,0.49-0.03,0.73,0c0,0.33,0,0.66,0,0.99c0.1,0,0.2,0,0.3,0c0,0.07,0,0.13,0,0.2      c-0.1,0-0.2,0-0.3,0c-0.03,0.18-0.04,0.38-0.18,0.51c-0.18,0.14-0.42,0.07-0.63,0.04c0-0.06,0-0.13,0-0.19      c0.16,0.01,0.33,0.08,0.48,0.01c0.12-0.08,0.09-0.24,0.1-0.36c-0.2-0.01-0.42,0.04-0.6-0.08c-0.15-0.16-0.17-0.4-0.16-0.61      C46.7,40.22,46.74,39.98,46.94,39.9z M46.99,40.15c-0.13,0.21-0.1,0.47,0,0.68c0.14,0.07,0.3,0.06,0.45,0.06      c0-0.28,0-0.55,0-0.83C47.29,40.06,47.1,40.02,46.99,40.15z"></path>				</g>				<g>					<path class="st9" d="M21.74,39.9c0.07,0,0.14,0,0.22,0c0,0.33,0,0.66,0,0.99c0.21,0,0.43,0,0.64,0      c-0.05-0.23-0.08-0.48-0.01-0.7c0.03-0.11,0.12-0.21,0.23-0.25c0.23-0.06,0.47-0.03,0.71-0.01c0,0.32,0,0.64,0,0.96      c0.07,0,0.14,0,0.21,0c0,0.07,0,0.13,0,0.2c-0.87,0-1.75,0-2.62,0c-0.02,0.15-0.02,0.32-0.13,0.44      c-0.14,0.17-0.38,0.17-0.58,0.17c-0.25-0.01-0.52,0.03-0.76-0.08c-0.18-0.08-0.32-0.26-0.31-0.46c0-0.17,0.04-0.34,0.07-0.51      c0.07,0.01,0.14,0.03,0.2,0.04c-0.02,0.17-0.06,0.34-0.04,0.51c0.04,0.19,0.24,0.31,0.43,0.3c0.23,0,0.47,0.02,0.7-0.02      c0.16-0.04,0.2-0.22,0.21-0.37c-0.12-0.01-0.25-0.04-0.37-0.07c0.03-0.06,0.07-0.12,0.1-0.17c0.36,0.08,0.74,0.02,1.11,0.04      C21.74,40.56,21.74,40.23,21.74,39.9z M22.83,40.18c-0.09,0.23-0.09,0.48,0,0.71c0.16,0,0.32,0,0.47,0c0-0.26,0-0.53,0-0.79      C23.14,40.09,22.97,40.08,22.83,40.18z"></path>				</g>				<path class="st9" d="M24.08,39.9c0.07,0,0.15,0,0.22,0c0,0.33,0,0.66,0,0.99c0.11,0,0.23,0,0.34,0c0,0.07,0,0.13,0,0.2     c-0.3,0-0.6,0-0.91,0c0-0.07,0-0.13,0-0.2c0.11,0,0.23,0,0.35,0C24.08,40.56,24.08,40.23,24.08,39.9z"></path>				<path class="st9" d="M27.94,39.9c0.07,0,0.15,0,0.22,0c0,0.33,0,0.66,0,0.99c0.11,0,0.22,0,0.34,0c0,0.07,0,0.13,0,0.2     c-0.43,0-0.86,0-1.3,0c-0.18-0.01-0.4-0.01-0.51-0.18c-0.11-0.22-0.03-0.46,0-0.69c0-0.1,0.13-0.04,0.19-0.06     c-0.01,0.19-0.08,0.37-0.04,0.56c0.04,0.13,0.19,0.15,0.3,0.16c0.26,0.01,0.53,0,0.79,0.01C27.94,40.56,27.94,40.23,27.94,39.9z     "></path>				<path class="st9" d="M28.86,39.9c0.07,0,0.15,0,0.22,0c0,0.4,0,0.79,0,1.19c-0.19,0-0.38,0-0.57,0c0-0.07,0-0.13,0-0.2     c0.12,0,0.23,0,0.35,0C28.85,40.56,28.85,40.23,28.86,39.9z"></path>				<path class="st9" d="M29.69,39.9c0.07,0,0.14,0,0.21,0c0,0.43,0,0.86,0,1.29c-0.01,0.17-0.06,0.38-0.23,0.46     c-0.1,0.06-0.22,0.03-0.33,0.03c0-0.06,0-0.12,0-0.18c0.1-0.02,0.24,0,0.3-0.11c0.06-0.12,0.05-0.27,0.05-0.4     C29.69,40.62,29.69,40.26,29.69,39.9z"></path>				<path class="st9" d="M29.03,41.28c0.06,0,0.13,0,0.19,0c0,0.07,0,0.15,0,0.22c-0.06,0-0.13,0-0.19,0     C29.02,41.43,29.02,41.36,29.03,41.28z"></path>				<path class="st9" d="M9.9,41.85c0.06,0,0.13,0,0.19,0c0,0.08,0,0.16,0,0.23c-0.06,0-0.13,0-0.19,0     C9.9,42.01,9.9,41.93,9.9,41.85z"></path>				<path class="st9" d="M10.21,41.85c0.06,0,0.13,0,0.19,0c0,0.08,0,0.15,0,0.23c-0.06,0-0.13,0-0.19,0     C10.21,42.01,10.21,41.93,10.21,41.85z"></path>			</g>			<g>				<path class="st10" d="M21.74,39.44c0.07,0,0.14,0,0.21,0c0,0.08,0,0.16,0,0.23c-0.07,0-0.14,0-0.21,0     C21.74,39.59,21.74,39.52,21.74,39.44z"></path>				<path class="st10" d="M31.87,39.44c0.07,0,0.13,0,0.2,0c0,0.08,0,0.15,0,0.23c-0.07,0-0.13,0-0.2,0     C31.87,39.6,31.87,39.52,31.87,39.44z"></path>				<path class="st10" d="M41.66,39.44c0.06,0,0.13,0,0.2,0c0,0.08,0,0.15,0,0.23c-0.07,0-0.13,0-0.19,0     C41.66,39.6,41.66,39.52,41.66,39.44z"></path>				<path class="st10" d="M11.67,39.44c0.07,0,0.14,0,0.21,0c0,0.08,0,0.16,0,0.23c-0.07,0-0.14,0-0.21,0     C11.66,39.59,11.66,39.52,11.67,39.44z"></path>				<path class="st10" d="M23.12,39.67c0-0.08,0-0.15,0-0.23c0.06,0,0.13,0,0.19,0c0,0.08,0,0.15,0,0.23     C23.24,39.67,23.18,39.67,23.12,39.67z"></path>				<path class="st10" d="M31.56,39.68c0-0.08,0-0.16,0-0.23c0.07,0,0.14,0,0.2,0c0,0.08,0,0.15,0,0.23     C31.69,39.67,31.62,39.67,31.56,39.68z"></path>				<path class="st10" d="M41.97,39.67c0-0.08,0-0.15,0-0.23c0.06,0,0.13,0,0.19,0c0,0.08,0,0.15,0,0.23     C42.1,39.67,42.03,39.67,41.97,39.67z"></path>				<path class="st10" d="M27.34,41.29c0.07,0,0.14,0,0.21,0c0,0.08,0,0.15,0,0.23c-0.07,0-0.14,0-0.21,0     C27.34,41.44,27.34,41.36,27.34,41.29z"></path>				<path class="st10" d="M19.97,41.85c0.07,0,0.14,0,0.2,0c0,0.08,0,0.16,0,0.23c-0.07,0-0.13,0-0.2,0     C19.97,42.01,19.97,41.93,19.97,41.85z"></path>			</g>			<g>				<path class="st0" d="M12.89,40.52c0.09-0.03,0.21-0.03,0.26,0.05c0.08,0.09,0.06,0.21,0.06,0.32c-0.15,0-0.29,0-0.44,0     C12.79,40.76,12.75,40.59,12.89,40.52z"></path>			</g>			<g>				<path class="st11" d="M14.8,42.5c0.06,0,0.12,0,0.18,0c0,0.07,0,0.14,0,0.21c-0.06,0-0.12,0-0.18,0     C14.8,42.64,14.8,42.57,14.8,42.5z"></path>				<g>					<path class="st11" d="M21.3,42.46c0.06,0,0.12,0,0.17,0c0,0.55,0,1.11,0,1.66c-0.06,0-0.12,0-0.17,0c0-0.02,0-0.05,0-0.07      c-0.17,0.08-0.37,0.14-0.55,0.05c-0.15-0.09-0.19-0.27-0.2-0.43c-0.01-0.2,0-0.43,0.12-0.6c0.16-0.18,0.42-0.14,0.63-0.11      C21.3,42.8,21.3,42.63,21.3,42.46z M20.81,43.18c-0.09,0.12-0.09,0.28-0.09,0.42c0.01,0.14,0.01,0.32,0.16,0.39      c0.14,0.05,0.28-0.02,0.41-0.07c0-0.27,0-0.53,0-0.8C21.14,43.11,20.94,43.05,20.81,43.18z"></path>				</g>				<path class="st11" d="M27.47,42.5c0.06,0,0.11,0,0.17,0c0,0.07,0,0.14,0,0.21c-0.06,0-0.11,0-0.17,0     C27.47,42.64,27.47,42.57,27.47,42.5z"></path>				<path class="st11" d="M48.21,44.13c0-0.39,0-0.78,0-1.17c0.04,0,0.12,0,0.17,0.01c0,0.39,0,0.77,0,1.16     C48.32,44.13,48.27,44.13,48.21,44.13z"></path>			</g>			<g>				<path class="st12" d="M24.83,42.97c0.17-0.05,0.35-0.02,0.53,0c0,0.05,0,0.1,0,0.15c-0.18-0.02-0.37-0.04-0.54,0.05     c-0.08,0.23-0.11,0.5,0,0.73c0.14,0.15,0.36,0.08,0.53,0.07c0,0.05,0,0.1,0,0.15c-0.2,0.02-0.45,0.08-0.62-0.06     c-0.17-0.15-0.14-0.39-0.15-0.59C24.59,43.28,24.64,43.05,24.83,42.97z"></path>				<g>					<path class="st12" d="M46.34,43c0.16-0.05,0.33-0.06,0.5-0.05c0.12,0.01,0.25,0.07,0.27,0.2c0.05,0.26,0,0.52,0.03,0.78      c0.06,0.07,0.14,0.13,0.13,0.24c-0.1-0.02-0.2-0.05-0.29-0.1c-0.15,0.05-0.31,0.1-0.48,0.08c-0.28-0.05-0.32-0.5-0.09-0.64      c0.18-0.07,0.38-0.06,0.57-0.09c-0.02-0.1,0-0.25-0.11-0.3c-0.18-0.04-0.37,0.01-0.55,0.01C46.32,43.09,46.33,43.03,46.34,43z       M46.44,43.66c0,0.09,0,0.18,0,0.27c0.16,0.12,0.35,0.05,0.52,0c0-0.13,0-0.25,0-0.38C46.79,43.57,46.59,43.55,46.44,43.66z"></path>				</g>			</g>			<path class="st1" d="M36.86,42.5c0.06,0,0.11,0,0.17,0c0,0.07,0,0.14,0,0.2c-0.06,0-0.11,0-0.17,0    C36.86,42.64,36.86,42.57,36.86,42.5z"></path>			<path class="st1" d="M48.21,42.5c0.06,0,0.11,0,0.17,0c0,0.07,0,0.14,0,0.2c-0.06,0-0.11,0-0.17,0    C48.21,42.64,48.21,42.57,48.21,42.5z"></path>			<g>				<path class="st13" d="M28.71,41.28c0.07,0,0.13,0,0.2,0c0,0.07,0,0.15,0,0.22c-0.07,0-0.14,0-0.2,0     C28.71,41.43,28.71,41.36,28.71,41.28z"></path>			</g>		</g>	</g></g></svg>