<svg xmlns="http://www.w3.org/2000/svg" xmlns:xlink="http://www.w3.org/1999/xlink" x="0px" y="0px" viewBox="0 0 60 60" style="enable-background:new 0 0 60 60;" xml:space="preserve"><style type="text/css">	.st0{fill:#FFFFFF;}	.st1{fill:#13592A;}	.st2{clip-path:url(#SVGID_2_);fill:url(#SVGID_3_);}	.st3{clip-path:url(#SVGID_5_);fill:url(#SVGID_6_);}	.st4{clip-path:url(#SVGID_8_);fill:url(#SVGID_9_);}	.st5{clip-path:url(#SVGID_11_);fill:url(#SVGID_12_);}	.st6{clip-path:url(#SVGID_14_);fill:url(#SVGID_15_);}	.st7{clip-path:url(#SVGID_17_);fill:url(#SVGID_18_);}	.st8{clip-path:url(#SVGID_20_);fill:url(#SVGID_21_);}	.st9{clip-path:url(#SVGID_23_);fill:url(#SVGID_24_);}	.st10{fill:#BE8D15;}</style><g id="Layer_4">	<circle class="st0" cx="30" cy="30" r="27.42"></circle></g><g id="Layer_16">	<g>		<g>			<path class="st1" d="M49.46,20.91c-3.22-1.2-4.33-2.61-4.33-2.61s-1.11,1.42-4.34,2.61c-2.3,0.86-4.52,2.36-4.52,6.53V30l0,0    v2.55c0,4.18,2.21,5.68,4.52,6.53c3.22,1.2,4.34,2.61,4.34,2.61s1.11-1.42,4.33-2.61c2.3-0.86,4.52-2.36,4.52-6.53V30l0,0v-2.55    C53.99,23.26,51.77,21.77,49.46,20.91"></path>			<path class="st1" d="M12.02,22.2c0.19,0,0.35-0.06,0.48-0.18c0.12-0.12,0.18-0.28,0.18-0.46c0-0.19-0.06-0.35-0.18-0.48    c-0.13-0.12-0.29-0.18-0.48-0.18c-0.18,0-0.33,0.06-0.45,0.18c-0.12,0.13-0.18,0.29-0.18,0.48c0,0.18,0.06,0.33,0.18,0.46    C11.7,22.14,11.85,22.2,12.02,22.2"></path>			<path class="st1" d="M21.09,22.2c0.19,0,0.35-0.06,0.48-0.18c0.12-0.12,0.18-0.28,0.18-0.46c0-0.19-0.06-0.35-0.18-0.48    c-0.13-0.12-0.29-0.18-0.48-0.18c-0.18,0-0.33,0.06-0.45,0.18c-0.12,0.13-0.18,0.29-0.18,0.48c0,0.18,0.06,0.33,0.18,0.46    C20.76,22.14,20.92,22.2,21.09,22.2"></path>			<path class="st1" d="M22.48,22.2c0.19,0,0.35-0.06,0.48-0.18c0.12-0.12,0.18-0.28,0.18-0.46c0-0.19-0.06-0.35-0.18-0.48    c-0.13-0.12-0.29-0.18-0.48-0.18c-0.18,0-0.33,0.06-0.45,0.18c-0.12,0.13-0.18,0.29-0.18,0.48c0,0.18,0.06,0.33,0.18,0.46    C22.15,22.14,22.3,22.2,22.48,22.2"></path>			<path class="st1" d="M30.37,23.52c-0.17,0.11-0.75,0.4-2.38,0.75c-0.63,0.14-1.17,0.4-1.61,0.84c-0.56,0.56-0.84,1.28-0.84,2.17    v2.69c0,0.03,0.02,0.05,0.05,0.05h3.53c0,0.71-0.58,1.29-1.29,1.29h-2.15c-0.02,0-0.04,0.03-0.03,0.05l0.49,1.2    c0.01,0.04,0.05,0.06,0.1,0.06h1.6c1.43,0,2.59-1.16,2.59-2.59v-6.45C30.43,23.52,30.4,23.49,30.37,23.52 M29.12,28.7h-2.27    v-1.41c0-0.56,0.18-1,0.53-1.3c0.1-0.08,0.21-0.16,0.36-0.24c0.2-0.1,0.42-0.17,0.64-0.22l0.74-0.15V28.7z"></path>			<path class="st1" d="M24.18,23.52c-0.17,0.11-0.75,0.4-2.38,0.75c-0.63,0.14-1.17,0.4-1.61,0.84c-0.56,0.56-0.84,1.28-0.84,2.17    v1.43h-2.27v-7.75c0-0.02-0.02-0.04-0.05-0.03l-1.23,0.45c-0.01,0.01-0.02,0.02-0.02,0.03v8.56c0,0.02,0.02,0.04,0.04,0.04h3.58    h3.53h1.26c0.02,0,0.04-0.02,0.04-0.04v-0.26v-6.15C24.24,23.52,24.2,23.49,24.18,23.52 M22.93,28.7h-2.27v-1.41    c0-0.56,0.18-1,0.53-1.3c0.1-0.08,0.21-0.16,0.36-0.24c0.2-0.1,0.42-0.17,0.64-0.22l0.73-0.16L22.93,28.7L22.93,28.7z"></path>			<path class="st1" d="M14.41,23.52c-0.17,0.11-0.75,0.4-2.38,0.75c-0.63,0.14-1.17,0.4-1.61,0.84c-0.56,0.56-0.84,1.28-0.84,2.17    v1.43H8.64H8.45c-0.23-0.03-0.44-0.12-0.63-0.26c-0.32-0.26-0.48-0.65-0.48-1.17v-2.42c0-0.02-0.02-0.03-0.04-0.03l-1.26,0.35    c-0.01,0.01-0.02,0.01-0.02,0.03v2.3c0,0.81,0.26,1.45,0.78,1.91c0.39,0.35,0.84,0.56,1.34,0.6h0.41h3.18h2.72    c0.02,0,0.04-0.02,0.04-0.04v-6.41C14.48,23.52,14.44,23.49,14.41,23.52 M13.17,28.7H11h-0.1v-1.41c0-0.56,0.18-1,0.53-1.3    c0.1-0.08,0.21-0.16,0.36-0.24c0.2-0.1,0.42-0.17,0.64-0.22l0.73-0.16L13.17,28.7L13.17,28.7z"></path>			<path class="st1" d="M32.98,21.21l-1.23,0.45c-0.01,0.01-0.02,0.02-0.02,0.03v8.26c0,0.02,0.02,0.04,0.04,0.04H33    c0.02,0,0.04-0.02,0.04-0.04v-8.71C33.03,21.22,33,21.21,32.98,21.21"></path>			<path class="st1" d="M31.77,21.26l1.24-0.48c0.01-0.01,0.02-0.01,0.02-0.03v-0.49c0-0.02-0.02-0.03-0.03-0.03l-1.24,0.48    c-0.01,0.01-0.02,0.01-0.02,0.03v0.49C31.73,21.25,31.75,21.27,31.77,21.26"></path>			<path class="st1" d="M33.03,19.12v0.5c0,0.02-0.01,0.04-0.03,0.05c-0.07,0.05-0.29,0.18-0.47,0.24    c-0.44,0.12-0.35,0.63-0.06,0.54c0.29-0.09-0.5,0.56-0.5,0.54c0.01-0.01,0.03-0.23,0.03-0.23s-0.28-0.19-0.28-0.49    c0-0.3,0.16-0.62,0.72-0.81c0.35-0.12,0.5-0.27,0.55-0.35C33.01,19.1,33.03,19.11,33.03,19.12"></path>		</g>		<g>			<g>				<defs>					<path id="SVGID_1_" d="M41.42,37.39c-2.06-0.77-3.34-1.85-3.34-4.84V30v-2.55c0-3,1.28-4.08,3.34-4.84      c1.43-0.53,2.7-1.19,3.71-1.91c1.01,0.73,2.28,1.39,3.71,1.91c2.06,0.77,3.34,1.85,3.34,4.84V30v2.55c0,3-1.28,4.07-3.34,4.84      c-1.43,0.53-2.7,1.19-3.71,1.91C44.12,38.58,42.84,37.92,41.42,37.39 M41.28,22.2c-2.17,0.81-3.62,2.01-3.62,5.25v5.11      c0,3.24,1.45,4.44,3.62,5.25c1.85,0.69,3.08,1.45,3.86,2.04c0.77-0.6,2.01-1.36,3.86-2.04c2.16-0.8,3.61-2,3.62-5.19V27.4      c-0.01-3.2-1.46-4.39-3.62-5.19c-1.85-0.69-3.08-1.45-3.86-2.04C44.35,20.75,43.12,21.52,41.28,22.2"></path>				</defs>				<clipPath id="SVGID_2_">					<use xlink:href="#SVGID_1_" style="overflow:visible;"></use>				</clipPath>									<linearGradient id="SVGID_3_" gradientUnits="userSpaceOnUse" x1="-12.2073" y1="-648.5168" x2="-11.9259" y2="-648.5168" gradientTransform="matrix(0 83.3848 83.3848 0 54121.5742 1036.275)">					<stop offset="0" style="stop-color:#C3931D"></stop>					<stop offset="0.0801" style="stop-color:#CA9E31"></stop>					<stop offset="0.2445" style="stop-color:#DABA65"></stop>					<stop offset="0.4771" style="stop-color:#F5E6B8"></stop>					<stop offset="0.5" style="stop-color:#F8EBC1"></stop>					<stop offset="0.6117" style="stop-color:#E9D395"></stop>					<stop offset="0.7973" style="stop-color:#D1AD50"></stop>					<stop offset="0.9316" style="stop-color:#C39625"></stop>					<stop offset="1" style="stop-color:#BD8D15"></stop>				</linearGradient>				<rect x="37.65" y="20.15" class="st2" width="14.96" height="19.69"></rect>			</g>		</g>		<g>			<g>				<defs>					<path id="SVGID_4_" d="M45.13,22.98L45.13,22.98c-0.01,0-0.01,0-0.01,0.01c-0.01,0.01-0.02,0.03-0.03,0.04      c-0.08,0.16-0.15,0.32-0.18,0.5c0,0.01-0.02,0.02-0.03,0.01c-0.23-0.15-0.52-0.24-0.82-0.24c-0.3,0-0.57,0.08-0.8,0.21      c-0.01,0.01-0.01,0.03,0.01,0.03c0.34,0.02,0.66,0.13,0.92,0.31c0.01,0.01,0.01,0.03-0.01,0.03c-0.06-0.01-0.12-0.01-0.18-0.01      c-0.93-0.01-1.72,0.52-2,1.22c-0.01,0.01,0.01,0.03,0.03,0.02c0.48-0.39,1.14-0.64,1.87-0.62l0,0c0.02,0,0.03,0.03,0.01,0.03      c-0.98,0.2-1.76,0.85-1.96,1.68c-0.01,0.01,0.02,0.03,0.03,0.01c0.4-0.39,0.93-0.7,1.54-0.89c0.02-0.01,0.03,0.01,0.02,0.03      c-0.6,0.56-0.98,1.27-0.99,2.11c0,0.03,0,0.06,0,0.09c0,0.02,0.03,0.03,0.03,0.01c0.24-0.5,0.62-0.93,1.08-1.3      c0.01-0.01,0.03,0,0.03,0.02c-0.14,0.37-0.21,0.76-0.22,1.17c-0.01,0.34,0.04,0.67,0.13,1c0.01,0.02,0.03,0.02,0.04,0      c0.14-0.65,0.42-1.26,0.83-1.79c0.01-0.01,0.04-0.01,0.03,0.01c-0.07,0.26-0.1,0.52-0.11,0.79c0,0.48,0.1,0.93,0.29,1.35      c0.01,0.02,0.03,0.01,0.03-0.01c0.01-0.17,0.04-0.33,0.07-0.5c0.02,0.29,0.03,0.58,0.05,0.86c0,0.01,0,0.01-0.01,0.01l0,0l0,0      c-0.03,0-0.05,0-0.09,0c-0.01,0-0.01,0.01-0.01,0.01c0.02,0.29,0.04,0.58,0.07,0.87c0,0.01,0,0.01-0.01,0.01h-0.01      c0,0,0,0-0.01,0c-0.03,0-0.05,0-0.09,0c-0.01,0-0.01,0.01-0.01,0.01c0.03,0.29,0.05,0.58,0.07,0.87v0.01c-0.01,0-0.03,0-0.05,0      h-0.01c-0.03,0-0.05,0-0.08,0c-0.01,0-0.01,0.01-0.01,0.01c0.03,0.29,0.06,0.58,0.1,0.87v0.01c-0.01,0-0.03,0-0.05,0h-0.01      c-0.03,0-0.05,0-0.08,0c-0.01,0-0.01,0.01-0.01,0.01c0.03,0.29,0.11,0.85,0.11,0.85l0.48,0.37l0.48-0.34      c0,0,0.07-0.58,0.11-0.88c0-0.01,0-0.01-0.01-0.01c-0.03,0-0.05,0-0.08,0c0,0,0,0-0.01,0c-0.02,0-0.03,0-0.05,0v-0.01      c0.03-0.29,0.06-0.58,0.1-0.88c0-0.01-0.01-0.01-0.01-0.01c-0.03,0-0.05,0-0.08,0c0,0,0,0-0.01,0c-0.01,0-0.03,0-0.05,0v-0.01      c0.03-0.29,0.05-0.58,0.07-0.88c0-0.01,0-0.01-0.01-0.01c-0.03,0-0.05,0-0.09,0l0,0c-0.01,0-0.01,0-0.02,0h-0.01      c0.02-0.29,0.04-0.58,0.07-0.88c0-0.01,0-0.01-0.01-0.01c-0.03,0-0.05,0-0.09,0l0,0h-0.01l-0.01-0.01      c0.02-0.29,0.03-0.58,0.05-0.86c0.04,0.16,0.06,0.33,0.07,0.5c0,0.02,0.03,0.02,0.03,0.01c0.19-0.42,0.3-0.88,0.29-1.35      c0-0.27-0.04-0.54-0.11-0.79c-0.01-0.02,0.02-0.03,0.03-0.01c0.41,0.54,0.69,1.13,0.83,1.79c0.01,0.02,0.03,0.02,0.04,0      c0.09-0.33,0.14-0.66,0.13-1c-0.01-0.41-0.08-0.81-0.22-1.17c-0.01-0.01,0.01-0.03,0.03-0.02c0.46,0.37,0.84,0.81,1.08,1.3      c0.01,0.01,0.03,0.01,0.03-0.01c0-0.03,0-0.06,0-0.09c-0.01-0.83-0.39-1.55-0.98-2.11c-0.01-0.01,0-0.03,0.02-0.03      c0.6,0.19,1.14,0.5,1.54,0.89c0.01,0.01,0.03,0,0.03-0.01c-0.2-0.84-0.98-1.49-1.96-1.68c-0.02-0.01-0.02-0.03,0.01-0.03l0,0      c0.73-0.01,1.4,0.24,1.87,0.62c0.01,0.01,0.04,0,0.03-0.02c-0.28-0.71-1.07-1.23-2-1.22c-0.06,0-0.12,0.01-0.18,0.01      c-0.02,0-0.03-0.02-0.01-0.03c0.26-0.18,0.57-0.29,0.92-0.31c0.02,0,0.03-0.02,0.01-0.03c-0.23-0.14-0.51-0.22-0.8-0.21      c-0.31,0-0.59,0.09-0.82,0.24c-0.01,0.01-0.03,0-0.03-0.01c-0.04-0.18-0.1-0.34-0.18-0.5c-0.01-0.01-0.01-0.03-0.03-0.04      C45.15,22.98,45.14,22.98,45.13,22.98L45.13,22.98z"></path>				</defs>				<clipPath id="SVGID_5_">					<use xlink:href="#SVGID_4_" style="overflow:visible;"></use>				</clipPath>									<linearGradient id="SVGID_6_" gradientUnits="userSpaceOnUse" x1="-12.2073" y1="-648.5167" x2="-11.9259" y2="-648.5167" gradientTransform="matrix(0 83.3848 83.3848 0 54121.5742 1036.275)">					<stop offset="0" style="stop-color:#C3931D"></stop>					<stop offset="0.0801" style="stop-color:#CA9E31"></stop>					<stop offset="0.2445" style="stop-color:#DABA65"></stop>					<stop offset="0.4771" style="stop-color:#F5E6B8"></stop>					<stop offset="0.5" style="stop-color:#F8EBC1"></stop>					<stop offset="0.6117" style="stop-color:#E9D395"></stop>					<stop offset="0.7973" style="stop-color:#D1AD50"></stop>					<stop offset="0.9316" style="stop-color:#C39625"></stop>					<stop offset="1" style="stop-color:#BD8D15"></stop>				</linearGradient>				<rect x="41.91" y="22.98" class="st3" width="6.44" height="10.11"></rect>			</g>		</g>		<g>			<g>				<defs>					<path id="SVGID_7_" d="M42.72,34.79c-0.48,0.2-0.79,0.25-0.96,0.26c-0.2,0.01-0.27-0.03-0.29-0.04      c-0.01-0.03-0.04-0.06-0.07-0.08c0,0-0.03-0.03-0.07-0.01c-0.01,0.01-0.03,0.01-0.05,0.03c-0.01,0.01-0.02,0.04-0.02,0.07      c0,0.03,0.01,0.05,0.03,0.07c0.01,0.01,0.03,0.02,0.04,0.03c0.01,0.01,0.03,0.02,0.05,0.03c0.03,0.01,0.07,0.03,0.12,0.03      c0.04,0.01,0.09,0.01,0.14,0.01s0.1,0,0.15,0c0.1-0.01,0.21-0.03,0.33-0.05c0.23-0.05,0.49-0.15,0.76-0.27      c0.1-0.04,0.2-0.09,0.3-0.14c-0.01-0.01-0.08-0.09-0.09-0.1C42.95,34.69,42.83,34.74,42.72,34.79"></path>				</defs>				<clipPath id="SVGID_8_">					<use xlink:href="#SVGID_7_" style="overflow:visible;"></use>				</clipPath>									<linearGradient id="SVGID_9_" gradientUnits="userSpaceOnUse" x1="-12.2073" y1="-648.4274" x2="-11.9259" y2="-648.4274" gradientTransform="matrix(0 83.3848 83.3848 0 54111.1992 1036.275)">					<stop offset="0" style="stop-color:#C3931D"></stop>					<stop offset="0.0801" style="stop-color:#CA9E31"></stop>					<stop offset="0.2445" style="stop-color:#DABA65"></stop>					<stop offset="0.4771" style="stop-color:#F5E6B8"></stop>					<stop offset="0.5" style="stop-color:#F8EBC1"></stop>					<stop offset="0.6117" style="stop-color:#E9D395"></stop>					<stop offset="0.7973" style="stop-color:#D1AD50"></stop>					<stop offset="0.9316" style="stop-color:#C39625"></stop>					<stop offset="1" style="stop-color:#BD8D15"></stop>				</linearGradient>				<rect x="41.26" y="34.63" class="st4" width="1.91" height="0.56"></rect>			</g>		</g>		<g>			<g>				<defs>					<path id="SVGID_10_" d="M42.91,34.96c-0.28,0.12-0.54,0.2-0.79,0.25c-0.06,0.01-0.12,0.02-0.18,0.03      c-0.05,0.01-0.12,0.01-0.16,0.01c-0.11,0-0.2-0.01-0.29-0.03c-0.04-0.01-0.08-0.03-0.12-0.05c-0.02-0.01-0.03-0.02-0.05-0.03      c-0.01-0.01-0.03-0.02-0.04-0.03c-0.01-0.01-0.02-0.03-0.03-0.05c-0.01-0.01-0.01-0.03-0.01-0.05c0-0.03,0.01-0.06,0.03-0.08      c0.01-0.02,0.03-0.03,0.05-0.03c0.01,0,0.03,0,0.03,0c-0.07-0.05-0.18-0.05-0.26-0.01c-0.27,0.12-0.19,0.42-0.16,0.5      c0.07,0.17,0.24,0.3,0.48,0.35c0.1,0.02,0.19,0.03,0.31,0.03c0.44,0,1.02-0.17,1.71-0.5c0.03-0.01,0.05-0.03,0.08-0.04l0,0      c0.01-0.01,0.08-0.04,0.08-0.04c-0.03-0.03-0.1-0.11-0.15-0.17c-0.06-0.07-0.15-0.17-0.19-0.2      C43.24,34.8,43.02,34.9,42.91,34.96"></path>				</defs>				<clipPath id="SVGID_11_">					<use xlink:href="#SVGID_10_" style="overflow:visible;"></use>				</clipPath>									<linearGradient id="SVGID_12_" gradientUnits="userSpaceOnUse" x1="-12.2073" y1="-648.4271" x2="-11.9259" y2="-648.4271" gradientTransform="matrix(0 83.3848 83.3848 0 54111.168 1036.275)">					<stop offset="0" style="stop-color:#C3931D"></stop>					<stop offset="0.0801" style="stop-color:#CA9E31"></stop>					<stop offset="0.2445" style="stop-color:#DABA65"></stop>					<stop offset="0.4771" style="stop-color:#F5E6B8"></stop>					<stop offset="0.5" style="stop-color:#F8EBC1"></stop>					<stop offset="0.6117" style="stop-color:#E9D395"></stop>					<stop offset="0.7973" style="stop-color:#D1AD50"></stop>					<stop offset="0.9316" style="stop-color:#C39625"></stop>					<stop offset="1" style="stop-color:#BD8D15"></stop>				</linearGradient>				<rect x="40.81" y="34.8" class="st5" width="2.77" height="0.95"></rect>			</g>		</g>		<g>			<g>				<defs>					<path id="SVGID_13_" d="M46.72,32.25c0.04-0.03,0.07-0.05,0.12-0.09c0.04-0.03,0.07-0.05,0.12-0.08      c0.04-0.03,0.07-0.05,0.12-0.08c0.07-0.05,0.15-0.11,0.23-0.16c0.16-0.11,0.31-0.21,0.46-0.31c0.16-0.1,0.31-0.2,0.46-0.29      c0.31-0.18,0.62-0.33,0.92-0.45c0.02-0.01,0.04-0.01,0.05-0.02c0.01,0,0.02-0.01,0.03-0.01c0.01,0,0.02-0.01,0.03-0.01      c0.02-0.01,0.04-0.01,0.05-0.02c0.02-0.01,0.04-0.01,0.05-0.02c0.01,0,0.02-0.01,0.03-0.01c0.01,0,0.02-0.01,0.03-0.01      c0.02-0.01,0.04-0.01,0.05-0.01c0.02-0.01,0.04-0.01,0.05-0.01c0.01,0,0.02-0.01,0.03-0.01l0.03-0.01      c0.02-0.01,0.04-0.01,0.05-0.01c0.02-0.01,0.03-0.01,0.05-0.01c0.01,0,0.02-0.01,0.03-0.01c0.01,0,0.02-0.01,0.03-0.01      c0.02-0.01,0.03-0.01,0.05-0.01c0.07-0.01,0.14-0.03,0.21-0.04c0.14-0.03,0.28-0.04,0.41-0.05c0.13-0.01,0.27-0.01,0.39-0.01      c0.12,0,0.24,0.01,0.34,0.03c-0.11-0.01-0.23-0.01-0.36-0.01c-0.12,0-0.24,0.01-0.37,0.02c-0.13,0.01-0.26,0.03-0.4,0.05      c-0.07,0.01-0.14,0.03-0.21,0.04c-0.02,0.01-0.03,0.01-0.05,0.01c-0.01,0-0.02,0.01-0.03,0.01c-0.01,0-0.02,0.01-0.03,0.01      c-0.02,0.01-0.03,0.01-0.05,0.01c-0.02,0.01-0.03,0.01-0.05,0.01c-0.01,0-0.02,0.01-0.03,0.01c-0.01,0-0.02,0.01-0.03,0.01      c-0.02,0.01-0.04,0.01-0.05,0.01c-0.02,0.01-0.04,0.01-0.05,0.01c-0.01,0-0.02,0.01-0.03,0.01c-0.01,0-0.02,0.01-0.03,0.01      c-0.02,0.01-0.03,0.01-0.05,0.02s-0.04,0.01-0.05,0.02c-0.01,0-0.02,0.01-0.03,0.01c-0.01,0-0.02,0.01-0.03,0.01      c-0.02,0.01-0.04,0.01-0.05,0.02c-0.98,0.33-2.17,1.26-2.53,1.51C46.65,32.31,46.69,32.28,46.72,32.25 M50.4,30.44      c-0.52,0.03-1.07,0.17-1.63,0.41c-0.69,0.29-1.34,0.75-2.12,1.33c-0.86,0.65-1.6,1.26-2.3,1.71c-0.34,0.22-0.66,0.41-0.96,0.56      c-0.36-0.39-0.3-0.65-0.3-0.65c-0.15-0.11-0.26-0.04-0.26-0.04c-0.22,0.18,0,0.44,0.28,0.72c0.02,0.02,0.16,0.16,0.16,0.16      c0.03,0.03,0.24,0.24,0.29,0.33c0.01,0.01,0.02,0.04,0.03,0.05c0.22,0.38-0.01,0.67-0.01,0.67c0.18,0.2,0.29,0.12,0.29,0.12      c0.2-0.12,0.17-0.44,0-0.75c0.92-0.5,2-1.26,3.23-2.27c0.29-0.24,0.58-0.45,0.87-0.65c0.54-0.39,1.07-0.69,1.59-0.92      c0.92-0.42,1.94-0.6,2.13-0.58c0.02,0,0.02-0.02,0.01-0.03c-0.01,0-0.01-0.01-0.01-0.01c-0.03-0.01-0.13-0.04-0.22-0.07      c-0.24-0.07-0.5-0.1-0.77-0.1C50.59,30.43,50.49,30.43,50.4,30.44"></path>				</defs>				<clipPath id="SVGID_14_">					<use xlink:href="#SVGID_13_" style="overflow:visible;"></use>				</clipPath>									<linearGradient id="SVGID_15_" gradientUnits="userSpaceOnUse" x1="-12.2073" y1="-648.5787" x2="-11.9259" y2="-648.5787" gradientTransform="matrix(0 83.3848 83.3848 0 54128.7695 1036.275)">					<stop offset="0" style="stop-color:#C3931D"></stop>					<stop offset="0.0801" style="stop-color:#CA9E31"></stop>					<stop offset="0.2445" style="stop-color:#DABA65"></stop>					<stop offset="0.4771" style="stop-color:#F5E6B8"></stop>					<stop offset="0.5" style="stop-color:#F8EBC1"></stop>					<stop offset="0.6117" style="stop-color:#E9D395"></stop>					<stop offset="0.7973" style="stop-color:#D1AD50"></stop>					<stop offset="0.9316" style="stop-color:#C39625"></stop>					<stop offset="1" style="stop-color:#BD8D15"></stop>				</linearGradient>				<rect x="42.61" y="30.43" class="st6" width="9.09" height="5.47"></rect>			</g>		</g>		<g>			<g>				<defs>					<path id="SVGID_16_" d="M47.1,34.73c0.1,0.05,0.2,0.1,0.3,0.14c0.27,0.12,0.53,0.21,0.76,0.27c0.12,0.03,0.23,0.05,0.33,0.05      c0.05,0,0.1,0.01,0.15,0c0.05,0,0.1-0.01,0.14-0.01c0.04-0.01,0.08-0.02,0.12-0.03c0.01-0.01,0.03-0.01,0.05-0.03      c0.01-0.01,0.03-0.02,0.04-0.03c0.02-0.02,0.03-0.05,0.03-0.07s-0.01-0.05-0.02-0.07c-0.01-0.02-0.03-0.03-0.05-0.03      c-0.04-0.01-0.07,0.01-0.07,0.01c-0.03,0.02-0.05,0.05-0.07,0.08c-0.02,0.01-0.1,0.05-0.29,0.04      c-0.18-0.01-0.48-0.06-0.96-0.26c-0.12-0.05-0.24-0.1-0.36-0.16C47.18,34.64,47.11,34.71,47.1,34.73"></path>				</defs>				<clipPath id="SVGID_17_">					<use xlink:href="#SVGID_16_" style="overflow:visible;"></use>				</clipPath>									<linearGradient id="SVGID_18_" gradientUnits="userSpaceOnUse" x1="-12.2073" y1="-648.6063" x2="-11.9259" y2="-648.6063" gradientTransform="matrix(0 83.3848 83.3848 0 54131.957 1036.275)">					<stop offset="0" style="stop-color:#C3931D"></stop>					<stop offset="0.0801" style="stop-color:#CA9E31"></stop>					<stop offset="0.2445" style="stop-color:#DABA65"></stop>					<stop offset="0.4771" style="stop-color:#F5E6B8"></stop>					<stop offset="0.5" style="stop-color:#F8EBC1"></stop>					<stop offset="0.6117" style="stop-color:#E9D395"></stop>					<stop offset="0.7973" style="stop-color:#D1AD50"></stop>					<stop offset="0.9316" style="stop-color:#C39625"></stop>					<stop offset="1" style="stop-color:#BD8D15"></stop>				</linearGradient>				<rect x="47.1" y="34.63" class="st7" width="1.91" height="0.56"></rect>			</g>		</g>		<g>			<g>				<defs>					<path id="SVGID_19_" d="M46.82,35c-0.06,0.06-0.12,0.14-0.15,0.17c0,0,0.07,0.03,0.09,0.04l0,0c0.03,0.01,0.05,0.03,0.08,0.04      c0.69,0.33,1.27,0.5,1.71,0.5c0.11,0,0.21-0.01,0.31-0.03c0.23-0.05,0.4-0.18,0.48-0.35c0.03-0.07,0.12-0.38-0.16-0.5      c-0.09-0.04-0.18-0.03-0.26,0.01c0.01,0,0.02,0,0.03,0c0.02,0.01,0.04,0.01,0.05,0.03c0.01,0.02,0.03,0.05,0.03,0.08      c0,0.01,0,0.03-0.01,0.05c-0.01,0.01-0.01,0.03-0.03,0.05c-0.01,0.01-0.03,0.03-0.04,0.03c-0.01,0.01-0.03,0.02-0.05,0.03      c-0.03,0.02-0.07,0.03-0.12,0.05c-0.09,0.02-0.19,0.03-0.29,0.03c-0.05,0-0.11-0.01-0.17-0.01c-0.05-0.01-0.12-0.01-0.18-0.03      c-0.24-0.05-0.51-0.14-0.79-0.25c-0.12-0.05-0.34-0.15-0.34-0.15C46.98,34.83,46.89,34.93,46.82,35"></path>				</defs>				<clipPath id="SVGID_20_">					<use xlink:href="#SVGID_19_" style="overflow:visible;"></use>				</clipPath>									<linearGradient id="SVGID_21_" gradientUnits="userSpaceOnUse" x1="-12.2073" y1="-648.6065" x2="-11.9259" y2="-648.6065" gradientTransform="matrix(0 83.3848 83.3848 0 54131.9883 1036.275)">					<stop offset="0" style="stop-color:#C3931D"></stop>					<stop offset="0.0801" style="stop-color:#CA9E31"></stop>					<stop offset="0.2445" style="stop-color:#DABA65"></stop>					<stop offset="0.4771" style="stop-color:#F5E6B8"></stop>					<stop offset="0.5" style="stop-color:#F8EBC1"></stop>					<stop offset="0.6117" style="stop-color:#E9D395"></stop>					<stop offset="0.7973" style="stop-color:#D1AD50"></stop>					<stop offset="0.9316" style="stop-color:#C39625"></stop>					<stop offset="1" style="stop-color:#BD8D15"></stop>				</linearGradient>				<rect x="46.67" y="34.8" class="st8" width="2.77" height="0.95"></rect>			</g>		</g>		<g>			<g>				<defs>					<path id="SVGID_22_" d="M39.44,30.49c0.12,0,0.26-0.01,0.39,0.01s0.26,0.03,0.41,0.05c0.07,0.01,0.14,0.03,0.22,0.04      c0.02,0.01,0.03,0.01,0.05,0.01c0.01,0,0.02,0.01,0.03,0.01s0.02,0.01,0.03,0.01c0.02,0.01,0.03,0.01,0.05,0.01      c0.02,0.01,0.03,0.01,0.05,0.01c0.01,0,0.02,0.01,0.03,0.01c0.01,0,0.02,0.01,0.03,0.01c0.02,0.01,0.03,0.01,0.05,0.01      c0.02,0.01,0.04,0.01,0.05,0.01c0.01,0,0.02,0.01,0.03,0.01s0.02,0.01,0.03,0.01c0.02,0.01,0.04,0.01,0.05,0.02      c0.02,0.01,0.04,0.01,0.05,0.02c0.01,0,0.02,0.01,0.03,0.01c0.01,0,0.02,0.01,0.03,0.01c0.02,0.01,0.04,0.01,0.05,0.02      c0.31,0.12,0.62,0.26,0.92,0.45c0.16,0.09,0.31,0.19,0.46,0.29c0.16,0.1,0.31,0.2,0.46,0.31c0.07,0.05,0.16,0.11,0.23,0.16      c0.04,0.03,0.07,0.05,0.12,0.08c0.04,0.03,0.07,0.05,0.12,0.08c0.04,0.03,0.07,0.05,0.12,0.09c0.03,0.03,0.07,0.05,0.11,0.08      c-0.37-0.25-1.55-1.19-2.53-1.51c-0.02-0.01-0.04-0.01-0.05-0.02c-0.01,0-0.02-0.01-0.03-0.01c-0.01,0-0.02-0.01-0.03-0.01      c-0.02-0.01-0.04-0.01-0.05-0.02c-0.02-0.01-0.04-0.01-0.05-0.02c-0.01,0-0.02-0.01-0.03-0.01c-0.01,0-0.02-0.01-0.03-0.01      c-0.02-0.01-0.04-0.01-0.05-0.01c-0.02-0.01-0.04-0.01-0.05-0.01c-0.01,0-0.02-0.01-0.03-0.01c-0.01,0-0.02-0.01-0.03-0.01      c-0.02-0.01-0.03-0.01-0.05-0.01c-0.02-0.01-0.03-0.01-0.05-0.01c-0.01,0-0.02-0.01-0.03-0.01c-0.01,0-0.02-0.01-0.03-0.01      c-0.02-0.01-0.03-0.01-0.05-0.01c-0.07-0.01-0.14-0.03-0.21-0.04c-0.14-0.03-0.27-0.04-0.4-0.05      c-0.13-0.01-0.25-0.02-0.37-0.02c-0.13,0-0.25,0.01-0.36,0.01C39.2,30.5,39.32,30.49,39.44,30.49 M38.81,30.53      c-0.09,0.03-0.19,0.06-0.22,0.07c-0.01,0-0.01,0-0.01,0.01c-0.01,0.01-0.01,0.03,0.01,0.03c0.19-0.02,1.21,0.16,2.13,0.58      c0.52,0.24,1.05,0.53,1.59,0.92c0.29,0.19,0.58,0.41,0.87,0.65c1.22,1.01,2.31,1.78,3.23,2.27c-0.17,0.31-0.2,0.62,0,0.75      c0,0,0.1,0.09,0.29-0.12c0,0-0.22-0.29-0.01-0.67c0.01-0.01,0.02-0.04,0.03-0.05c0.05-0.09,0.26-0.31,0.29-0.33      c0,0,0.14-0.14,0.16-0.16c0.28-0.28,0.5-0.54,0.28-0.72c0,0-0.12-0.07-0.26,0.04c0,0,0.06,0.25-0.3,0.65      c-0.3-0.16-0.62-0.35-0.96-0.56c-0.69-0.45-1.43-1.06-2.3-1.71c-0.77-0.59-1.43-1.04-2.12-1.33c-0.56-0.24-1.11-0.37-1.63-0.41      c-0.1-0.01-0.19-0.01-0.29-0.01C39.31,30.43,39.05,30.46,38.81,30.53"></path>				</defs>				<clipPath id="SVGID_23_">					<use xlink:href="#SVGID_22_" style="overflow:visible;"></use>				</clipPath>									<linearGradient id="SVGID_24_" gradientUnits="userSpaceOnUse" x1="-12.2073" y1="-648.4548" x2="-11.9259" y2="-648.4548" gradientTransform="matrix(0 83.3848 83.3848 0 54114.3867 1036.275)">					<stop offset="0" style="stop-color:#C3931D"></stop>					<stop offset="0.0801" style="stop-color:#CA9E31"></stop>					<stop offset="0.2445" style="stop-color:#DABA65"></stop>					<stop offset="0.4771" style="stop-color:#F5E6B8"></stop>					<stop offset="0.5" style="stop-color:#F8EBC1"></stop>					<stop offset="0.6117" style="stop-color:#E9D395"></stop>					<stop offset="0.7973" style="stop-color:#D1AD50"></stop>					<stop offset="0.9316" style="stop-color:#C39625"></stop>					<stop offset="1" style="stop-color:#BD8D15"></stop>				</linearGradient>				<rect x="38.57" y="30.43" class="st9" width="9.09" height="5.47"></rect>			</g>		</g>		<g>			<path class="st10" d="M11.22,34.24c0.05,0,0.1-0.01,0.14-0.05c0.03-0.03,0.05-0.08,0.05-0.13c0-0.05-0.02-0.1-0.05-0.14    c-0.03-0.03-0.08-0.05-0.14-0.05c-0.05,0-0.1,0.02-0.13,0.05c-0.03,0.03-0.05,0.08-0.05,0.14c0,0.05,0.02,0.1,0.05,0.13    C11.13,34.22,11.17,34.24,11.22,34.24"></path>			<path class="st10" d="M10.76,34.24c0.05,0,0.1-0.01,0.14-0.05c0.03-0.03,0.05-0.08,0.05-0.13c0-0.05-0.02-0.1-0.05-0.14    c-0.03-0.03-0.08-0.05-0.14-0.05c-0.05,0-0.1,0.02-0.13,0.05c-0.03,0.03-0.05,0.08-0.05,0.14c0,0.05,0.02,0.1,0.05,0.13    C10.66,34.22,10.71,34.24,10.76,34.24"></path>			<path class="st10" d="M15.65,35.21c0,0.24-0.05,0.42-0.16,0.52c-0.06,0.05-0.14,0.09-0.23,0.09H15.2h-0.03h-0.09v-2.46    l-0.31,0.16v2.3h-0.46v-1.34l-0.31,0.16v1.18h-0.1c-0.04,0-0.11-0.03-0.2-0.09l-0.2,0.23c0.12,0.11,0.26,0.16,0.4,0.16h1.26h0.03    h0.05c0.18,0,0.33-0.05,0.45-0.16c0.17-0.16,0.25-0.41,0.25-0.75v-1.85l-0.31,0.16V35.21z"></path>			<path class="st10" d="M17.71,34.24c0.05,0,0.1-0.02,0.14-0.05c0.03-0.03,0.05-0.08,0.05-0.13c0-0.05-0.02-0.1-0.05-0.14    c-0.03-0.03-0.08-0.05-0.14-0.05c-0.05,0-0.1,0.01-0.13,0.05c-0.03,0.03-0.05,0.08-0.05,0.14c0,0.05,0.02,0.1,0.05,0.13    C17.61,34.22,17.66,34.24,17.71,34.24"></path>			<path class="st10" d="M18.21,34.24c0.05,0,0.1-0.02,0.14-0.05c0.03-0.03,0.05-0.08,0.05-0.13c0-0.05-0.02-0.1-0.05-0.14    c-0.03-0.03-0.08-0.05-0.14-0.05c-0.05,0-0.1,0.01-0.13,0.05c-0.03,0.03-0.05,0.08-0.05,0.14c0,0.05,0.02,0.1,0.05,0.13    C18.11,34.22,18.15,34.24,18.21,34.24"></path>			<path class="st10" d="M20.38,35.64c0-0.25,0.03-0.5-0.21-0.73c-0.16-0.16-0.45-0.23-0.65-0.26c-0.17-0.03-0.34-0.08-0.5-0.16    L19,34.47v1.34H18.6v-1.34l-0.03,0.01c-0.16,0.07-0.33,0.13-0.5,0.16c-0.2,0.03-0.48,0.1-0.65,0.26    c-0.24,0.24-0.21,0.48-0.21,0.73v0.48h0.03l0,0h3.13l0,0v-0.09l0.01-0.22h-0.01V35.64L20.38,35.64z M18.29,35.79h-0.77v-0.17    c0-0.18,0.07-0.39,0.18-0.5c0.22-0.22,0.58-0.2,0.58-0.2L18.29,35.79L18.29,35.79z M20.08,35.79h-0.77v-0.86    c0,0,0.37-0.03,0.58,0.2c0.11,0.11,0.18,0.32,0.18,0.5L20.08,35.79L20.08,35.79z"></path>			<path class="st10" d="M23.46,35.21c0,0.24-0.05,0.42-0.16,0.52c-0.06,0.05-0.14,0.09-0.23,0.09h-0.07h-0.03h-1.05h-0.05v-0.17    c0-0.18,0.04-0.41,0.15-0.52c0.22-0.22,0.89-0.2,0.89-0.2v-0.46l-0.03,0.01c-0.16,0.07-0.33,0.13-0.5,0.16    c-0.2,0.03-0.48,0.1-0.65,0.26c-0.24,0.24-0.21,0.51-0.21,0.76v0.16h-0.2H21.3h-0.25v-2.42l-0.31,0.16v2.57h0.56h0.03h1.62h0.03    h0.06c0.18,0,0.33-0.05,0.45-0.16c0.17-0.16,0.25-0.41,0.25-0.75v-1.85l-0.31,0.16v1.68H23.46z"></path>			<polygon class="st10" points="24.12,36.13 24.42,36.13 24.42,33.35 24.12,33.52    "></polygon>			<path class="st10" d="M25.97,34.24c0.05,0,0.1-0.02,0.14-0.05c0.03-0.03,0.05-0.08,0.05-0.13c0-0.05-0.02-0.1-0.05-0.14    c-0.03-0.03-0.08-0.05-0.14-0.05c-0.05,0-0.1,0.01-0.13,0.05c-0.03,0.03-0.05,0.08-0.05,0.14c0,0.05,0.02,0.1,0.05,0.13    C25.87,34.22,25.92,34.24,25.97,34.24"></path>			<path class="st10" d="M26.47,34.24c0.05,0,0.1-0.02,0.14-0.05c0.03-0.03,0.05-0.08,0.05-0.13c0-0.05-0.02-0.1-0.05-0.14    c-0.03-0.03-0.08-0.05-0.14-0.05c-0.05,0-0.1,0.01-0.13,0.05c-0.03,0.03-0.05,0.08-0.05,0.14c0,0.05,0.02,0.1,0.05,0.13    C26.38,34.22,26.42,34.24,26.47,34.24"></path>			<path class="st10" d="M28.64,36.42c-0.05,0-0.1,0.01-0.13,0.05c-0.03,0.03-0.05,0.08-0.05,0.14c0,0.05,0.02,0.1,0.05,0.13    c0.03,0.03,0.07,0.05,0.13,0.05c0.05,0,0.1-0.02,0.14-0.05c0.03-0.03,0.05-0.08,0.05-0.13c0-0.05-0.02-0.1-0.05-0.14    C28.74,36.43,28.69,36.42,28.64,36.42"></path>			<path class="st10" d="M29.14,36.42c-0.05,0-0.1,0.01-0.13,0.05c-0.03,0.03-0.05,0.08-0.05,0.14c0,0.05,0.02,0.1,0.05,0.13    c0.03,0.03,0.07,0.05,0.13,0.05s0.1-0.02,0.14-0.05c0.03-0.03,0.05-0.08,0.05-0.13c0-0.05-0.02-0.1-0.05-0.14    C29.24,36.43,29.2,36.42,29.14,36.42"></path>			<path class="st10" d="M32.07,35.22c0,0.24-0.05,0.42-0.16,0.52c-0.06,0.05-0.14,0.09-0.23,0.09h-0.07h-0.03h-0.05v-0.26    c0-0.25,0.03-0.42-0.21-0.66c-0.16-0.16-0.45-0.23-0.65-0.26c-0.17-0.03-0.34-0.08-0.5-0.16l-0.03-0.01v0.46h0.31    c0,0,0.37-0.03,0.58,0.2c0.11,0.11,0.18,0.24,0.18,0.42v0.26h-0.06h-0.18v-0.07c0-0.24-0.06-0.41-0.18-0.52    c-0.09-0.08-0.2-0.13-0.33-0.13c-0.12,0-0.24,0.04-0.33,0.13c-0.12,0.11-0.18,0.29-0.18,0.52v0.07h-0.34H29.6h-0.31v-1.34    l-0.31,0.16v1.18h-0.63h-0.03h-0.31v-1.34l-0.31,0.16v1.18h-0.9V34.5l-0.03,0.01c-0.16,0.07-0.33,0.13-0.5,0.16    c-0.2,0.03-0.48,0.1-0.65,0.26c-0.24,0.24-0.21,0.48-0.21,0.73v0.48h2.91h0.03h1.24h0.03h1.94h0.03h0.05    c0.18,0,0.33-0.05,0.45-0.16c0.17-0.16,0.25-0.41,0.25-0.75v-1.82l-0.31,0.16v1.64H32.07z M26.51,35.79h-0.77v-0.25    c0-0.18,0.07-0.31,0.18-0.42c0.22-0.22,0.58-0.2,0.58-0.2L26.51,35.79L26.51,35.79z M30.68,35.81H30.3v-0.07    c0-0.07,0-0.15,0.03-0.22c0.03-0.09,0.14-0.14,0.22-0.11c0.13,0.04,0.14,0.2,0.14,0.31v0.02L30.68,35.81L30.68,35.81z"></path>			<polygon class="st10" points="32.72,33.55 32.72,36.13 33.03,36.13 33.03,33.39    "></polygon>			<path class="st10" d="M11.6,34.47l-0.03,0.01c-0.16,0.07-0.33,0.13-0.5,0.16c-0.2,0.03-0.48,0.1-0.65,0.26    c-0.24,0.24-0.21,0.41-0.21,0.66v0.26H9.66V33.4l-0.31,0.16v2.57h2.25v-0.16V34.47z M11.3,35.79h-0.77v-0.24    c0-0.18,0.07-0.31,0.18-0.42c0.22-0.22,0.58-0.2,0.58-0.2L11.3,35.79L11.3,35.79z"></path>			<path class="st10" d="M12.7,34.64c-0.2,0.03-0.48,0.1-0.65,0.26c-0.24,0.24-0.21,0.41-0.21,0.66v0.56h1.07v0.29    c0,0.1-0.03,0.17-0.09,0.23c-0.06,0.07-0.16,0.1-0.3,0.1H12.2l0.16,0.31h0.18c0.22,0,0.4-0.07,0.52-0.2    c0.11-0.12,0.16-0.26,0.16-0.43c0-0.01,0-0.03,0-0.04v-0.25l0,0v-1.64l-0.03,0.01C13.04,34.56,12.88,34.62,12.7,34.64     M12.92,35.79h-0.77v-0.24c0-0.18,0.07-0.31,0.18-0.42c0.22-0.22,0.58-0.2,0.58-0.2L12.92,35.79L12.92,35.79z"></path>			<path class="st10" d="M8.4,34.64c-0.2,0.03-0.48,0.1-0.65,0.26c-0.24,0.24-0.21,0.41-0.21,0.66v0.26H6.68    c-0.07-0.01-0.12-0.03-0.18-0.07c-0.09-0.07-0.14-0.18-0.14-0.33v-0.72l-0.31,0.16v0.56c0,0.23,0.07,0.41,0.22,0.54    c0.11,0.1,0.24,0.16,0.38,0.17h0.91v-0.01h1.36v-1.64L8.9,34.49C8.74,34.56,8.57,34.62,8.4,34.64 M8.61,35.79H7.85v-0.24    c0-0.18,0.07-0.31,0.18-0.42c0.22-0.22,0.58-0.2,0.58-0.2V35.79z"></path>			<path class="st10" d="M8.29,34.24c0.05,0,0.1-0.01,0.14-0.05c0.03-0.03,0.05-0.08,0.05-0.13c0-0.05-0.02-0.1-0.05-0.14    c-0.03-0.03-0.08-0.05-0.14-0.05c-0.05,0-0.1,0.02-0.13,0.05c-0.03,0.03-0.05,0.08-0.05,0.14c0,0.05,0.02,0.1,0.05,0.13    C8.21,34.22,8.25,34.24,8.29,34.24"></path>			<path class="st10" d="M27.7,33.94h0.46c0.01-0.04,0.04-0.08,0.05-0.12h-0.18c-0.08,0-0.15-0.05-0.15-0.15    c0-0.09,0.05-0.16,0.15-0.16c0.05,0,0.09,0.01,0.12,0.03c0.01-0.04,0.02-0.07,0.03-0.11c-0.03-0.02-0.1-0.03-0.15-0.03    c-0.17,0-0.28,0.12-0.28,0.28c0,0.05,0.02,0.1,0.04,0.14h-0.16L27.7,33.94z"></path>			<path class="st10" d="M13.85,33.94h0.46c0.01-0.04,0.04-0.08,0.05-0.12h-0.18c-0.08,0-0.15-0.05-0.15-0.15    c0-0.09,0.05-0.16,0.15-0.16c0.05,0,0.09,0.01,0.12,0.03c0.01-0.04,0.02-0.07,0.03-0.11c-0.03-0.02-0.1-0.03-0.15-0.03    c-0.17,0-0.28,0.12-0.28,0.28c0,0.05,0.02,0.1,0.04,0.14h-0.16L13.85,33.94z"></path>			<path class="st10" d="M6.94,38.54H6.69c-0.03,0-0.03,0-0.03-0.03v-0.05c0.01-0.01,0.01-0.01,0.03-0.01h0.39    c0.03,0,0.03,0.01,0.03,0.04v0.38c0,0.06,0,0.07-0.02,0.1c-0.06,0.07-0.2,0.14-0.4,0.14c-0.43,0-0.62-0.31-0.62-0.67    c0-0.39,0.24-0.67,0.6-0.67c0.3,0,0.45,0.18,0.45,0.27c0,0.05-0.04,0.08-0.08,0.08c-0.05,0-0.07-0.03-0.11-0.09    c-0.03-0.05-0.11-0.16-0.27-0.16c-0.2,0-0.4,0.17-0.4,0.52c0,0.32,0.16,0.58,0.45,0.58c0.07,0,0.14-0.01,0.18-0.05    c0.05-0.03,0.05-0.07,0.05-0.13V38.54z"></path>			<path class="st10" d="M7.57,38.46v0.5h0.49c0.02,0,0.03,0,0.03,0.03v0.06c0,0.03-0.01,0.03-0.03,0.03H7.43    c-0.03,0-0.03,0-0.03-0.03v-1.2c0-0.03,0.01-0.04,0.03-0.04h0.63c0.02,0,0.03,0,0.03,0.03c0,0.02,0,0.06,0,0.07    c0,0.01-0.01,0.02-0.03,0.02H7.57v0.43h0.41c0.02,0,0.03,0,0.03,0.03c0,0.02,0,0.07,0,0.07c0,0.01-0.01,0.01-0.03,0.01    L7.57,38.46L7.57,38.46z"></path>			<path class="st10" d="M9.2,38.77v-0.93c0-0.02,0.01-0.03,0.02-0.03h0.1c0.02,0,0.03,0.01,0.03,0.03v1.21    c0,0.03-0.01,0.03-0.03,0.03H9.24c-0.02,0-0.02-0.01-0.04-0.03l-0.72-1v0.99c0,0.02,0,0.03-0.01,0.03c0,0-0.06,0-0.1,0    c-0.03,0-0.03-0.01-0.03-0.03v-1.21c0-0.03,0.01-0.03,0.03-0.03h0.11c0.02,0,0.03,0,0.04,0.03L9.2,38.77z"></path>			<path class="st10" d="M9.83,38.46v0.5h0.49c0.02,0,0.03,0,0.03,0.03v0.06c0,0.03-0.01,0.03-0.03,0.03H9.69    c-0.03,0-0.03,0-0.03-0.03v-1.2c0-0.03,0.01-0.04,0.03-0.04h0.63c0.02,0,0.03,0,0.03,0.03c0,0.02,0,0.06,0,0.07    c0,0.01-0.01,0.02-0.03,0.02H9.83v0.43h0.41c0.02,0,0.03,0,0.03,0.03c0,0.02,0,0.07,0,0.07c0,0.01-0.01,0.01-0.03,0.01    L9.83,38.46L9.83,38.46z"></path>			<path class="st10" d="M10.6,37.86c0-0.04,0.01-0.05,0.03-0.05c0.04-0.01,0.18-0.03,0.28-0.03c0.1,0,0.25,0.01,0.35,0.09    c0.02,0.01,0.11,0.09,0.11,0.25c0,0.17-0.12,0.3-0.32,0.35l0.37,0.55c0.01,0.01,0.01,0.02,0.01,0.03c0,0.02-0.02,0.02-0.03,0.02    h-0.13c-0.03,0-0.03,0-0.05-0.03l-0.3-0.48c-0.01-0.03-0.05-0.07-0.1-0.07s-0.05,0.05-0.05,0.07v0.48c0,0.03-0.01,0.04-0.03,0.04    h-0.1c-0.03,0-0.03,0-0.03-0.03C10.6,39.04,10.6,37.86,10.6,37.86z M10.77,38.41c0.1,0,0.12,0,0.14,0    c0.16-0.01,0.27-0.1,0.27-0.26c0-0.26-0.22-0.26-0.3-0.26c-0.05,0-0.08,0-0.12,0.01V38.41z"></path>			<path class="st10" d="M20.13,37.88c0-0.04,0.01-0.05,0.03-0.05c0.04-0.01,0.18-0.03,0.28-0.03c0.1,0,0.25,0.01,0.35,0.09    c0.02,0.01,0.11,0.09,0.11,0.25c0,0.17-0.12,0.3-0.32,0.35l0.37,0.55c0.01,0.01,0.01,0.02,0.01,0.03c0,0.02-0.02,0.02-0.03,0.02    H20.8c-0.03,0-0.03,0-0.05-0.03l-0.3-0.48c-0.01-0.03-0.05-0.07-0.1-0.07s-0.05,0.05-0.05,0.07v0.48c0,0.03-0.01,0.04-0.03,0.04    h-0.1c-0.03,0-0.03,0-0.03-0.03L20.13,37.88L20.13,37.88z M20.3,38.43c0.1,0,0.12,0,0.14,0c0.16-0.01,0.27-0.1,0.27-0.26    c0-0.26-0.22-0.26-0.3-0.26c-0.05,0-0.08,0-0.12,0.01L20.3,38.43L20.3,38.43z"></path>			<path class="st10" d="M25.96,37.89c0-0.04,0.01-0.05,0.03-0.05c0.04-0.01,0.18-0.03,0.28-0.03c0.1,0,0.25,0.01,0.35,0.09    c0.02,0.01,0.11,0.09,0.11,0.25c0,0.17-0.12,0.3-0.32,0.35l0.37,0.55c0.01,0.01,0.01,0.02,0.01,0.03c0,0.02-0.02,0.02-0.03,0.02    h-0.13c-0.03,0-0.03,0-0.05-0.03l-0.3-0.48c-0.01-0.03-0.05-0.07-0.1-0.07s-0.05,0.05-0.05,0.07v0.48c0,0.03-0.01,0.04-0.03,0.04    H26c-0.03,0-0.03,0-0.03-0.03V37.89z M26.13,38.44c0.1,0,0.12,0,0.14,0c0.16-0.01,0.27-0.1,0.27-0.26c0-0.26-0.22-0.26-0.3-0.26    c-0.05,0-0.08,0-0.12,0.01V38.44z"></path>			<path class="st10" d="M12.21,38.57h-0.39l-0.18,0.48c-0.01,0.03-0.01,0.03-0.04,0.03h-0.09c-0.01,0-0.03,0-0.03-0.01l0.01-0.03    l0.47-1.2c0.01-0.02,0.01-0.03,0.03-0.03h0.07c0.01,0,0.01,0.01,0.03,0.02l0.47,1.21c0.01,0.01,0.01,0.02,0.01,0.03    c0,0.01-0.01,0.01-0.03,0.01h-0.12c-0.03,0-0.03,0-0.05-0.03L12.21,38.57z M12.17,38.47l-0.16-0.43l-0.16,0.43H12.17z"></path>			<path class="st10" d="M14.84,38.59h-0.39l-0.18,0.48c-0.01,0.03-0.01,0.03-0.04,0.03h-0.09c-0.01,0-0.03,0-0.03-0.01l0.01-0.03    l0.47-1.2c0.01-0.02,0.01-0.03,0.03-0.03h0.07c0.01,0,0.01,0,0.03,0.02l0.47,1.21c0.01,0.01,0.01,0.02,0.01,0.03    c0,0.01-0.01,0.01-0.03,0.01h-0.12c-0.03,0-0.03,0-0.05-0.03L14.84,38.59z M14.8,38.49l-0.16-0.43l-0.16,0.43H14.8z"></path>			<path class="st10" d="M12.92,38.95h0.48c0.03,0,0.03,0.01,0.03,0.03v0.07c-0.01,0.01-0.01,0.01-0.03,0.01h-0.62    c-0.03,0-0.03-0.01-0.03-0.03v-1.22c0-0.03,0.01-0.03,0.03-0.03h0.12c0.03,0,0.03,0.01,0.03,0.03L12.92,38.95L12.92,38.95z"></path>			<path class="st10" d="M17.46,37.82h-0.42h-0.12H16.5c-0.01,0-0.03,0-0.03,0.01v0.07c0,0.02,0.01,0.03,0.03,0.03h0.4v1.13    c0,0.03,0.01,0.03,0.03,0.03l0,0h0.12l0,0c0.02,0,0.03-0.01,0.03-0.03v-1.13h0.39c0.03,0,0.03-0.01,0.03-0.03v-0.07    C17.5,37.82,17.48,37.82,17.46,37.82"></path>			<path class="st10" d="M22.43,37.82H22h-0.12h-0.43c-0.01,0-0.03,0-0.03,0.01v0.07c0,0.02,0.01,0.03,0.03,0.03h0.4v1.13    c0,0.03,0.01,0.03,0.03,0.03l0,0H22l0,0c0.02,0,0.03-0.01,0.03-0.03v-1.13h0.39c0.03,0,0.03-0.01,0.03-0.03v-0.07    C22.45,37.82,22.44,37.82,22.43,37.82"></path>			<path class="st10" d="M17.75,38.96c0.03-0.02,0.07-0.04,0.11-0.06v-1.05c0-0.03-0.01-0.03-0.03-0.03h-0.12    c-0.02,0-0.03,0.01-0.03,0.03V39C17.71,38.98,17.73,38.97,17.75,38.96"></path>			<path class="st10" d="M17.79,37.95c-0.03,0.02-0.07,0.04-0.11,0.05v1.05c0,0.03,0.01,0.03,0.03,0.03h0.12    c0.02,0,0.03-0.01,0.03-0.03V37.9C17.83,37.92,17.81,37.94,17.79,37.95"></path>			<path class="st10" d="M18.55,38.96c0.03-0.02,0.07-0.04,0.11-0.06v-1.05c0-0.03-0.01-0.03-0.03-0.03h-0.12    c-0.02,0-0.03,0.01-0.03,0.03V39C18.5,38.98,18.52,38.97,18.55,38.96"></path>			<path class="st10" d="M18.58,37.95c-0.03,0.02-0.07,0.04-0.11,0.05v1.05c0,0.03,0.01,0.03,0.03,0.03h0.12    c0.02,0,0.03-0.01,0.03-0.03V37.9C18.63,37.92,18.61,37.94,18.58,37.95"></path>			<path class="st10" d="M18.44,38.49h-0.62c-0.01,0.03-0.01,0.06,0,0.09h0.62c0.07,0,0.07-0.01,0.07-0.03v-0.05    C18.51,38.49,18.48,38.49,18.44,38.49"></path>			<path class="st10" d="M21.28,39.06c0,0.03-0.01,0.03-0.03,0.03h-0.11c-0.02,0-0.03,0-0.03-0.03v-1.2c0-0.03,0.01-0.04,0.03-0.03    h0.11c0.03,0,0.03,0.01,0.03,0.03V39.06z"></path>			<path class="st10" d="M23.07,39.06c0,0.03-0.01,0.03-0.03,0.03h-0.11c-0.02,0-0.03,0-0.03-0.03v-0.54c0-0.03,0.01-0.04,0.03-0.03    h0.11c0.03,0,0.03,0,0.03,0.03V39.06z"></path>			<path class="st10" d="M23.99,38.48v0.58c0,0.03-0.01,0.03-0.03,0.03h-0.1c-0.03,0-0.04,0-0.04-0.03v-1.2    c0-0.03,0.01-0.04,0.03-0.04h0.62c0.03,0,0.03,0,0.03,0.03s0,0.06,0,0.07c0,0.01,0,0.03-0.03,0.02H24v0.43h0.4    c0.03,0,0.03,0,0.03,0.03c0,0.02,0,0.06,0,0.06c0,0.02-0.01,0.02-0.03,0.02H23.99z"></path>			<path class="st10" d="M25.21,39.12c-0.33,0-0.58-0.27-0.58-0.67c0-0.32,0.18-0.67,0.58-0.67c0.37,0,0.56,0.31,0.57,0.63    C25.8,38.81,25.56,39.12,25.21,39.12 M25.2,37.9c-0.05,0-0.12,0.01-0.16,0.05c-0.16,0.1-0.22,0.29-0.22,0.5    c0,0.07,0.01,0.13,0.02,0.19c0.05,0.24,0.21,0.37,0.37,0.37c0.1,0,0.22-0.05,0.3-0.18c0.09-0.14,0.09-0.31,0.09-0.4    C25.58,37.99,25.34,37.9,25.2,37.9"></path>			<path class="st10" d="M19.4,39.12c-0.33,0-0.58-0.27-0.58-0.67c0-0.32,0.18-0.67,0.58-0.67c0.37,0,0.56,0.31,0.57,0.63    C19.99,38.81,19.74,39.12,19.4,39.12 M19.39,37.9c-0.05,0-0.12,0.01-0.16,0.05c-0.16,0.1-0.22,0.29-0.22,0.5    c0,0.07,0.01,0.13,0.02,0.19C19.08,38.88,19.24,39,19.4,39c0.1,0,0.22-0.05,0.3-0.18c0.09-0.14,0.09-0.31,0.09-0.4    C19.77,38,19.53,37.9,19.39,37.9"></path>			<path class="st10" d="M16.28,38.65L16.28,38.65v-0.27V38.1v-0.26c0-0.02-0.01-0.02-0.03-0.02h-0.12c-0.02,0-0.03,0-0.03,0.02    v0.27v0.28v0.22l0,0c0,0.01,0,0.01,0,0.02c0,0.07,0,0.18-0.07,0.28c-0.07,0.08-0.16,0.12-0.25,0.12c-0.14,0-0.27-0.09-0.31-0.25    c-0.01-0.04-0.01-0.08-0.01-0.13l0,0l0,0l0,0v-0.26v-0.28v-0.26c0-0.02-0.01-0.02-0.03-0.02H15.3c-0.02,0-0.03,0-0.03,0.02v0.27    v0.28v0.26l0,0c0,0,0,0,0,0.01c0,0.29,0.22,0.48,0.51,0.48C16.07,39.14,16.28,38.93,16.28,38.65"></path>			<path class="st10" d="M28.06,38.59h-0.39l-0.18,0.48c-0.01,0.03-0.01,0.03-0.04,0.03h-0.09c-0.01,0-0.03,0-0.03-0.01l0.01-0.03    l0.47-1.21c0.01-0.02,0.01-0.03,0.03-0.03h0.07c0.01,0,0.01,0.01,0.03,0.03l0.47,1.21c0.01,0.01,0.01,0.02,0.01,0.03    c0,0.01-0.01,0.01-0.03,0.01h-0.12c-0.03,0-0.03,0-0.05-0.03L28.06,38.59z M28.02,38.49l-0.16-0.43l-0.16,0.43H28.02z"></path>			<path class="st10" d="M29.09,38.17l-0.29,0.9c-0.01,0.03-0.01,0.03-0.03,0.03c-0.06,0-0.07,0-0.07-0.03l-0.35-1.2    c-0.01-0.02-0.01-0.03-0.01-0.03c0-0.02,0.01-0.02,0.03-0.02h0.12c0.03,0,0.03,0.01,0.04,0.03l0.25,0.92l0.3-0.92    c0.01-0.04,0.01-0.04,0.03-0.04h0.04c0.01,0,0.01,0.01,0.02,0.03l0.31,0.92l0.26-0.92c0.01-0.03,0.01-0.03,0.04-0.03h0.1    c0.01,0,0.02,0.01,0.02,0.02c0,0.01,0,0.01-0.01,0.03l-0.35,1.2c-0.01,0.02-0.01,0.03-0.03,0.03h-0.05    c-0.01,0-0.02-0.01-0.03-0.03L29.09,38.17z"></path>			<path class="st10" d="M30.68,39.11c0.01,0.05,0.03,0.12,0.13,0.2c0.06,0.05,0.16,0.1,0.31,0.14c0.05,0.01,0.06,0.01,0.06,0.04    c0,0.01,0,0.03-0.05,0.03c-0.03,0-0.14-0.02-0.24-0.05c-0.15-0.05-0.33-0.15-0.43-0.35c-0.35-0.03-0.53-0.31-0.53-0.65    c0-0.41,0.24-0.67,0.59-0.67c0.37,0,0.6,0.29,0.6,0.67C31.12,38.79,30.94,39.03,30.68,39.11L30.68,39.11z M30.83,38.05    c-0.08-0.12-0.2-0.16-0.3-0.16c-0.12,0-0.24,0.06-0.31,0.17c-0.05,0.07-0.1,0.19-0.1,0.39c0,0.39,0.2,0.56,0.41,0.56    c0.12,0,0.24-0.06,0.31-0.18c0.07-0.12,0.1-0.25,0.09-0.39C30.93,38.3,30.91,38.16,30.83,38.05"></path>			<path class="st10" d="M31.91,38.59h-0.39l-0.18,0.48c-0.01,0.03-0.01,0.03-0.04,0.03h-0.09c-0.01,0-0.03,0-0.03-0.01l0.01-0.03    l0.47-1.21c0.01-0.02,0.01-0.03,0.03-0.03h0.07c0.01,0,0.01,0.01,0.03,0.03l0.47,1.21c0.01,0.01,0.01,0.02,0.01,0.03    c0,0.01-0.01,0.01-0.03,0.01h-0.12c-0.03,0-0.03,0-0.05-0.03L31.91,38.59z M31.87,38.49l-0.16-0.43l-0.16,0.43H31.87z"></path>			<path class="st10" d="M32.62,38.48v0.58c0,0.03-0.01,0.03-0.03,0.03h-0.1c-0.03,0-0.04,0-0.04-0.03v-1.21    c0-0.03,0.01-0.04,0.03-0.04h0.62c0.03,0,0.03,0,0.03,0.03c0,0.03,0,0.06,0,0.07c0,0.01,0,0.03-0.03,0.02h-0.48v0.43h0.41    c0.03,0,0.03,0,0.03,0.03c0,0.02,0,0.05,0,0.06c0,0.02-0.01,0.02-0.03,0.02L32.62,38.48L32.62,38.48z"></path>			<path class="st10" d="M23.23,37.83L23,38.43l-0.26-0.58c-0.01-0.03-0.01-0.04-0.04-0.03h-0.12c-0.01,0-0.03,0.01-0.03,0.02    c0,0.01,0,0.01,0.01,0.03l0.37,0.86c0.01,0.03,0.02,0.03,0.07,0.03c0.03,0,0.03,0,0.03-0.03l0.32-0.88    c0.01-0.01-0.01-0.03-0.02-0.03h-0.09C23.25,37.82,23.24,37.82,23.23,37.83"></path>		</g>	</g></g></svg>