<svg xmlns="http://www.w3.org/2000/svg" xmlns:xlink="http://www.w3.org/1999/xlink" id="Layer_1" x="0px" y="0px" viewBox="0 0 120 120" style="enable-background:new 0 0 120 120;" xml:space="preserve"><style type="text/css">	.st0{fill:#FFFFFF;}	.st1{clip-path:url(#SVGID_2_);fill:url(#SVGID_3_);}	.st2{fill:#113E64;}</style><circle class="st0" cx="60" cy="60" r="59.5"></circle><g id="Layer_2">	<g>		<g>			<g>				<g>					<defs>						<path id="SVGID_1_" d="M58.2,57c-0.8-8.4-7.5-15.2-16-15.9C43,49.5,49.7,56.3,58.2,57 M61.2,57c8.5-0.7,15.2-7.4,16-15.9       C68.7,41.8,61.9,48.5,61.2,57 M42.8,56.8c-0.8-8.5-7.5-15.2-16-15.9C27.6,49.4,34.3,56.1,42.8,56.8 M76.6,56.8       c8.5-0.7,15.2-7.4,16-15.9C84.1,41.6,77.3,48.3,76.6,56.8 M55.4,39.6c0,4.4,1.6,8.3,4.2,11.4c2.6-3.1,4.2-7.1,4.2-11.4       s-1.6-8.3-4.2-11.4C57,31.3,55.4,35.2,55.4,39.6 M42.2,38.1c8.5-0.7,15.2-7.4,16-15.9C49.7,23,43,29.7,42.2,38.1 M77.1,38.1       c-0.7-8.4-7.5-15.2-16-15.9C61.9,30.7,68.7,37.4,77.1,38.1"></path>					</defs>					<clipPath id="SVGID_2_">						<use xlink:href="#SVGID_1_" style="overflow:visible;"></use>					</clipPath>											<linearGradient id="SVGID_3_" gradientUnits="userSpaceOnUse" x1="-801.9106" y1="414.0963" x2="-801.2251" y2="414.0963" gradientTransform="matrix(0 -23.1766 23.1766 0 -9537.6641 -18528.7969)">						<stop offset="0" style="stop-color:#113E64"></stop>						<stop offset="1.302080e-03" style="stop-color:#113E64"></stop>						<stop offset="1" style="stop-color:#128B75"></stop>					</linearGradient>					<rect x="26.8" y="22.2" class="st1" width="65.7" height="34.7"></rect>				</g>			</g>			<path class="st2" d="M88.8,84.5c0,0.4,0.1,0.8,0.3,1.1h-0.8V87h4.3v-1.4h-2.1c-0.1-0.3-0.2-0.6-0.2-0.8c0-0.6,0.4-0.9,1-0.9    c0.3,0,0.6,0,0.8,0.1l0.2-1.3c-0.3-0.1-0.8-0.1-1.3-0.1C89.6,82.5,88.8,83.3,88.8,84.5 M38,71.9v6.1c0,3.2-1.5,4.3-4,4.3    s-4-1.3-4-3.8c0-1,0.2-2,0.7-3.4l-2.6-0.9c-0.8,1.8-1.1,3.3-1.1,4.7c0,3.1,2.1,6.1,6.9,6.1c4.1,0,7.1-2,7.1-6.3v-6.9L38,71.9    L38,71.9z M32.6,68.6c0,0.9,0.7,1.6,1.6,1.6s1.6-0.7,1.6-1.6c0-0.9-0.6-1.6-1.6-1.6C33.2,67,32.6,67.7,32.6,68.6 M44.3,64v11.8    c0,3.2,1.5,4.7,5.6,4.7h2.4c2,0,3.2-0.5,3.9-1.2c0.8,0.9,2.1,1.2,3.6,1.2c1.6,0,2.7-0.3,3.6-1.2c0.9,0.8,2.1,1.2,3.4,1.2    c1.6,0,2.9-0.5,3.7-1.5c0.7,1,1.8,1.5,3.7,1.5h11c1.4-6.3-0.1-10.8-6.3-10.8c-0.8,0-2.2,0.1-3.5,0.6l0.7,2.5    c0.9-0.2,1.7-0.3,2.6-0.3c3.9,0,4.4,3.2,4,5.4h-8.4c-1.7,0-2.7-0.8-2.7-2.6V70h-3v5.3c0,1.8-0.4,2.6-2.1,2.6c-1.3,0-2-0.6-2-1.7    v-4.3h-3v3.5c0,1.8-0.5,2.5-2.1,2.5c-1.2,0-2-0.4-2-1.7v-4.3h-3v3.5c0,1.8-0.6,2.5-2.1,2.5h-2.4c-1.8,0-2.6-0.7-2.6-2.1V64    L44.3,64L44.3,64z M88.9,80.5h3V64h-3V80.5z"></path>			<g>				<path class="st2" d="M26.9,94.7c0-0.2,0.1-0.5,0.2-0.8l0.7,0.2c-0.1,0.2-0.1,0.4-0.1,0.5c0,0.6,0.5,0.9,1.4,0.9     c0.9,0,1.3-0.2,1.3-0.4c0-0.4-1.5-0.6-1.5-1.5c0-0.3,0.1-0.5,0.4-0.7c0.2-0.2,0.6-0.3,1-0.3c0.2,0,0.4,0,0.7,0.1l-0.1,0.7     c-0.2,0-0.4-0.1-0.6-0.1c-0.4,0-0.6,0.1-0.6,0.3c0,0.3,0.5,0.5,1,0.7c0.3,0.2,0.5,0.4,0.5,0.8c0,0.3-0.2,0.6-0.5,0.9     c-0.3,0.2-0.9,0.4-1.6,0.4C27.7,96.2,26.9,95.7,26.9,94.7z M28.2,97.1c0-0.2,0.2-0.4,0.4-0.4c0.2,0,0.4,0.2,0.4,0.4     c0,0.2-0.2,0.4-0.4,0.4C28.3,97.5,28.2,97.3,28.2,97.1z M29.2,97.1c0-0.2,0.2-0.4,0.4-0.4c0.2,0,0.4,0.2,0.4,0.4     c0,0.2-0.2,0.4-0.4,0.4C29.3,97.5,29.2,97.3,29.2,97.1z"></path>				<path class="st2" d="M33.6,94.5c0.1,0,0.1,0.1,0.1,0.3c0,0.2,0,0.3-0.1,0.3h-0.7c-0.1,0.7-0.6,1.1-1.4,1.1l-0.1-0.6     c0.6-0.1,0.8-0.3,0.8-0.8v-2.3H33v1.9L33.6,94.5L33.6,94.5z"></path>				<path class="st2" d="M35.8,94.8c0,0.2,0,0.3-0.1,0.3c-0.4,0-0.7-0.1-0.9-0.4c-0.2,0.2-0.6,0.4-1.1,0.4h-0.1v-0.7h0.1     c0.5,0,0.6-0.2,0.6-0.7v-1.2h0.7v1.3c0,0.4,0.2,0.6,0.7,0.6C35.8,94.5,35.8,94.6,35.8,94.8z M34.5,96c0,0.2-0.2,0.4-0.4,0.4     s-0.4-0.2-0.4-0.4s0.2-0.4,0.4-0.4C34.3,95.6,34.5,95.8,34.5,96z M35.5,96c0,0.2-0.2,0.4-0.4,0.4c-0.2,0-0.4-0.2-0.4-0.4     s0.2-0.4,0.4-0.4C35.3,95.6,35.5,95.8,35.5,96z"></path>				<path class="st2" d="M38.8,94.5c0.1,0,0.1,0.1,0.1,0.3c0,0.2,0,0.3-0.1,0.3h-3.1v-0.7h1.9c0.1-0.5,0-1.3-1-1.3     c-0.2,0-0.4,0-0.6,0.1l-0.2-0.6c0.3-0.1,0.5-0.1,0.8-0.1c1.2,0,1.7,0.7,1.6,2L38.8,94.5L38.8,94.5z M36.3,91.4     c0-0.3,0.4-0.5,0.7-0.3c0.1,0.1,0.1,0.4,0,0.6C36.8,91.9,36.3,91.7,36.3,91.4z"></path>				<path class="st2" d="M38.8,94.5c0.5,0,0.6-0.2,0.6-0.7v-3.3h0.7v3.4c0,0.9-0.4,1.2-1.3,1.2V94.5z"></path>				<path class="st2" d="M40.9,95.1v-4.6h0.7v4.6H40.9z"></path>				<path class="st2" d="M48,94.5c0.1,0,0.1,0.1,0.1,0.3c0,0.2,0,0.3-0.1,0.3h-0.7v0c-0.2,0.7-0.8,1.1-1.7,1.1     c-0.5,0-0.9-0.1-1.2-0.4s-0.4-0.6-0.4-1c0-0.3,0.1-0.7,0.3-1.1l0.6,0.2c-0.1,0.3-0.2,0.6-0.2,0.8c0,0.6,0.3,0.9,1,0.9     c0.7,0,1-0.3,1-1v-4h0.7v4L48,94.5L48,94.5z"></path>				<path class="st2" d="M51.5,94.5c0.1,0,0.1,0.1,0.1,0.3c0,0.2,0,0.3-0.1,0.3h-0.8c-0.3,0.3-0.7,0.4-1.1,0.4h-0.5     c-0.2-0.1-0.3-0.2-0.4-0.4H48v-0.7h0.4c0-0.1,0-0.2,0-0.3c0-0.4,0.1-0.7,0.4-1c0.3-0.3,0.6-0.4,1-0.4c0.4,0,0.7,0.1,1,0.4     c0.2,0.3,0.3,0.6,0.3,1c0,0.1,0,0.2,0,0.3H51.5z M49.7,94.9c0.5,0,0.7-0.3,0.7-0.7c0-0.4-0.2-0.7-0.6-0.7     c-0.4,0-0.7,0.3-0.7,0.7c0,0.2,0.1,0.5,0.2,0.7H49.7z"></path>				<path class="st2" d="M55.1,94.5c0.1,0,0.1,0.1,0.1,0.3c0,0.2,0,0.3-0.1,0.3h-0.5c-0.5,0-0.9-0.1-1.3-0.2     c-0.4,0.1-0.9,0.2-1.5,0.2h-0.2v-0.7h0.6c0.2,0,0.4,0,0.6,0c-0.2-0.3-0.5-0.6-0.8-0.9c0-0.3,0.1-0.5,0.1-0.7     c0.5-0.2,0.9-0.4,1.4-0.4c0.8,0,1.2,0.3,1.2,0.9c0,0.4-0.2,0.7-0.5,1c0.2,0,0.3,0,0.4,0L55.1,94.5L55.1,94.5z M52.5,93.3     c0.3,0.3,0.6,0.6,0.8,0.9c0.3-0.2,0.6-0.5,0.6-0.7c0-0.2-0.2-0.4-0.7-0.4C53,93.2,52.8,93.2,52.5,93.3L52.5,93.3z"></path>				<path class="st2" d="M57.2,94.8c0,0.2,0,0.3-0.1,0.3c-0.4,0-0.7-0.1-0.9-0.4c-0.2,0.2-0.6,0.4-1.1,0.4v-0.7     c0.5,0,0.6-0.2,0.6-0.7v-3.3h0.7v3.4c0,0.4,0.2,0.6,0.7,0.6C57.1,94.5,57.2,94.6,57.2,94.8z"></path>				<path class="st2" d="M57.1,94.5c0.5,0,0.6-0.2,0.6-0.7v-3.3h0.7v3.4c0,0.9-0.4,1.2-1.3,1.2V94.5z"></path>				<path class="st2" d="M64.1,94.8c0,0.2,0,0.3-0.1,0.3c-0.6,0-0.9-0.1-1.1-0.3C62.7,95,62.4,95,62.1,95c-0.4,0-0.7-0.1-1-0.3     c-0.3-0.2-0.4-0.5-0.4-0.9s0.1-0.7,0.4-0.9c0.3-0.2,0.7-0.4,1.1-0.4h1.2v1.4c0,0.4,0.1,0.5,0.5,0.5     C64.1,94.5,64.1,94.6,64.1,94.8z M61.4,91.5c0-0.2,0.2-0.4,0.4-0.4c0.2,0,0.4,0.2,0.4,0.4c0,0.1,0,0.2-0.1,0.3     C61.9,92,61.4,91.8,61.4,91.5z M62.7,93.2h-0.5c-0.4,0-0.7,0.2-0.7,0.6c0,0.4,0.2,0.6,0.7,0.6c0.2,0,0.4,0,0.5-0.1L62.7,93.2     L62.7,93.2z M62.4,91.5c0-0.2,0.2-0.4,0.4-0.4c0.2,0,0.4,0.2,0.4,0.4c0,0.2-0.2,0.4-0.4,0.4C62.6,91.9,62.4,91.7,62.4,91.5z"></path>				<path class="st2" d="M66.3,94.8c0,0.2,0,0.3-0.1,0.3c-0.4,0-0.7-0.1-0.9-0.4c-0.2,0.2-0.6,0.4-1.1,0.4H64v-0.7h0.1     c0.5,0,0.6-0.2,0.6-0.7v-1.2h0.7v1.3c0,0.4,0.2,0.6,0.7,0.6C66.2,94.5,66.3,94.6,66.3,94.8z M64.9,96c0,0.2-0.2,0.4-0.4,0.4     c-0.2,0-0.4-0.2-0.4-0.4s0.2-0.4,0.4-0.4C64.8,95.6,64.9,95.8,64.9,96z M65.9,96c0,0.2-0.2,0.4-0.4,0.4s-0.4-0.2-0.4-0.4     s0.2-0.4,0.4-0.4C65.7,95.6,65.9,95.8,65.9,96z"></path>				<path class="st2" d="M68.2,94.8c0,0.2,0,0.3-0.1,0.3c-0.4,0-0.7-0.1-0.9-0.4c-0.2,0.2-0.6,0.4-1.1,0.4v-0.7     c0.5,0,0.6-0.2,0.6-0.7v-1.2h0.7v1.3c0,0.4,0.2,0.6,0.7,0.6C68.2,94.5,68.2,94.6,68.2,94.8z M66.7,91.5c0-0.3,0.4-0.5,0.7-0.3     c0.1,0.1,0.1,0.4,0,0.6C67.2,92,66.7,91.8,66.7,91.5z"></path>				<path class="st2" d="M72.7,94.1c0,0.3-0.1,0.7-0.2,1h-4.4v-0.7h0.5v-4h0.7v3.1c0.5-0.7,1.2-1.1,1.9-1.1     C72.2,92.5,72.7,93.1,72.7,94.1z M72,94.5c0-0.1,0-0.2,0-0.3c0-0.6-0.3-1-0.8-1c-0.6,0-1.2,0.5-1.8,1.3L72,94.5L72,94.5z"></path>				<path class="st2" d="M73.8,95.6c0.9,0.1,1.4-0.1,1.4-0.6C75.1,95,74.9,95,74.6,95c-0.8,0-1.3-0.4-1.3-1.2c0-0.4,0.1-0.7,0.4-0.9     c0.2-0.3,0.6-0.4,1-0.4c0.8,0,1.2,0.5,1.2,1.2v1.2c0,0.9-0.6,1.3-1.7,1.3c-0.2,0-0.3,0-0.4,0L73.8,95.6z M75.2,94.3v-0.4     c0-0.5-0.2-0.7-0.6-0.7c-0.3,0-0.6,0.3-0.6,0.6c0,0.4,0.2,0.6,0.7,0.6C74.9,94.4,75.1,94.3,75.2,94.3z"></path>				<path class="st2" d="M81.6,94.8c0,0.2,0,0.3-0.1,0.3c-0.6,0-0.9-0.1-1.1-0.3C80.2,95,79.9,95,79.6,95c-0.4,0-0.7-0.1-1-0.3     c-0.3-0.2-0.4-0.5-0.4-0.9s0.1-0.7,0.4-0.9c0.3-0.2,0.7-0.4,1.1-0.4h1.2v1.4c0,0.4,0.1,0.5,0.5,0.5     C81.6,94.5,81.6,94.6,81.6,94.8z M78.9,91.5c0-0.2,0.2-0.4,0.4-0.4c0.2,0,0.4,0.2,0.4,0.4c0,0.1,0,0.2-0.1,0.3     C79.3,92,78.9,91.8,78.9,91.5z M80.2,93.2h-0.5c-0.4,0-0.7,0.2-0.7,0.6c0,0.4,0.2,0.6,0.7,0.6c0.2,0,0.4,0,0.5-0.1L80.2,93.2     L80.2,93.2z M79.9,91.5c0-0.2,0.2-0.4,0.4-0.4c0.2,0,0.4,0.2,0.4,0.4c0,0.2-0.2,0.4-0.4,0.4C80.1,91.9,79.9,91.7,79.9,91.5z"></path>				<path class="st2" d="M87.4,94.5c0.1,0,0.1,0.1,0.1,0.3c0,0.2,0,0.3-0.1,0.3h-4.2c-0.4,0-0.6-0.1-0.8-0.2     c-0.2,0.1-0.5,0.2-0.9,0.2v-0.7c0.4,0,0.5-0.1,0.5-0.6V93h0.7v1c0,0.2,0.1,0.4,0.3,0.4c0.4-0.8,0.9-1.4,1.3-1.6     c0.4-0.3,0.8-0.3,1.1-0.3c0.9,0,1.4,0.6,1.4,1.6c0,0.1,0,0.3,0,0.4L87.4,94.5L87.4,94.5z M86.2,94.5c0-0.1,0-0.2,0-0.3     c0-0.6-0.3-1-0.8-1c-0.5,0-1.1,0.4-1.6,1.3L86.2,94.5L86.2,94.5z"></path>				<path class="st2" d="M89.5,94.8c0,0.2,0,0.3-0.1,0.3c-0.4,0-0.7-0.1-0.9-0.4c-0.2,0.2-0.6,0.4-1.1,0.4v-0.7     c0.5,0,0.6-0.2,0.6-0.7v-1.2h0.7v1.3c0,0.4,0.2,0.6,0.7,0.6C89.5,94.5,89.5,94.6,89.5,94.8z M88,91.5c0-0.3,0.4-0.5,0.7-0.3     c0.1,0.1,0.1,0.4,0,0.6C88.4,92,87.9,91.8,88,91.5z"></path>				<path class="st2" d="M91.2,92.5c0.4,0,0.7,0.1,1,0.4s0.3,0.6,0.3,0.9c0,0.6-0.3,1.3-1.5,1.3h-1.6v-0.7h0.6     c-0.1-0.2-0.2-0.4-0.2-0.7c0-0.4,0.1-0.7,0.4-0.9C90.4,92.6,90.8,92.5,91.2,92.5z M91.1,94.5c0.5,0,0.7-0.2,0.7-0.7     c0-0.4-0.2-0.7-0.6-0.7c-0.4,0-0.7,0.2-0.7,0.7c0,0.2,0.1,0.4,0.2,0.6L91.1,94.5L91.1,94.5z"></path>			</g>		</g>	</g>		</g></svg>