<?xml version="1.0" encoding="utf-8"?>
<!-- Generator: Adobe Illustrator 24.3.0, SVG Export Plug-In . SVG Version: 6.00 Build 0)  -->
<svg version="1.1" id="Layer_1" xmlns="http://www.w3.org/2000/svg" xmlns:xlink="http://www.w3.org/1999/xlink" x="0px" y="0px"
	 viewBox="0 0 92 92" style="enable-background:new 0 0 92 92;" xml:space="preserve">
<style type="text/css">
	.st0{fill:#143623;}
	.st1{fill:#3D9F83;}
	.st2{fill:none;stroke:#030B13;stroke-width:0.4111;stroke-linecap:round;stroke-linejoin:round;stroke-miterlimit:10;}
	.st3{fill:#030B13;}
	.st4{fill:#07070D;}
	.st5{fill:#FFFFFF;}
</style>
<g>
	<g id="Layer_7_4_">
		<g>
			<path class="st0" d="M88.6,77.5c0,2.8-0.7,4.8-2.1,6.1c-1.3,1.2-3.4,1.8-6.3,1.8v-3.4c2.8,0,4.2-1.3,4.2-4V66.5h4.2V77.5z"/>
		</g>
		<g>
			<g>
				<path class="st0" d="M29.9,73.9h-0.2c-2.4,0-4.2-0.6-5.4-1.8c-0.9,4.1-5.2,6.9-10.1,6.9c-6,0-10.8-4.5-10.8-10.4v-3.7h4.2v3.3
					c0,4.1,2.4,6.8,6.7,6.8c3.3,0,6.4-2.1,6.4-4.9c0-1.6-1.4-2.7-2.8-2.7c-0.2,0-0.5,0-0.7,0.1v-3.7c0,0,0.6,0,1.8,0
					c3,0,5.3,1.4,6.8,4.2c0.7,1.4,1.8,1.9,3.6,1.9h0.7L29.9,73.9L29.9,73.9z M13.7,85.3H9.9v-3.5h3.8V85.3z M19.3,85.3h-3.7v-3.5
					h3.7V85.3z"/>
			</g>
			<g>
				<path class="st0" d="M32.7,57.8h-3.7v-3.5h3.7V57.8z M43.1,73.9H29.5v-4.1h2.8c1.4,0,2.1-1,2.1-2.9v-6.8h4.2v6.6
					c0,1.1-0.2,2.1-0.5,3.1h4.9L43.1,73.9L43.1,73.9z M38.3,57.8h-3.7v-3.5h3.7V57.8z"/>
			</g>
			<g>
				<path class="st0" d="M45.5,79h-3.7v-3.5h3.7V79z M51.5,68c0,1.6-0.5,3-1.3,4c-1,1.3-2.4,1.9-4.1,1.9h-3.6v-4.1h2.7
					c1.4,0,2.1-1,2.1-3v-6.7h4.2L51.5,68L51.5,68z M51.2,79h-3.8v-3.5h3.8V79z"/>
			</g>
			<g>
				<path class="st0" d="M63.7,73.9h-4c-3.2,0-5.1-1.9-5.1-5V54.3h4.2v12.4c0,2.1,0.5,3.2,3.6,3.2h1.2L63.7,73.9L63.7,73.9z"/>
			</g>
			<g>
				<path class="st0" d="M79.8,73.9h-17v-4.1h4.8c-0.4-1.1-0.6-2-0.6-2.9c0-2,0.6-3.7,1.9-5.1c1.3-1.4,2.9-2.1,4.9-2.1
					c2.6,0,4.7,1.5,5.8,3.9l-3.5,1.6c-0.4-1.2-1.2-1.8-2.4-1.8c-0.8,0-1.5,0.3-2,1c-0.4,0.6-0.6,1.3-0.6,2.3c0,1.6,0.6,2.7,1.7,3.1
					h7L79.8,73.9L79.8,73.9z"/>
			</g>
		</g>
		<g>
			<g>
				<path class="st1" d="M25.5,83.8h-0.6v1.6H24v-4.1h1.5c0.3,0,0.5,0,0.7,0.1c0.2,0.1,0.3,0.2,0.5,0.3c0.1,0.1,0.2,0.3,0.3,0.4
					c0.1,0.2,0.1,0.3,0.1,0.5c0,0.1,0,0.2,0,0.4s-0.1,0.2-0.1,0.3c-0.1,0.1-0.2,0.2-0.3,0.3c-0.1,0.1-0.2,0.1-0.3,0.2l1,1.7h-0.9
					L25.5,83.8z M24.9,82v1h0.6c0.1,0,0.2,0,0.3,0c0.1,0,0.2,0,0.2-0.1c0.1,0,0.1-0.1,0.1-0.2c0-0.1,0.1-0.1,0.1-0.3
					c0-0.2-0.1-0.3-0.2-0.4C25.9,82,25.7,82,25.4,82H24.9L24.9,82z"/>
			</g>
			<g>
				<path class="st1" d="M32.4,81.2H35V82h-1.8v0.8h1.6v0.8h-1.6v0.9H35v0.8h-2.6V81.2z"/>
			</g>
			<g>
				<path class="st1" d="M43.7,85.3h-0.9l-0.3-0.9H41l-0.3,0.9h-0.9l1.5-4.1h0.9L43.7,85.3z M41.2,83.6h1l-0.5-1.4L41.2,83.6z"/>
			</g>
			<g>
				<path class="st1" d="M50.6,81.2h1l-1.4,2.6v1.5h-0.8v-1.5l-1.4-2.6h1l0.9,1.7L50.6,81.2z"/>
			</g>
			<g>
				<path class="st1" d="M59.7,85.3h-0.9l-0.3-0.9h-1.5l-0.3,0.9h-0.9l1.5-4.1h0.9L59.7,85.3z M57.2,83.6h1l-0.5-1.4L57.2,83.6z"/>
			</g>
			<g>
				<path class="st1" d="M65.1,82h-1.3v-0.8h3.4V82h-1.3v3.3h-0.8V82z"/>
			</g>
			<g>
				<path class="st1" d="M74.5,81.2h1l-1.4,2.6v1.5h-0.8v-1.5l-1.4-2.6h1l0.9,1.7L74.5,81.2z"/>
			</g>
		</g>
	</g>
	<g>
		<polyline class="st2" points="63.1,29.5 63.1,26.5 66.3,26 51.4,11.2 43.7,18.3 		"/>
		<g>
			<rect x="41.8" y="35.6" class="st3" width="15.5" height="0.3"/>
			<path class="st3" d="M44.4,30.8l-1.3,0.7c-0.2,0.1-0.5,0-0.7-0.2l-2.6-4.9c-0.1-0.2,0-0.5,0.2-0.7l1.3-0.7c0.2-0.1,0.5,0,0.7,0.2
				l2.6,4.9C44.7,30.3,44.6,30.6,44.4,30.8z"/>
			<path class="st3" d="M56.7,34.1H41.1c-0.3,0-0.5-0.2-0.5-0.5v-1.4c0-0.3,0.2-0.5,0.5-0.5h15.6c0.3,0,0.5,0.2,0.5,0.5v1.4
				C57.3,33.9,57,34.1,56.7,34.1z"/>
			<path class="st3" d="M39.9,36.1L39.9,36.1c-0.2,0-0.3,0.2-0.3,0v-8.4c0-0.2,0.1-0.3,0.3-0.3l0,0c0.2,0,0.3,0.1,0.3,0.3v8.1
				C40.2,36,40.1,36.1,39.9,36.1z"/>
			<g>
				<path class="st4" d="M40.5,35.9c0.3,0,0.5,0.2,0.5,0.5c0,0.3-0.2,0.5-0.5,0.5c-0.3,0-0.5-0.2-0.5-0.5
					C40,36.2,40.3,35.9,40.5,35.9 M40.5,35.5c-0.5,0-1,0.4-1,1c0,0.5,0.4,1,1,1c0.5,0,1-0.4,1-1C41.5,35.9,41.1,35.5,40.5,35.5
					L40.5,35.5z"/>
			</g>
			<path class="st3" d="M57.9,36L57.9,36c-0.2,0-0.3,0.2-0.3,0v-7c0-0.1,0.1-0.2,0.3-0.2l0,0c0.2,0,0.3,0.1,0.3,0.2v6.8
				C58.2,35.9,58.1,36,57.9,36z"/>
			<g>
				<path class="st4" d="M58.3,35.9c0.3,0,0.5,0.2,0.5,0.5c0,0.3-0.2,0.5-0.5,0.5c-0.3,0-0.5-0.2-0.5-0.5
					C57.8,36.2,58.1,35.9,58.3,35.9 M58.3,35.5c-0.5,0-1,0.4-1,1c0,0.5,0.4,1,1,1c0.5,0,1-0.4,1-1C59.3,35.9,58.9,35.5,58.3,35.5
					L58.3,35.5z"/>
			</g>
			<path class="st3" d="M46.2,27.7c1,0.1,1.9,0.1,2.8,0.6c0.7,0.3,1.5,0.4,2.2,0.4c0.6,0,1.2-0.1,1.8-0.1c0.8,0,1.6,0.1,2.4,0.3
				c0.6,0.1,1.1,0.3,1.6,0.6c0.1,0,0.1,0.1,0.2,0.1c0.7,0.4,0.8,1.1,0.6,1.8c0,0.2-0.3,0.5-0.5,0.5c-0.6,0.2-1.3,0.4-1.9,0.6
				c-0.4,0.1-0.8,0.5-0.9,0.9c0,0.2-0.1,0.4-0.4,0.3c-0.3-0.1-0.6-0.2-0.9-0.4c-0.3-0.2-0.6-0.5-0.9-0.7c-0.5-0.4-1-0.5-1.6-0.4
				c-0.7,0.2-1.4,0.1-2.1,0c-0.7-0.1-1.3-0.3-2-0.4c-0.2,0-0.4,0-0.6,0c-0.3,0-0.5-0.1-0.5-0.5c0,0,0-0.1,0-0.1c0-0.2,0-0.4,0.1-0.7
				c0.1,0,0.2,0.1,0.3,0.1c0.1-0.2,0.1-0.4,0.2-0.6c0-0.3,0.4-0.3,0.4-0.3C47.3,29.9,46.2,27.8,46.2,27.7z"/>
			<path class="st3" d="M47.1,27.8c-1.5-0.1-1.2-1.4-2.5-1.2c-1,0.3-0.9,1.3-0.7,1.6c0.4,0.8,2,2.3,2,2.5
				C48.1,30.7,47.9,27.9,47.1,27.8z M46,30.5C46,30.5,46,30.5,46,30.5C46,30.5,46,30.5,46,30.5z M46.4,29.7
				c-0.1-0.1-0.1-0.1-0.3-0.1c0,0,0,0,0,0c-0.8-0.3-1.4-0.8-1.9-1.7c-0.4-0.7,0.6-1.3,1-0.6c0.3,0.5,0.6,0.9,1,1.1c0,0,0,0,0,0
				c0,0,0.1-0.3,0.1-0.4C47,28,46.7,29,46.4,29.7z"/>
			<path class="st5" d="M46.4,28.4c0-0.2,0.1-0.3,0.1-0.5c0.9,0,1.9,0.1,2.7,0.5c0.7,0.3,1.4,0.4,2.2,0.4c0.6,0,1.1-0.1,1.7-0.1
				c0.8,0,1.5,0.1,2.3,0.2c0.5,0.1,1.1,0.3,1.5,0.6c0.1,0,0.1,0.1,0.2,0.1c0.7,0.4,0.7,1,0.6,1.6c0,0.2-0.3,0.4-0.5,0.5
				c-0.6,0.2-1.2,0.4-1.8,0.5c-0.4,0.1-0.8,0.4-0.8,0.8c0,0.2-0.1,0.3-0.4,0.3c-0.3-0.1-0.6-0.2-0.8-0.4c-0.3-0.2-0.6-0.4-0.8-0.7
				c-0.5-0.4-1-0.5-1.5-0.3c-0.7,0.2-1.4,0.1-2.1,0c-0.6-0.1-1.3-0.2-1.9-0.3c-0.2,0-0.4,0-0.6,0c-0.3,0-0.5-0.1-0.5-0.4
				c0,0,0-0.1,0-0.1c0-0.2,0-0.4,0.1-0.6c0-0.2,0.1-1,0.1-1S46.3,28.7,46.4,28.4z"/>
			<path class="st3" d="M44.4,27.8c-0.4-0.7,0.6-1.1,0.9-0.5c0.7,1.1,1.1,1.6,3.2,1.3c0.7,0,0.7,0.9,0.2,1
				C46.4,29.9,45.3,29.4,44.4,27.8z"/>
			<circle class="st3" cx="44.2" cy="25" r="1.4"/>
			<path class="st3" d="M53.2,34.4c0,0.4-0.3,0.7-0.7,0.7s-0.7-0.3-0.7-0.7C51.8,34.4,53.2,34.4,53.2,34.4z"/>
			<path class="st3" d="M55,34.4c0,0.4-0.3,0.7-0.7,0.7s-0.7-0.3-0.7-0.7C53.6,34.4,55,34.4,55,34.4z"/>
			<path class="st3" d="M51.7,27.7c-1.5-0.4-1.6-0.5-1.3-1.9c0.3-1.4,0.7-1.9,1.6-1.9C51.7,25.3,50.8,26,51.7,27.7z"/>
			<path class="st3" d="M55.5,26.9c1.4-0.4,1.2-0.5,0.8-1.7c-0.4-1.2-1.4-2.2-2-1.6C54.7,25.2,56.1,25.3,55.5,26.9z"/>
			<path class="st3" d="M52.5,28l-1.9-0.7c-0.2-0.1-0.4-0.4-0.3-0.6l0,0c0.1-0.2,0.4-0.4,0.6-0.3l1.9,0.7c0.2,0.1,0.4,0.4,0.3,0.6
				l0,0C53,27.9,52.7,28.1,52.5,28z"/>
			<path class="st3" d="M56.3,26.7l-1.9,0.7c-0.2,0.1-0.5,0-0.6-0.3v0c-0.1-0.2,0-0.5,0.3-0.6l1.9-0.7c0.2-0.1,0.5,0,0.6,0.3v0
				C56.6,26.4,56.5,26.6,56.3,26.7z"/>
			<path class="st3" d="M55.1,24.3c0,0,0.2-0.6-0.2-0.8c-0.6-0.2-0.9,0.6-1.8,0.7c-0.8,0.1-0.7-0.4-1.6-0.2c-0.1,0-0.4,1.3-0.2,1.5
				c0.6,1.3,0.5,2.6,0.5,2.6s0.3,0,0.8,0.1l-1-2.6l2.1-0.8l1.1,3.1l-1.1,0.4c0.6,0.1,1.1,0.1,1.3,0.1C54.9,26.7,55.1,24.9,55.1,24.3
				z"/>
			<circle class="st3" cx="53" cy="22.4" r="1.4"/>
		</g>
		<g>
			<circle class="st0" cx="30.6" cy="35.9" r="3.9"/>
			<g>
				<circle class="st0" cx="28.5" cy="28.4" r="3.1"/>
			</g>
			<g>
				<circle class="st0" cx="28.9" cy="21.7" r="2.8"/>
			</g>
			<g>
				<circle class="st0" cx="31.3" cy="16.3" r="2.4"/>
			</g>
			<g>
				<circle class="st0" cx="34.8" cy="12.4" r="2"/>
			</g>
			<g>
				<circle class="st0" cx="38.6" cy="9.8" r="1.7"/>
			</g>
			<g>
				<circle class="st0" cx="42.1" cy="8.4" r="1.3"/>
			</g>
			<g>
				<circle class="st0" cx="45.1" cy="7.6" r="1"/>
			</g>
			<g>
				<circle class="st0" cx="47.4" cy="7.3" r="0.6"/>
			</g>
			<g>
				<circle class="st0" cx="35.8" cy="41.7" r="3.1"/>
			</g>
			<g>
				<circle class="st0" cx="41.8" cy="44.7" r="2.8"/>
			</g>
			<g>
				<circle class="st0" cx="47.7" cy="45.5" r="2.4"/>
			</g>
			<g>
				<circle class="st0" cx="52.9" cy="44.6" r="2"/>
			</g>
			<g>
				<circle class="st0" cx="57" cy="42.7" r="1.7"/>
			</g>
			<g>
				<circle class="st0" cx="60.1" cy="40.4" r="1.3"/>
			</g>
			<g>
				<circle class="st0" cx="62.3" cy="38.2" r="1"/>
			</g>
			<g>
				<circle class="st0" cx="63.8" cy="36.3" r="0.6"/>
			</g>
		</g>
		<g>
			<g>
				<path class="st3" d="M39.1,20.7c-0.2-1.2-0.2-2.4,0-3.6c0.4,0.3,0.3,1.3,0.2,1.5c0.6-0.7,0.3-1.6,0.2-1.8
					c0.1,0.1,0.5,0.5,0.5,1.5c0.5-1.3-0.4-1.9-0.4-2c0,0,0.8,0.4,0.9,1.3c0.4-1.3-0.8-1.6-0.9-1.6c0,0,0.5-0.2,1.1,0.5
					c-0.2-1-1-0.9-1.3-0.7c0,0,0.3-0.6,0.8-0.2c-0.4-0.7-1.1-0.2-1.2,0c-0.1-0.1-0.3-0.6-0.3-0.7c0,0.2-0.3,5.6,0,5.9
					C39.1,21,39,21,39.1,20.7z"/>
				<path class="st3" d="M38.5,20.7c0.2-1.2,0.2-2.4,0-3.6c-0.4,0.3-0.3,1.3-0.2,1.5c-0.6-0.7-0.3-1.6-0.2-1.8
					c-0.1,0.1-0.5,0.5-0.5,1.5c-0.5-1.3,0.4-1.9,0.4-2c0,0-0.8,0.4-0.9,1.3C36.7,16.3,37.9,16,38,16c0,0-0.5-0.2-1.1,0.5
					c0.2-1,1-0.9,1.3-0.7c0,0-0.3-0.6-0.8-0.2c0.4-0.7,1.1-0.2,1.2,0c0.1-0.1,0.3-0.6,0.3-0.7c0,0.2-0.1,5.6,0,5.9
					C39,21.1,38.7,21,38.5,20.7z"/>
			</g>
			<g>
				<path class="st3" d="M34.8,20c2.5-0.9,4.5,2.3,5.6,2.9c0.8,0.5,1-1,0-0.5C39.5,21.9,37.7,18.6,34.8,20z"/>
				<path class="st3" d="M42.8,20c-2.5-0.9-4.5,2.3-5.6,2.9c-0.8,0.5-1-1,0-0.5C38.1,21.9,40,18.6,42.8,20z"/>
			</g>
		</g>
	</g>
</g>
</svg>
