<svg xmlns="http://www.w3.org/2000/svg" xmlns:xlink="http://www.w3.org/1999/xlink" id="Layer_1" x="0px" y="0px" viewBox="0 0 120 120" style="enable-background:new 0 0 120 120;" xml:space="preserve"><style type="text/css">	.st0{fill:#FFFFFF;}	.st1{fill:#12B2AA;}	.st2{fill:#5581C4;}</style><circle class="st0" cx="60" cy="60" r="59.5"></circle><g id="Layer_2">	<g>		<g>			<path class="st1" d="M37.1,36.4v27.8c0,1.1,0.9,2,2,2h16.8c2.4,0,4.5-1,5.9-2.7c1.5,1.6,3.6,2.7,5.9,2.7c2.7,0,5.2-1.8,6-4.4    l1.2-3.3l2.8,6.3c0.4,0.8,1,1.4,1.9,1.4c0.9,0,1.6-0.6,2-1.5l5.1-15.4l3.8,28.8c0.1,1,0.9,1.7,1.9,1.8c0,0,0.1,0,0.1,0    c0.9,0,1.7-0.6,2-1.5l4.5-16.8l1.2,3.2c0.3,0.8,1.1,1.3,1.9,1.3h5.9c1,0,2-0.7,2.1-1.7c0.2-1.3-0.8-2.4-2-2.4h-4.6l-2.9-7.9    c-0.3-0.9-1.3-1.5-2.3-1.3c-0.8,0.1-1.4,0.8-1.6,1.6l-3.5,12.9l-3.7-28.3c-0.1-0.8-0.6-1.5-1.3-1.7c-1.1-0.4-2.3,0.3-2.6,1.4    l-6,20.8l-2.5-8c-0.2-0.7-0.7-1.3-1.5-1.4c-1.1-0.3-2.1,0.3-2.4,1.3l-3.2,9c0,0,0,0.1,0,0.1c-0.3,0.9-1.1,1.6-2.1,1.6    c-2.2,0-3.9-1.7-3.9-3.9v-2.6v-4v-6.3c0-1.1-0.9-2-2-2h-6.1c-4.5,0-8.4,3.4-8.6,7.8c-0.3,4.9,3.5,8.9,8.4,8.9    c1.6,0,3-0.4,4.3-1.2c-0.3,1.9-1.9,3.3-3.8,3.3H41.1V36.4c0-1.1-0.9-2-2-2l0,0C38,34.4,37.1,35.3,37.1,36.4z M55.5,56    c-2.4,0-4.3-1.9-4.3-4.3c0-2.4,1.9-4.3,4.3-4.3h4.3v4.3C59.8,54,57.9,56,55.5,56z"></path>			<path class="st1" d="M24.8,48.8h-1.1c-4.8,0-8.7,3.9-8.7,8.7c0,1.7,0.5,3.3,1.3,4.6h-4.4c-1.1,0-2,0.9-2,2c0,1.1,0.9,2,2,2h11.7    h7.8c1.1,0,2-0.9,2-2c0-1.1-0.9-2-2-2h-7.8c-2.5,0-4.6-2.1-4.6-4.6c0-2.5,2.1-4.6,4.6-4.6h1.1c2.5,0,4.6,2.1,4.6,4.6V58    c0,1.1,0.9,2,2,2c1.1,0,2-0.9,2-2v-0.5C33.5,52.7,29.6,48.8,24.8,48.8z"></path>			<circle class="st1" cx="56.9" cy="37.3" r="2.9"></circle>		</g>		<g>			<g>				<path class="st2" d="M10.7,85.6c-0.4,0-0.6-0.2-0.7-0.6l-0.1-0.3c-0.1-0.4,0.2-0.7,0.6-0.7h5.3c1.5,0,2.3-0.5,2.3-1.5     c0-1-0.8-1.6-2.4-1.9l-2.1-0.4c-2.4-0.4-3.6-1.4-3.6-3.2c0-1.9,1.3-2.9,3.9-2.9h4.5c0.4,0,0.6,0.2,0.7,0.6l0,0.3     c0.1,0.4-0.1,0.7-0.6,0.7h-4.6c-1.5,0-2.1,0.4-2.1,1.3c0,0.9,0.7,1.4,2.3,1.7l2.2,0.4c1.2,0.2,2.2,0.6,2.8,1.1     c0.6,0.5,0.9,1.3,0.9,2.2c0,2-1.4,3.1-4,3.1H10.7L10.7,85.6z"></path>				<path class="st2" d="M32.8,74.1c0.4,0,0.6,0.2,0.6,0.6V85c0,0.4-0.2,0.6-0.6,0.6h-0.6c-0.4,0-0.6-0.2-0.6-0.6v-4.4h-6.9V85     c0,0.4-0.2,0.6-0.6,0.6h-0.6c-0.4,0-0.6-0.2-0.6-0.6V74.8c0-0.4,0.2-0.6,0.6-0.6h0.6c0.4,0,0.6,0.2,0.6,0.6V79h6.9v-4.2     c0-0.4,0.2-0.6,0.6-0.6H32.8z"></path>				<path class="st2" d="M37.9,85.6c-0.4,0-0.6-0.2-0.6-0.6V74.8c0-0.4,0.2-0.6,0.6-0.6h7.6c0.4,0,0.6,0.2,0.7,0.6l0,0.3     c0.1,0.4-0.1,0.7-0.5,0.7h-6.6V79h5.4c0.4,0,0.6,0.2,0.6,0.6v0.3c0,0.4-0.2,0.6-0.6,0.6h-5.4v3.6h6.7c0.4,0,0.6,0.2,0.6,0.7     l-0.1,0.3c-0.1,0.4-0.3,0.6-0.7,0.6L37.9,85.6L37.9,85.6z"></path>				<path class="st2" d="M50.3,85.6c-0.4,0-0.6-0.2-0.6-0.6V74.8c0-0.4,0.2-0.6,0.6-0.6h7.5c0.4,0,0.6,0.2,0.7,0.6l0.1,0.3     c0.1,0.4-0.2,0.7-0.6,0.7h-6.4v3.5h5.2c0.4,0,0.6,0.2,0.6,0.6v0.3c0,0.4-0.2,0.6-0.6,0.6h-5.2V85c0,0.4-0.2,0.6-0.6,0.6     L50.3,85.6L50.3,85.6z"></path>				<path class="st2" d="M71.1,84.9c0.2,0.4,0,0.7-0.5,0.7H70c-0.4,0-0.6-0.2-0.7-0.5l-1.1-2.7h-6l-1.1,2.7     c-0.1,0.3-0.4,0.5-0.7,0.5h-0.6c-0.5,0-0.7-0.3-0.5-0.7l4.3-10.3c0.1-0.3,0.4-0.5,0.7-0.5h1.8c0.3,0,0.6,0.2,0.7,0.5L71.1,84.9z      M62.8,80.9h4.7l-2.1-5.2H65L62.8,80.9z"></path>				<path class="st2" d="M84.8,84.9c0.2,0.4,0,0.7-0.5,0.7h-0.6c-0.4,0-0.6-0.2-0.7-0.5l-1.1-2.7h-6l-1.1,2.7     c-0.1,0.3-0.4,0.5-0.7,0.5h-0.6c-0.5,0-0.7-0.3-0.5-0.7l4.3-10.3c0.1-0.3,0.4-0.5,0.7-0.5h1.8c0.3,0,0.6,0.2,0.7,0.5L84.8,84.9z      M76.5,80.9h4.7l-2.1-5.2h-0.4L76.5,80.9z"></path>			</g>			<g>				<path class="st2" d="M105.7,74.2c1.4,0,2.5,0.4,3.3,1.1c0.7,0.7,1.1,1.7,1.1,3.1c0,1.3-0.4,2.4-1.1,3.1     c-0.7,0.7-1.8,1.1-3.3,1.1c-1.4,0-2.5-0.4-3.3-1.1c-0.7-0.7-1.1-1.7-1.1-3.1c0-1.3,0.4-2.4,1.1-3.1     C103.2,74.5,104.3,74.2,105.7,74.2z M105.7,81.7c1.2,0,2-0.3,2.6-0.8c0.6-0.6,0.9-1.4,0.9-2.5c0-2.3-1.2-3.4-3.5-3.4     c-1.2,0-2,0.3-2.6,0.8c-0.6,0.6-0.9,1.4-0.9,2.5s0.3,2,0.9,2.5C103.7,81.4,104.6,81.7,105.7,81.7z M106.6,79l0.8,0.9     c0.2,0.2,0.1,0.5-0.2,0.5h-0.2c-0.2,0-0.4-0.1-0.5-0.3l-0.8-1c-0.1-0.1-0.1-0.2-0.1-0.3v-0.2c0-0.1,0.1-0.2,0.2-0.2h0.2     c0.6,0,0.9-0.2,0.9-0.7c0-0.5-0.3-0.7-0.9-0.7h-1V80c0,0.3-0.1,0.4-0.4,0.4h-0.2c-0.3,0-0.4-0.1-0.4-0.4v-3.3     c0-0.2,0.2-0.4,0.4-0.4h1.5c1.2,0,1.8,0.5,1.8,1.5C107.6,78.4,107.3,78.9,106.6,79z"></path>			</g>			<circle class="st2" cx="102.9" cy="37.3" r="2.9"></circle>			<path class="st2" d="M104.2,44.2c0,1.6,1.3,2.9,2.9,2.9s2.9-1.3,2.9-2.9c0-1.6-1.3-2.9-2.9-2.9S104.2,42.6,104.2,44.2z"></path>			<circle class="st2" cx="98.7" cy="44.2" r="2.9"></circle>		</g>	</g></g></svg>